G04 Layer_Color=128*
%FSLAX24Y24*%
%MOIN*%
G70*
G01*
G75*
%ADD49R,0.0402X0.0862*%
%ADD76R,0.2000X0.2000*%
%ADD77R,0.0874X0.0402*%
D49*
X16400Y10077D02*
D03*
X15400D02*
D03*
X13400D02*
D03*
X12400D02*
D03*
X14400D02*
D03*
X16400Y8923D02*
D03*
X15400D02*
D03*
X13400D02*
D03*
X12400D02*
D03*
X14400D02*
D03*
X11400Y10077D02*
D03*
X10400D02*
D03*
X8400D02*
D03*
X7400D02*
D03*
X9400D02*
D03*
X10400Y8923D02*
D03*
X9400D02*
D03*
X11400D02*
D03*
X7400D02*
D03*
X8400D02*
D03*
X25000Y-8923D02*
D03*
X24000D02*
D03*
X22000D02*
D03*
X23000D02*
D03*
X24000Y-10077D02*
D03*
X25000D02*
D03*
X22000D02*
D03*
X23000D02*
D03*
X21000Y-8923D02*
D03*
X20000D02*
D03*
X21000Y-10077D02*
D03*
X20000D02*
D03*
X19000Y10077D02*
D03*
Y8923D02*
D03*
X18000Y10077D02*
D03*
Y8923D02*
D03*
X24000Y10077D02*
D03*
Y8923D02*
D03*
X23000D02*
D03*
Y10077D02*
D03*
X22000Y8923D02*
D03*
Y10077D02*
D03*
X20000Y8923D02*
D03*
Y10077D02*
D03*
X21000Y8923D02*
D03*
Y10077D02*
D03*
X25000D02*
D03*
Y8923D02*
D03*
X17000Y-10077D02*
D03*
Y-8923D02*
D03*
X18000Y-10077D02*
D03*
Y-8923D02*
D03*
X12000Y-10077D02*
D03*
Y-8923D02*
D03*
X13000D02*
D03*
Y-10077D02*
D03*
X14000Y-8923D02*
D03*
Y-10077D02*
D03*
X16000Y-8923D02*
D03*
Y-10077D02*
D03*
X15000Y-8923D02*
D03*
Y-10077D02*
D03*
X11000D02*
D03*
Y-8923D02*
D03*
X28000Y10077D02*
D03*
Y8923D02*
D03*
X27000Y10077D02*
D03*
Y8923D02*
D03*
X33000Y10077D02*
D03*
Y8923D02*
D03*
X32000D02*
D03*
Y10077D02*
D03*
X31000Y8923D02*
D03*
Y10077D02*
D03*
X29000Y8923D02*
D03*
Y10077D02*
D03*
X30000Y8923D02*
D03*
Y10077D02*
D03*
X34000D02*
D03*
Y8923D02*
D03*
D76*
X4499Y5150D02*
D03*
Y-5150D02*
D03*
D77*
X26662Y1500D02*
D03*
Y500D02*
D03*
Y-500D02*
D03*
X24438Y1500D02*
D03*
Y500D02*
D03*
Y-500D02*
D03*
M02*
