G04 Layer_Color=16711935*
%FSLAX24Y24*%
%MOIN*%
G70*
G01*
G75*
%ADD102C,0.0787*%
%ADD124R,0.0462X0.0922*%
%ADD133C,0.0651*%
%ADD134O,0.0690X0.0414*%
%ADD135C,0.0761*%
%ADD136R,0.0651X0.0651*%
%ADD137C,0.1320*%
%ADD138C,0.0300*%
%ADD139C,0.7087*%
G04:AMPARAMS|DCode=140|XSize=399.7mil|YSize=399.7mil|CornerRadius=101.4mil|HoleSize=0mil|Usage=FLASHONLY|Rotation=270.000|XOffset=0mil|YOffset=0mil|HoleType=Round|Shape=RoundedRectangle|*
%AMROUNDEDRECTD140*
21,1,0.3997,0.1969,0,0,270.0*
21,1,0.1969,0.3997,0,0,270.0*
1,1,0.2029,-0.0984,-0.0984*
1,1,0.2029,-0.0984,0.0984*
1,1,0.2029,0.0984,0.0984*
1,1,0.2029,0.0984,-0.0984*
%
%ADD140ROUNDEDRECTD140*%
%ADD141R,0.2060X0.2060*%
%ADD142R,0.0934X0.0462*%
D102*
X4500Y-11350D02*
D03*
X38000Y9500D02*
D03*
D124*
X16400Y10077D02*
D03*
X15400D02*
D03*
X13400D02*
D03*
X12400D02*
D03*
X14400D02*
D03*
X16400Y8923D02*
D03*
X15400D02*
D03*
X13400D02*
D03*
X12400D02*
D03*
X14400D02*
D03*
X11400Y10077D02*
D03*
X10400D02*
D03*
X8400D02*
D03*
X7400D02*
D03*
X9400D02*
D03*
X10400Y8923D02*
D03*
X9400D02*
D03*
X11400D02*
D03*
X7400D02*
D03*
X8400D02*
D03*
X25000Y-8923D02*
D03*
X24000D02*
D03*
X22000D02*
D03*
X23000D02*
D03*
X24000Y-10077D02*
D03*
X25000D02*
D03*
X22000D02*
D03*
X23000D02*
D03*
X21000Y-8923D02*
D03*
X20000D02*
D03*
X21000Y-10077D02*
D03*
X20000D02*
D03*
X19000Y10077D02*
D03*
Y8923D02*
D03*
X18000Y10077D02*
D03*
Y8923D02*
D03*
X24000Y10077D02*
D03*
Y8923D02*
D03*
X23000D02*
D03*
Y10077D02*
D03*
X22000Y8923D02*
D03*
Y10077D02*
D03*
X20000Y8923D02*
D03*
Y10077D02*
D03*
X21000Y8923D02*
D03*
Y10077D02*
D03*
X25000D02*
D03*
Y8923D02*
D03*
X17000Y-10077D02*
D03*
Y-8923D02*
D03*
X18000Y-10077D02*
D03*
Y-8923D02*
D03*
X12000Y-10077D02*
D03*
Y-8923D02*
D03*
X13000D02*
D03*
Y-10077D02*
D03*
X14000Y-8923D02*
D03*
Y-10077D02*
D03*
X16000Y-8923D02*
D03*
Y-10077D02*
D03*
X15000Y-8923D02*
D03*
Y-10077D02*
D03*
X11000D02*
D03*
Y-8923D02*
D03*
X28000Y10077D02*
D03*
Y8923D02*
D03*
X27000Y10077D02*
D03*
Y8923D02*
D03*
X33000Y10077D02*
D03*
Y8923D02*
D03*
X32000D02*
D03*
Y10077D02*
D03*
X31000Y8923D02*
D03*
Y10077D02*
D03*
X29000Y8923D02*
D03*
Y10077D02*
D03*
X30000Y8923D02*
D03*
Y10077D02*
D03*
X34000D02*
D03*
Y8923D02*
D03*
D133*
X27000Y-9500D02*
D03*
X24000Y-11000D02*
D03*
X23000D02*
D03*
X25000D02*
D03*
X21000D02*
D03*
X22000D02*
D03*
X25000Y-12000D02*
D03*
X24000D02*
D03*
X22000D02*
D03*
X23000D02*
D03*
X20000Y-11000D02*
D03*
X21000Y-12000D02*
D03*
X14400Y12000D02*
D03*
X13400D02*
D03*
X15400D02*
D03*
X16400Y11000D02*
D03*
X15400D02*
D03*
X13400D02*
D03*
X12400D02*
D03*
X14400D02*
D03*
X12400Y12000D02*
D03*
X11400D02*
D03*
X10400D02*
D03*
X8400D02*
D03*
X7400D02*
D03*
X9400D02*
D03*
X10400Y11000D02*
D03*
X9400D02*
D03*
X11400D02*
D03*
X7400D02*
D03*
X8400D02*
D03*
X33000Y12000D02*
D03*
X32000D02*
D03*
X34000Y11000D02*
D03*
X32000D02*
D03*
X31000D02*
D03*
X33000D02*
D03*
X31000Y12000D02*
D03*
X30000D02*
D03*
X28000D02*
D03*
X27000D02*
D03*
X29000D02*
D03*
X30000Y11000D02*
D03*
X29000D02*
D03*
X27000D02*
D03*
X28000D02*
D03*
X19000Y12000D02*
D03*
Y11000D02*
D03*
X20000D02*
D03*
Y12000D02*
D03*
X22000Y11000D02*
D03*
Y12000D02*
D03*
X25000Y11000D02*
D03*
X24000Y12000D02*
D03*
Y11000D02*
D03*
X23000Y12000D02*
D03*
Y11000D02*
D03*
X21000Y12000D02*
D03*
Y11000D02*
D03*
X18000D02*
D03*
Y12000D02*
D03*
X17000Y-12000D02*
D03*
Y-11000D02*
D03*
X16000D02*
D03*
Y-12000D02*
D03*
X14000Y-11000D02*
D03*
Y-12000D02*
D03*
X11000Y-11000D02*
D03*
X12000Y-12000D02*
D03*
Y-11000D02*
D03*
X13000Y-12000D02*
D03*
Y-11000D02*
D03*
X15000Y-12000D02*
D03*
Y-11000D02*
D03*
X18000D02*
D03*
Y-12000D02*
D03*
X1500Y11750D02*
D03*
D134*
X565Y1299D02*
D03*
Y-1299D02*
D03*
D135*
X2880Y-5500D02*
D03*
Y5500D02*
D03*
D136*
X20000Y-12000D02*
D03*
X16400Y12000D02*
D03*
X34000D02*
D03*
X25000D02*
D03*
X11000Y-12000D02*
D03*
D137*
X38000Y-9500D02*
D03*
X6000Y9500D02*
D03*
X35500D02*
D03*
X5500Y-9500D02*
D03*
X26000Y3500D02*
D03*
Y-7500D02*
D03*
D138*
X5250Y-2260D02*
D03*
X4410Y-2250D02*
D03*
X3050Y-2590D02*
D03*
X2940Y-3060D02*
D03*
X5260Y2960D02*
D03*
X7666Y-1620D02*
D03*
X4516Y1820D02*
D03*
X4546Y-1100D02*
D03*
X2150Y-630D02*
D03*
X6586Y-2160D02*
D03*
X7916Y-260D02*
D03*
X3226Y-1000D02*
D03*
X3186Y2630D02*
D03*
X5240Y-770D02*
D03*
X3786Y1005D02*
D03*
X6856Y-750D02*
D03*
X4516Y2850D02*
D03*
X4326Y-705D02*
D03*
X2570Y1050D02*
D03*
X2390Y2240D02*
D03*
X1100Y-690D02*
D03*
X1130Y240D02*
D03*
D139*
X4499Y0D02*
D03*
D140*
D03*
D141*
Y5150D02*
D03*
Y-5150D02*
D03*
D142*
X26662Y1500D02*
D03*
Y500D02*
D03*
Y-500D02*
D03*
X24438Y1500D02*
D03*
Y500D02*
D03*
Y-500D02*
D03*
M02*
