G04 Layer_Physical_Order=4*
G04 Layer_Color=16711680*
%FSLAX24Y24*%
%MOIN*%
G70*
G01*
G75*
%ADD10C,0.0060*%
%ADD11C,0.0150*%
%ADD13C,0.0138*%
%ADD19C,0.0394*%
%ADD49R,0.0402X0.0862*%
%ADD58C,0.0200*%
%ADD59C,0.0100*%
%ADD60C,0.0300*%
%ADD61C,0.0250*%
%ADD62C,0.0090*%
%ADD66C,0.0591*%
%ADD67O,0.0630X0.0354*%
%ADD68C,0.0390*%
%ADD69C,0.0701*%
%ADD70R,0.0591X0.0591*%
%ADD71C,0.1260*%
%ADD72C,0.0240*%
%ADD73C,0.0260*%
%ADD74C,0.1969*%
G04:AMPARAMS|DCode=75|XSize=393.7mil|YSize=393.7mil|CornerRadius=98.4mil|HoleSize=0mil|Usage=FLASHONLY|Rotation=270.000|XOffset=0mil|YOffset=0mil|HoleType=Round|Shape=RoundedRectangle|*
%AMROUNDEDRECTD75*
21,1,0.3937,0.1969,0,0,270.0*
21,1,0.1969,0.3937,0,0,270.0*
1,1,0.1969,-0.0984,-0.0984*
1,1,0.1969,-0.0984,0.0984*
1,1,0.1969,0.0984,0.0984*
1,1,0.1969,0.0984,-0.0984*
%
%ADD75ROUNDEDRECTD75*%
%ADD76R,0.2000X0.2000*%
%ADD77R,0.0874X0.0402*%
G36*
X38696Y12331D02*
X38777Y12277D01*
X38831Y12196D01*
X38835Y12175D01*
X38847Y12100D01*
X38847Y12020D01*
X38847Y12020D01*
Y5400D01*
X38831Y5380D01*
X37401D01*
X37400Y-8607D01*
X37366Y-8628D01*
X37238Y-8738D01*
X37128Y-8866D01*
X37039Y-9011D01*
X36975Y-9167D01*
X36935Y-9331D01*
X36922Y-9500D01*
X36935Y-9669D01*
X36975Y-9833D01*
X37039Y-9989D01*
X37128Y-10134D01*
X37238Y-10262D01*
X37366Y-10372D01*
X37400Y-10393D01*
X37400Y-12347D01*
X25328D01*
X25309Y-12320D01*
X25293Y-12267D01*
X25345Y-12199D01*
X25385Y-12103D01*
X25392Y-12050D01*
X24608D01*
X24615Y-12103D01*
X24655Y-12199D01*
X24707Y-12267D01*
X24691Y-12320D01*
X24672Y-12347D01*
X24328D01*
X24309Y-12320D01*
X24293Y-12267D01*
X24345Y-12199D01*
X24385Y-12103D01*
X24392Y-12050D01*
X23608D01*
X23615Y-12103D01*
X23655Y-12199D01*
X23707Y-12267D01*
X23691Y-12320D01*
X23672Y-12347D01*
X23328D01*
X23309Y-12320D01*
X23293Y-12267D01*
X23345Y-12199D01*
X23385Y-12103D01*
X23392Y-12050D01*
X22608D01*
X22615Y-12103D01*
X22655Y-12199D01*
X22707Y-12267D01*
X22691Y-12320D01*
X22672Y-12347D01*
X22328D01*
X22309Y-12320D01*
X22293Y-12267D01*
X22345Y-12199D01*
X22385Y-12103D01*
X22392Y-12050D01*
X21608D01*
X21615Y-12103D01*
X21655Y-12199D01*
X21707Y-12267D01*
X21691Y-12320D01*
X21672Y-12347D01*
X21328D01*
X21309Y-12320D01*
X21293Y-12267D01*
X21345Y-12199D01*
X21385Y-12103D01*
X21392Y-12050D01*
X20608D01*
X20615Y-12103D01*
X20655Y-12199D01*
X20707Y-12267D01*
X20691Y-12320D01*
X20672Y-12347D01*
X20395D01*
Y-12050D01*
X19605D01*
Y-12347D01*
X18328D01*
X18309Y-12320D01*
X18293Y-12267D01*
X18345Y-12199D01*
X18385Y-12103D01*
X18392Y-12050D01*
X17608D01*
X17615Y-12103D01*
X17655Y-12199D01*
X17707Y-12267D01*
X17691Y-12320D01*
X17672Y-12347D01*
X17328D01*
X17309Y-12320D01*
X17293Y-12267D01*
X17345Y-12199D01*
X17385Y-12103D01*
X17392Y-12050D01*
X16608D01*
X16615Y-12103D01*
X16655Y-12199D01*
X16707Y-12267D01*
X16691Y-12320D01*
X16672Y-12347D01*
X16328D01*
X16309Y-12320D01*
X16293Y-12267D01*
X16345Y-12199D01*
X16385Y-12103D01*
X16392Y-12050D01*
X15608D01*
X15615Y-12103D01*
X15655Y-12199D01*
X15707Y-12267D01*
X15691Y-12320D01*
X15672Y-12347D01*
X15328D01*
X15309Y-12320D01*
X15293Y-12267D01*
X15345Y-12199D01*
X15385Y-12103D01*
X15392Y-12050D01*
X14608D01*
X14615Y-12103D01*
X14655Y-12199D01*
X14707Y-12267D01*
X14691Y-12320D01*
X14672Y-12347D01*
X14328D01*
X14309Y-12320D01*
X14293Y-12267D01*
X14345Y-12199D01*
X14385Y-12103D01*
X14392Y-12050D01*
X13608D01*
X13615Y-12103D01*
X13655Y-12199D01*
X13707Y-12267D01*
X13691Y-12320D01*
X13672Y-12347D01*
X13328D01*
X13309Y-12320D01*
X13293Y-12267D01*
X13345Y-12199D01*
X13385Y-12103D01*
X13392Y-12050D01*
X12608D01*
X12615Y-12103D01*
X12655Y-12199D01*
X12707Y-12267D01*
X12691Y-12320D01*
X12672Y-12347D01*
X12328D01*
X12309Y-12320D01*
X12293Y-12267D01*
X12345Y-12199D01*
X12385Y-12103D01*
X12392Y-12050D01*
X11608D01*
X11615Y-12103D01*
X11655Y-12199D01*
X11707Y-12267D01*
X11691Y-12320D01*
X11672Y-12347D01*
X11395D01*
Y-12050D01*
X10605D01*
Y-12347D01*
X400D01*
X393Y-12348D01*
X304Y-12331D01*
X223Y-12277D01*
X169Y-12196D01*
X152Y-12107D01*
X153Y-12100D01*
X153Y-1528D01*
X218Y-1502D01*
X233Y-1499D01*
X288Y-1541D01*
X355Y-1569D01*
X427Y-1579D01*
X703D01*
X775Y-1569D01*
X843Y-1541D01*
X901Y-1497D01*
X945Y-1439D01*
X973Y-1372D01*
X983Y-1299D01*
X973Y-1227D01*
X945Y-1159D01*
X901Y-1102D01*
X843Y-1057D01*
X775Y-1029D01*
X703Y-1020D01*
X427D01*
X355Y-1029D01*
X288Y-1057D01*
X233Y-1099D01*
X218Y-1097D01*
X153Y-1070D01*
Y1070D01*
X218Y1097D01*
X233Y1099D01*
X288Y1057D01*
X355Y1029D01*
X427Y1020D01*
X703D01*
X775Y1029D01*
X843Y1057D01*
X901Y1102D01*
X945Y1159D01*
X973Y1227D01*
X983Y1299D01*
X973Y1372D01*
X945Y1439D01*
X901Y1497D01*
X843Y1541D01*
X775Y1569D01*
X703Y1579D01*
X427D01*
X355Y1569D01*
X288Y1541D01*
X233Y1499D01*
X218Y1502D01*
X153Y1528D01*
X153Y12110D01*
X152Y12114D01*
X169Y12199D01*
X222Y12278D01*
X301Y12331D01*
X323Y12335D01*
X398Y12347D01*
X400Y12347D01*
X478Y12347D01*
X7072D01*
X7091Y12320D01*
X7107Y12267D01*
X7055Y12199D01*
X7015Y12103D01*
X7008Y12050D01*
X7400D01*
X7792D01*
X7785Y12103D01*
X7745Y12199D01*
X7693Y12267D01*
X7709Y12320D01*
X7728Y12347D01*
X8072D01*
X8091Y12320D01*
X8107Y12267D01*
X8055Y12199D01*
X8015Y12103D01*
X8008Y12050D01*
X8400D01*
X8792D01*
X8785Y12103D01*
X8745Y12199D01*
X8693Y12267D01*
X8709Y12320D01*
X8728Y12347D01*
X9072D01*
X9091Y12320D01*
X9107Y12267D01*
X9055Y12199D01*
X9015Y12103D01*
X9008Y12050D01*
X9400D01*
X9792D01*
X9785Y12103D01*
X9745Y12199D01*
X9693Y12267D01*
X9709Y12320D01*
X9728Y12347D01*
X10072D01*
X10091Y12320D01*
X10107Y12267D01*
X10055Y12199D01*
X10015Y12103D01*
X10008Y12050D01*
X10400D01*
X10792D01*
X10785Y12103D01*
X10745Y12199D01*
X10693Y12267D01*
X10709Y12320D01*
X10728Y12347D01*
X11072D01*
X11091Y12320D01*
X11107Y12267D01*
X11055Y12199D01*
X11015Y12103D01*
X11008Y12050D01*
X11400D01*
X11792D01*
X11785Y12103D01*
X11745Y12199D01*
X11693Y12267D01*
X11709Y12320D01*
X11728Y12347D01*
X12072D01*
X12091Y12320D01*
X12107Y12267D01*
X12055Y12199D01*
X12015Y12103D01*
X12008Y12050D01*
X12400D01*
X12792D01*
X12785Y12103D01*
X12745Y12199D01*
X12693Y12267D01*
X12709Y12320D01*
X12728Y12347D01*
X13072D01*
X13091Y12320D01*
X13107Y12267D01*
X13055Y12199D01*
X13015Y12103D01*
X13008Y12050D01*
X13400D01*
X13792D01*
X13785Y12103D01*
X13745Y12199D01*
X13693Y12267D01*
X13709Y12320D01*
X13728Y12347D01*
X14072D01*
X14091Y12320D01*
X14107Y12267D01*
X14055Y12199D01*
X14015Y12103D01*
X14008Y12050D01*
X14400D01*
X14792D01*
X14785Y12103D01*
X14745Y12199D01*
X14693Y12267D01*
X14709Y12320D01*
X14728Y12347D01*
X15072D01*
X15091Y12320D01*
X15107Y12267D01*
X15055Y12199D01*
X15015Y12103D01*
X15008Y12050D01*
X15400D01*
X15792D01*
X15785Y12103D01*
X15745Y12199D01*
X15693Y12267D01*
X15709Y12320D01*
X15728Y12347D01*
X16005D01*
Y12050D01*
X16400D01*
X16795D01*
Y12347D01*
X17672D01*
X17691Y12320D01*
X17707Y12267D01*
X17655Y12199D01*
X17615Y12103D01*
X17608Y12050D01*
X18000D01*
X18392D01*
X18385Y12103D01*
X18345Y12199D01*
X18293Y12267D01*
X18309Y12320D01*
X18328Y12347D01*
X18672D01*
X18691Y12320D01*
X18707Y12267D01*
X18655Y12199D01*
X18615Y12103D01*
X18608Y12050D01*
X19000D01*
X19392D01*
X19385Y12103D01*
X19345Y12199D01*
X19293Y12267D01*
X19309Y12320D01*
X19328Y12347D01*
X19672D01*
X19691Y12320D01*
X19707Y12267D01*
X19655Y12199D01*
X19615Y12103D01*
X19608Y12050D01*
X20000D01*
X20392D01*
X20385Y12103D01*
X20345Y12199D01*
X20293Y12267D01*
X20309Y12320D01*
X20328Y12347D01*
X20672D01*
X20691Y12320D01*
X20707Y12267D01*
X20655Y12199D01*
X20615Y12103D01*
X20608Y12050D01*
X21000D01*
X21392D01*
X21385Y12103D01*
X21345Y12199D01*
X21293Y12267D01*
X21309Y12320D01*
X21328Y12347D01*
X21672D01*
X21691Y12320D01*
X21707Y12267D01*
X21655Y12199D01*
X21615Y12103D01*
X21608Y12050D01*
X22000D01*
X22392D01*
X22385Y12103D01*
X22345Y12199D01*
X22293Y12267D01*
X22309Y12320D01*
X22328Y12347D01*
X22672D01*
X22691Y12320D01*
X22707Y12267D01*
X22655Y12199D01*
X22615Y12103D01*
X22608Y12050D01*
X23000D01*
X23392D01*
X23385Y12103D01*
X23345Y12199D01*
X23293Y12267D01*
X23309Y12320D01*
X23328Y12347D01*
X23672D01*
X23691Y12320D01*
X23707Y12267D01*
X23655Y12199D01*
X23615Y12103D01*
X23608Y12050D01*
X24000D01*
X24392D01*
X24385Y12103D01*
X24345Y12199D01*
X24293Y12267D01*
X24309Y12320D01*
X24328Y12347D01*
X24605D01*
Y12050D01*
X25000D01*
X25395D01*
Y12347D01*
X26672D01*
X26691Y12320D01*
X26707Y12267D01*
X26655Y12199D01*
X26615Y12103D01*
X26608Y12050D01*
X27000D01*
X27392D01*
X27385Y12103D01*
X27345Y12199D01*
X27293Y12267D01*
X27309Y12320D01*
X27328Y12347D01*
X27672D01*
X27691Y12320D01*
X27707Y12267D01*
X27655Y12199D01*
X27615Y12103D01*
X27608Y12050D01*
X28000D01*
X28392D01*
X28385Y12103D01*
X28345Y12199D01*
X28293Y12267D01*
X28309Y12320D01*
X28328Y12347D01*
X28672D01*
X28691Y12320D01*
X28707Y12267D01*
X28655Y12199D01*
X28615Y12103D01*
X28608Y12050D01*
X29000D01*
X29392D01*
X29385Y12103D01*
X29345Y12199D01*
X29293Y12267D01*
X29309Y12320D01*
X29328Y12347D01*
X29672D01*
X29691Y12320D01*
X29707Y12267D01*
X29655Y12199D01*
X29615Y12103D01*
X29608Y12050D01*
X30000D01*
X30392D01*
X30385Y12103D01*
X30345Y12199D01*
X30293Y12267D01*
X30309Y12320D01*
X30328Y12347D01*
X30672D01*
X30691Y12320D01*
X30707Y12267D01*
X30655Y12199D01*
X30615Y12103D01*
X30608Y12050D01*
X31000D01*
X31392D01*
X31385Y12103D01*
X31345Y12199D01*
X31293Y12267D01*
X31309Y12320D01*
X31328Y12347D01*
X31672D01*
X31691Y12320D01*
X31707Y12267D01*
X31655Y12199D01*
X31615Y12103D01*
X31608Y12050D01*
X32000D01*
X32392D01*
X32385Y12103D01*
X32345Y12199D01*
X32293Y12267D01*
X32309Y12320D01*
X32328Y12347D01*
X32672D01*
X32691Y12320D01*
X32707Y12267D01*
X32655Y12199D01*
X32615Y12103D01*
X32608Y12050D01*
X33000D01*
X33392D01*
X33385Y12103D01*
X33345Y12199D01*
X33293Y12267D01*
X33309Y12320D01*
X33328Y12347D01*
X33605D01*
Y12050D01*
X34000D01*
X34395D01*
Y12347D01*
X38600D01*
X38607Y12348D01*
X38696Y12331D01*
D02*
G37*
%LPC*%
G36*
X11036Y-5086D02*
X10950Y-5103D01*
X10877Y-5151D01*
X10829Y-5224D01*
X10812Y-5310D01*
X10829Y-5396D01*
X10877Y-5469D01*
X10950Y-5517D01*
X11036Y-5534D01*
X11122Y-5517D01*
X11195Y-5469D01*
X11243Y-5396D01*
X11260Y-5310D01*
X11243Y-5224D01*
X11195Y-5151D01*
X11122Y-5103D01*
X11036Y-5086D01*
D02*
G37*
G36*
X5599Y-4050D02*
X3399D01*
Y-5380D01*
X3319Y-5385D01*
X3319Y-5382D01*
X3273Y-5273D01*
X3201Y-5179D01*
X3107Y-5107D01*
X2998Y-5061D01*
X2880Y-5046D01*
X2762Y-5061D01*
X2653Y-5107D01*
X2559Y-5179D01*
X2486Y-5273D01*
X2441Y-5382D01*
X2426Y-5500D01*
X2441Y-5618D01*
X2486Y-5727D01*
X2559Y-5821D01*
X2653Y-5893D01*
X2762Y-5939D01*
X2880Y-5954D01*
X2998Y-5939D01*
X3107Y-5893D01*
X3201Y-5821D01*
X3273Y-5727D01*
X3319Y-5618D01*
X3319Y-5615D01*
X3399Y-5620D01*
Y-6250D01*
X3821D01*
Y-6804D01*
X3838Y-6892D01*
X3888Y-6966D01*
X3962Y-7016D01*
X4050Y-7034D01*
X4138Y-7016D01*
X4212Y-6966D01*
X4262Y-6892D01*
X4279Y-6804D01*
Y-6250D01*
X5506D01*
X5818Y-6562D01*
X5892Y-6612D01*
X5980Y-6629D01*
X6068Y-6612D01*
X6142Y-6562D01*
X6192Y-6488D01*
X6209Y-6400D01*
X6192Y-6312D01*
X6142Y-6238D01*
X5979Y-6074D01*
X6005Y-5987D01*
X6006Y-5987D01*
X6079Y-5939D01*
X6127Y-5866D01*
X6144Y-5780D01*
X6127Y-5694D01*
X6079Y-5621D01*
X6006Y-5573D01*
X5920Y-5556D01*
X5834Y-5573D01*
X5761Y-5621D01*
X5734Y-5662D01*
X5646Y-5679D01*
X5636Y-5677D01*
X5599Y-5648D01*
Y-4775D01*
X5862Y-4512D01*
X5912Y-4438D01*
X5929Y-4350D01*
X5912Y-4262D01*
X5862Y-4188D01*
X5788Y-4138D01*
X5700Y-4121D01*
X5679Y-4125D01*
X5599Y-4059D01*
Y-4050D01*
D02*
G37*
G36*
X27620Y-5186D02*
X27534Y-5203D01*
X27461Y-5251D01*
X27413Y-5324D01*
X27396Y-5410D01*
X27413Y-5496D01*
X27461Y-5569D01*
X27534Y-5617D01*
X27620Y-5634D01*
X27706Y-5617D01*
X27779Y-5569D01*
X27827Y-5496D01*
X27844Y-5410D01*
X27827Y-5324D01*
X27779Y-5251D01*
X27706Y-5203D01*
X27620Y-5186D01*
D02*
G37*
G36*
X20520Y-5846D02*
X20434Y-5863D01*
X20361Y-5911D01*
X20313Y-5984D01*
X20296Y-6070D01*
X20313Y-6156D01*
X20361Y-6229D01*
X20434Y-6277D01*
X20520Y-6294D01*
X20606Y-6277D01*
X20679Y-6229D01*
X20727Y-6156D01*
X20744Y-6070D01*
X20727Y-5984D01*
X20679Y-5911D01*
X20606Y-5863D01*
X20520Y-5846D01*
D02*
G37*
G36*
X10364Y-5273D02*
X10278Y-5291D01*
X10205Y-5339D01*
X10157Y-5412D01*
X10140Y-5498D01*
X10157Y-5584D01*
X10205Y-5656D01*
X10278Y-5705D01*
X10364Y-5722D01*
X10450Y-5705D01*
X10522Y-5656D01*
X10571Y-5584D01*
X10588Y-5498D01*
X10571Y-5412D01*
X10522Y-5339D01*
X10450Y-5291D01*
X10364Y-5273D01*
D02*
G37*
G36*
X14200Y-4896D02*
X14114Y-4913D01*
X14041Y-4961D01*
X13993Y-5034D01*
X13976Y-5120D01*
X13993Y-5206D01*
X14041Y-5279D01*
X14114Y-5327D01*
X14200Y-5344D01*
X14286Y-5327D01*
X14359Y-5279D01*
X14407Y-5206D01*
X14424Y-5120D01*
X14407Y-5034D01*
X14359Y-4961D01*
X14286Y-4913D01*
X14200Y-4896D01*
D02*
G37*
G36*
X25160Y-4006D02*
X25074Y-4023D01*
X25001Y-4071D01*
X24953Y-4144D01*
X24936Y-4230D01*
X24953Y-4316D01*
X25001Y-4389D01*
X25074Y-4437D01*
X25160Y-4454D01*
X25246Y-4437D01*
X25319Y-4389D01*
X25367Y-4316D01*
X25384Y-4230D01*
X25367Y-4144D01*
X25319Y-4071D01*
X25246Y-4023D01*
X25160Y-4006D01*
D02*
G37*
G36*
X1710Y-3326D02*
X1624Y-3343D01*
X1551Y-3391D01*
X1503Y-3464D01*
X1486Y-3550D01*
X1503Y-3636D01*
X1551Y-3709D01*
X1624Y-3757D01*
X1710Y-3774D01*
X1796Y-3757D01*
X1869Y-3709D01*
X1917Y-3636D01*
X1934Y-3550D01*
X1917Y-3464D01*
X1869Y-3391D01*
X1796Y-3343D01*
X1710Y-3326D01*
D02*
G37*
G36*
X8683Y-4983D02*
X8598Y-5000D01*
X8579Y-5012D01*
X8516Y-5044D01*
X8453Y-5012D01*
X8435Y-5000D01*
X8349Y-4983D01*
X8263Y-5000D01*
X8190Y-5048D01*
X8142Y-5121D01*
X8124Y-5207D01*
X8142Y-5293D01*
X8190Y-5365D01*
X8263Y-5414D01*
X8349Y-5431D01*
X8435Y-5414D01*
X8453Y-5402D01*
X8516Y-5370D01*
X8579Y-5402D01*
X8598Y-5414D01*
X8683Y-5431D01*
X8769Y-5414D01*
X8842Y-5365D01*
X8891Y-5293D01*
X8908Y-5207D01*
X8891Y-5121D01*
X8842Y-5048D01*
X8769Y-5000D01*
X8683Y-4983D01*
D02*
G37*
G36*
X22070Y-3236D02*
X21984Y-3253D01*
X21911Y-3301D01*
X21863Y-3374D01*
X21846Y-3460D01*
X21863Y-3546D01*
X21911Y-3619D01*
X21937Y-3636D01*
Y-4801D01*
X21891Y-4831D01*
X21843Y-4904D01*
X21826Y-4990D01*
X21843Y-5076D01*
X21891Y-5149D01*
X21964Y-5197D01*
X22050Y-5214D01*
X22136Y-5197D01*
X22209Y-5149D01*
X22257Y-5076D01*
X22274Y-4990D01*
X22257Y-4904D01*
X22209Y-4831D01*
X22203Y-4827D01*
Y-3636D01*
X22229Y-3619D01*
X22277Y-3546D01*
X22294Y-3460D01*
X22277Y-3374D01*
X22229Y-3301D01*
X22156Y-3253D01*
X22070Y-3236D01*
D02*
G37*
G36*
X16010Y-4666D02*
X15924Y-4683D01*
X15851Y-4731D01*
X15803Y-4804D01*
X15786Y-4890D01*
X15803Y-4976D01*
X15851Y-5049D01*
X15924Y-5097D01*
X16010Y-5114D01*
X16096Y-5097D01*
X16169Y-5049D01*
X16217Y-4976D01*
X16234Y-4890D01*
X16217Y-4804D01*
X16169Y-4731D01*
X16096Y-4683D01*
X16010Y-4666D01*
D02*
G37*
G36*
X18660Y-5436D02*
X18574Y-5453D01*
X18501Y-5501D01*
X18453Y-5574D01*
X18436Y-5660D01*
X18453Y-5746D01*
X18501Y-5819D01*
X18527Y-5836D01*
Y-5944D01*
X18501Y-5961D01*
X18453Y-6034D01*
X18436Y-6120D01*
X18453Y-6206D01*
X18501Y-6279D01*
X18574Y-6327D01*
X18660Y-6344D01*
X18746Y-6327D01*
X18819Y-6279D01*
X18867Y-6206D01*
X18884Y-6120D01*
X18867Y-6034D01*
X18819Y-5961D01*
X18793Y-5944D01*
Y-5836D01*
X18819Y-5819D01*
X18867Y-5746D01*
X18884Y-5660D01*
X18867Y-5574D01*
X18819Y-5501D01*
X18746Y-5453D01*
X18660Y-5436D01*
D02*
G37*
G36*
X15950Y-8392D02*
X15699D01*
Y-8873D01*
X15950D01*
Y-8392D01*
D02*
G37*
G36*
X16301D02*
X16050D01*
Y-8873D01*
X16301D01*
Y-8392D01*
D02*
G37*
G36*
X27050Y-9108D02*
Y-9450D01*
X27392D01*
X27385Y-9397D01*
X27345Y-9301D01*
X27282Y-9218D01*
X27199Y-9155D01*
X27103Y-9115D01*
X27050Y-9108D01*
D02*
G37*
G36*
X17301Y-8973D02*
X17050D01*
Y-9454D01*
X17301D01*
Y-8973D01*
D02*
G37*
G36*
X26950Y-9108D02*
X26897Y-9115D01*
X26801Y-9155D01*
X26718Y-9218D01*
X26655Y-9301D01*
X26615Y-9397D01*
X26608Y-9450D01*
X26950D01*
Y-9108D01*
D02*
G37*
G36*
X16950Y-8392D02*
X16699D01*
Y-8873D01*
X16950D01*
Y-8392D01*
D02*
G37*
G36*
X27930Y-5926D02*
X27844Y-5943D01*
X27771Y-5991D01*
X27723Y-6064D01*
X27706Y-6150D01*
X27723Y-6236D01*
X27771Y-6309D01*
X27844Y-6357D01*
X27930Y-6374D01*
X28016Y-6357D01*
X28089Y-6309D01*
X28106Y-6283D01*
X28523D01*
X28548Y-6363D01*
X28534Y-6371D01*
X28486Y-6444D01*
X28469Y-6530D01*
X28486Y-6616D01*
X28534Y-6689D01*
X28540Y-6692D01*
Y-6790D01*
X28538Y-6791D01*
X28489Y-6864D01*
X28472Y-6950D01*
X28489Y-7036D01*
X28538Y-7109D01*
X28540Y-7110D01*
Y-7208D01*
X28534Y-7211D01*
X28486Y-7284D01*
X28469Y-7370D01*
X28486Y-7456D01*
X28534Y-7529D01*
X28540Y-7532D01*
Y-7628D01*
X28534Y-7631D01*
X28486Y-7704D01*
X28469Y-7790D01*
X28486Y-7876D01*
X28534Y-7949D01*
X28607Y-7997D01*
X28693Y-8014D01*
X28779Y-7997D01*
X28852Y-7949D01*
X28900Y-7876D01*
X28917Y-7790D01*
X28900Y-7704D01*
X28852Y-7631D01*
X28846Y-7628D01*
Y-7532D01*
X28852Y-7529D01*
X28900Y-7456D01*
X28917Y-7370D01*
X28900Y-7284D01*
X28852Y-7211D01*
X28846Y-7208D01*
Y-7114D01*
X28855Y-7109D01*
X28903Y-7036D01*
X28920Y-6950D01*
X28903Y-6864D01*
X28856Y-6794D01*
X28856Y-6777D01*
X28858Y-6749D01*
X28925Y-6699D01*
X28940Y-6701D01*
X28994Y-6737D01*
X29080Y-6754D01*
X29166Y-6737D01*
X29239Y-6689D01*
X29287Y-6616D01*
X29304Y-6530D01*
X29287Y-6444D01*
X29239Y-6371D01*
X29166Y-6323D01*
X29080Y-6306D01*
X29049Y-6312D01*
X28794Y-6056D01*
X28751Y-6028D01*
X28700Y-6017D01*
X28106D01*
X28089Y-5991D01*
X28016Y-5943D01*
X27930Y-5926D01*
D02*
G37*
G36*
X32760Y-5625D02*
X32674Y-5642D01*
X32601Y-5691D01*
X32553Y-5764D01*
X32536Y-5849D01*
X32553Y-5935D01*
X32601Y-6008D01*
X32627Y-6025D01*
Y-6154D01*
X32331Y-6451D01*
X32300Y-6445D01*
X32214Y-6462D01*
X32141Y-6510D01*
X32093Y-6583D01*
X32076Y-6669D01*
X32093Y-6755D01*
X32141Y-6827D01*
X32214Y-6876D01*
X32300Y-6893D01*
X32386Y-6876D01*
X32459Y-6827D01*
X32507Y-6755D01*
X32524Y-6669D01*
X32518Y-6638D01*
X32854Y-6303D01*
X32882Y-6260D01*
X32893Y-6209D01*
Y-6025D01*
X32919Y-6008D01*
X32967Y-5935D01*
X32984Y-5849D01*
X32967Y-5764D01*
X32919Y-5691D01*
X32846Y-5642D01*
X32760Y-5625D01*
D02*
G37*
G36*
X34570Y-7045D02*
X34484Y-7062D01*
X34411Y-7111D01*
X34363Y-7184D01*
X34346Y-7269D01*
X34363Y-7355D01*
X34411Y-7428D01*
X34484Y-7477D01*
X34570Y-7494D01*
X34656Y-7477D01*
X34729Y-7428D01*
X34777Y-7355D01*
X34794Y-7269D01*
X34777Y-7184D01*
X34729Y-7111D01*
X34656Y-7062D01*
X34570Y-7045D01*
D02*
G37*
G36*
X17301Y-8392D02*
X17050D01*
Y-8873D01*
X17301D01*
Y-8392D01*
D02*
G37*
G36*
X15406Y-5205D02*
X15321Y-5222D01*
X15248Y-5271D01*
X15199Y-5344D01*
X15182Y-5430D01*
X15199Y-5516D01*
X15248Y-5588D01*
X15321Y-5637D01*
X15337Y-5640D01*
Y-7154D01*
X15311Y-7171D01*
X15263Y-7244D01*
X15246Y-7330D01*
X15263Y-7416D01*
X15311Y-7489D01*
X15351Y-7515D01*
X15370Y-7610D01*
X15064Y-7915D01*
X4456D01*
X4114Y-7574D01*
X4032Y-7519D01*
X3934Y-7499D01*
X3164D01*
X3067Y-7519D01*
X2984Y-7574D01*
X2929Y-7657D01*
X2909Y-7754D01*
X2929Y-7852D01*
X2984Y-7934D01*
X3067Y-7990D01*
X3164Y-8009D01*
X3829D01*
X4170Y-8350D01*
X4252Y-8405D01*
X4350Y-8425D01*
X5078D01*
X5094Y-8505D01*
X5010Y-8539D01*
X4866Y-8628D01*
X4738Y-8738D01*
X4628Y-8866D01*
X4539Y-9011D01*
X4475Y-9167D01*
X4435Y-9331D01*
X4422Y-9500D01*
X4435Y-9669D01*
X4475Y-9833D01*
X4539Y-9989D01*
X4628Y-10134D01*
X4738Y-10262D01*
X4866Y-10372D01*
X5010Y-10461D01*
X5167Y-10525D01*
X5331Y-10565D01*
X5500Y-10578D01*
X5669Y-10565D01*
X5833Y-10525D01*
X5989Y-10461D01*
X6134Y-10372D01*
X6262Y-10262D01*
X6372Y-10134D01*
X6461Y-9989D01*
X6525Y-9833D01*
X6565Y-9669D01*
X6578Y-9500D01*
X6565Y-9331D01*
X6525Y-9167D01*
X6461Y-9011D01*
X6372Y-8866D01*
X6262Y-8738D01*
X6134Y-8628D01*
X5989Y-8539D01*
X5906Y-8505D01*
X5922Y-8425D01*
X10699D01*
Y-9454D01*
X10745D01*
Y-9546D01*
X10699D01*
Y-10608D01*
X10730D01*
X10757Y-10688D01*
X10718Y-10718D01*
X10655Y-10801D01*
X10615Y-10897D01*
X10601Y-11000D01*
X10615Y-11103D01*
X10655Y-11199D01*
X10718Y-11282D01*
X10801Y-11345D01*
X10897Y-11385D01*
X11000Y-11399D01*
X11103Y-11385D01*
X11199Y-11345D01*
X11282Y-11282D01*
X11345Y-11199D01*
X11385Y-11103D01*
X11399Y-11000D01*
X11385Y-10897D01*
X11345Y-10801D01*
X11282Y-10718D01*
X11243Y-10688D01*
X11270Y-10608D01*
X11301D01*
Y-9546D01*
X11255D01*
Y-9454D01*
X11301D01*
Y-8425D01*
X11699D01*
Y-9454D01*
X11745D01*
Y-9546D01*
X11699D01*
Y-10608D01*
X11730D01*
X11757Y-10688D01*
X11718Y-10718D01*
X11655Y-10801D01*
X11615Y-10897D01*
X11601Y-11000D01*
X11615Y-11103D01*
X11655Y-11199D01*
X11718Y-11282D01*
X11801Y-11345D01*
X11897Y-11385D01*
X12000Y-11399D01*
X12103Y-11385D01*
X12199Y-11345D01*
X12282Y-11282D01*
X12345Y-11199D01*
X12385Y-11103D01*
X12399Y-11000D01*
X12385Y-10897D01*
X12345Y-10801D01*
X12282Y-10718D01*
X12243Y-10688D01*
X12270Y-10608D01*
X12301D01*
Y-9546D01*
X12255D01*
Y-9454D01*
X12301D01*
Y-8425D01*
X12699D01*
Y-9454D01*
X12699D01*
X12711Y-9500D01*
X12699Y-9546D01*
X12699D01*
Y-10608D01*
X12730D01*
X12757Y-10688D01*
X12718Y-10718D01*
X12655Y-10801D01*
X12615Y-10897D01*
X12601Y-11000D01*
X12615Y-11103D01*
X12655Y-11199D01*
X12718Y-11282D01*
X12801Y-11345D01*
X12897Y-11385D01*
X13000Y-11399D01*
X13103Y-11385D01*
X13199Y-11345D01*
X13282Y-11282D01*
X13345Y-11199D01*
X13385Y-11103D01*
X13399Y-11000D01*
X13385Y-10897D01*
X13345Y-10801D01*
X13282Y-10718D01*
X13243Y-10688D01*
X13270Y-10608D01*
X13301D01*
Y-9546D01*
X13301D01*
X13289Y-9500D01*
X13301Y-9454D01*
X13301D01*
Y-8425D01*
X13699D01*
Y-9454D01*
X13745D01*
Y-9546D01*
X13699D01*
Y-10608D01*
X13730D01*
X13757Y-10688D01*
X13718Y-10718D01*
X13655Y-10801D01*
X13615Y-10897D01*
X13601Y-11000D01*
X13615Y-11103D01*
X13655Y-11199D01*
X13718Y-11282D01*
X13801Y-11345D01*
X13897Y-11385D01*
X14000Y-11399D01*
X14103Y-11385D01*
X14199Y-11345D01*
X14282Y-11282D01*
X14345Y-11199D01*
X14385Y-11103D01*
X14399Y-11000D01*
X14385Y-10897D01*
X14345Y-10801D01*
X14282Y-10718D01*
X14243Y-10688D01*
X14270Y-10608D01*
X14301D01*
Y-9546D01*
X14255D01*
Y-9454D01*
X14301D01*
Y-8689D01*
X14375Y-8658D01*
X14699Y-8983D01*
Y-9454D01*
X14745D01*
Y-9546D01*
X14699D01*
Y-10608D01*
X14730D01*
X14757Y-10688D01*
X14718Y-10718D01*
X14655Y-10801D01*
X14615Y-10897D01*
X14601Y-11000D01*
X14615Y-11103D01*
X14655Y-11199D01*
X14718Y-11282D01*
X14801Y-11345D01*
X14897Y-11385D01*
X15000Y-11399D01*
X15103Y-11385D01*
X15199Y-11345D01*
X15282Y-11282D01*
X15345Y-11199D01*
X15385Y-11103D01*
X15399Y-11000D01*
X15385Y-10897D01*
X15345Y-10801D01*
X15282Y-10718D01*
X15243Y-10688D01*
X15270Y-10608D01*
X15301D01*
Y-9546D01*
X15255D01*
Y-9454D01*
X15301D01*
Y-8392D01*
X15344Y-8354D01*
X15347Y-8352D01*
X15350Y-8350D01*
X16026Y-7675D01*
X16380D01*
X16478Y-7655D01*
X16560Y-7600D01*
X16616Y-7518D01*
X16635Y-7420D01*
X16616Y-7322D01*
X16560Y-7240D01*
X16478Y-7185D01*
X16380Y-7165D01*
X15920D01*
X15822Y-7185D01*
X15756Y-7229D01*
X15742Y-7232D01*
X15702Y-7227D01*
X15655Y-7211D01*
X15629Y-7171D01*
X15603Y-7154D01*
Y-5532D01*
X15614Y-5516D01*
X15631Y-5430D01*
X15614Y-5344D01*
X15565Y-5271D01*
X15492Y-5222D01*
X15406Y-5205D01*
D02*
G37*
G36*
X14696Y-3656D02*
X14610Y-3673D01*
X14537Y-3721D01*
X14520Y-3747D01*
X13286D01*
X13269Y-3721D01*
X13196Y-3673D01*
X13110Y-3656D01*
X13024Y-3673D01*
X12951Y-3721D01*
X12903Y-3794D01*
X12886Y-3880D01*
X12903Y-3966D01*
X12951Y-4039D01*
X13024Y-4087D01*
X13110Y-4104D01*
X13196Y-4087D01*
X13269Y-4039D01*
X13286Y-4013D01*
X14520D01*
X14537Y-4039D01*
X14610Y-4087D01*
X14696Y-4104D01*
X14782Y-4087D01*
X14855Y-4039D01*
X14903Y-3966D01*
X14920Y-3880D01*
X14903Y-3794D01*
X14855Y-3721D01*
X14782Y-3673D01*
X14696Y-3656D01*
D02*
G37*
G36*
X18600Y3298D02*
X18523Y3287D01*
X18451Y3258D01*
X18390Y3210D01*
X18342Y3149D01*
X18313Y3077D01*
X18302Y3000D01*
X18313Y2923D01*
X18342Y2851D01*
X18390Y2790D01*
X18451Y2742D01*
X18523Y2713D01*
X18600Y2702D01*
X18677Y2713D01*
X18749Y2742D01*
X18810Y2790D01*
X18858Y2851D01*
X18887Y2923D01*
X18898Y3000D01*
X18887Y3077D01*
X18858Y3149D01*
X18810Y3210D01*
X18749Y3258D01*
X18677Y3287D01*
X18600Y3298D01*
D02*
G37*
G36*
X13290Y4203D02*
X12030D01*
X11971Y4191D01*
X11922Y4158D01*
X11756Y3992D01*
X11734Y3978D01*
X11645Y3978D01*
X11616Y3997D01*
X11530Y4014D01*
X11444Y3997D01*
X11371Y3949D01*
X11323Y3876D01*
X11306Y3790D01*
X11310Y3770D01*
X11236Y3730D01*
X10898Y4068D01*
X10849Y4101D01*
X10790Y4113D01*
X6982D01*
X6979Y4119D01*
X6906Y4167D01*
X6820Y4184D01*
X6734Y4167D01*
X6661Y4119D01*
X6613Y4046D01*
X6596Y3960D01*
X6613Y3874D01*
X6661Y3801D01*
X6734Y3753D01*
X6820Y3736D01*
X6906Y3753D01*
X6979Y3801D01*
X6982Y3807D01*
X10727D01*
X11417Y3117D01*
Y790D01*
X11429Y731D01*
X11462Y682D01*
X11722Y422D01*
X11771Y389D01*
X11830Y377D01*
X12018D01*
X12021Y371D01*
X12094Y323D01*
X12180Y306D01*
X12266Y323D01*
X12339Y371D01*
X12387Y444D01*
X12404Y530D01*
X12387Y616D01*
X12339Y689D01*
X12305Y711D01*
X12327Y744D01*
X12344Y830D01*
X12327Y916D01*
X12284Y981D01*
X12291Y1028D01*
X12375Y1058D01*
X12432Y1001D01*
X12426Y970D01*
X12443Y884D01*
X12491Y811D01*
X12564Y763D01*
X12650Y746D01*
X12736Y763D01*
X12809Y811D01*
X12857Y884D01*
X12874Y970D01*
X12857Y1056D01*
X12809Y1129D01*
X12736Y1177D01*
X12650Y1194D01*
X12619Y1188D01*
X12123Y1685D01*
Y3485D01*
X12232Y3594D01*
X12234Y3593D01*
X12320Y3576D01*
X12406Y3593D01*
X12479Y3641D01*
X12527Y3714D01*
X12544Y3800D01*
X12541Y3817D01*
X12607Y3897D01*
X13173D01*
X13201Y3835D01*
X13157Y3765D01*
X12800D01*
X12702Y3746D01*
X12620Y3690D01*
X12565Y3608D01*
X12545Y3510D01*
X12565Y3412D01*
X12620Y3330D01*
X12702Y3275D01*
X12800Y3255D01*
X12887D01*
X12952Y3175D01*
X12945Y3140D01*
Y3030D01*
X12965Y2932D01*
X13000Y2880D01*
X12985Y2844D01*
X12958Y2802D01*
X12884Y2787D01*
X12811Y2739D01*
X12763Y2666D01*
X12746Y2580D01*
X12763Y2494D01*
X12811Y2421D01*
X12884Y2373D01*
X12970Y2356D01*
X13056Y2373D01*
X13129Y2421D01*
X13177Y2494D01*
X13194Y2580D01*
X13177Y2666D01*
X13152Y2703D01*
X13200Y2775D01*
X13298Y2794D01*
X13380Y2850D01*
X13435Y2932D01*
X13455Y3030D01*
Y3034D01*
X13676Y3255D01*
X14660D01*
X14705Y3175D01*
X14692Y3110D01*
X14709Y3024D01*
X14757Y2951D01*
X14830Y2903D01*
X14916Y2886D01*
X15002Y2903D01*
X15075Y2951D01*
X15123Y3024D01*
X15140Y3110D01*
X15127Y3175D01*
X15173Y3255D01*
X15504D01*
X15545Y3214D01*
Y3016D01*
X12150Y-380D01*
X10856D01*
X10850Y-373D01*
X10821Y-300D01*
X10846Y-263D01*
X10860Y-193D01*
X10846Y-122D01*
X10814Y-74D01*
X10806Y-34D01*
Y-12D01*
X10814Y28D01*
X10846Y76D01*
X10858Y141D01*
X10979Y288D01*
X11073Y463D01*
X11130Y653D01*
X11150Y850D01*
X11148D01*
X11135Y1022D01*
X11095Y1189D01*
X11029Y1348D01*
X10939Y1495D01*
X10827Y1626D01*
X10826Y1626D01*
X10521Y1930D01*
X10540Y2025D01*
X10579Y2051D01*
X10627Y2124D01*
X10644Y2210D01*
X10627Y2296D01*
X10579Y2369D01*
X10506Y2417D01*
X10420Y2434D01*
X10334Y2417D01*
X10261Y2369D01*
X10235Y2330D01*
X10141Y2311D01*
X9818Y2633D01*
X9763Y2691D01*
X9763Y2691D01*
X9627Y2806D01*
X9476Y2899D01*
X9312Y2967D01*
X9139Y3008D01*
X8962Y3022D01*
Y3021D01*
X8962Y3021D01*
X8693D01*
X8636Y3060D01*
X8566Y3074D01*
X8496Y3060D01*
X8436Y3020D01*
X8397Y2960D01*
X8383Y2890D01*
X8397Y2820D01*
X8436Y2760D01*
X8496Y2720D01*
X8566Y2706D01*
X8636Y2720D01*
X8693Y2759D01*
X8882D01*
X8882Y2759D01*
X8962Y2759D01*
X9039Y2753D01*
X9132Y2744D01*
X9295Y2694D01*
X9445Y2614D01*
X9573Y2509D01*
X9576Y2504D01*
X10640Y1440D01*
X10640Y1440D01*
X10640Y1440D01*
X10691Y1381D01*
X10745Y1314D01*
X10823Y1170D01*
X10870Y1013D01*
X10886Y855D01*
X10885Y850D01*
X10885Y846D01*
X10871Y704D01*
X10829Y564D01*
X10760Y435D01*
X10673Y329D01*
X10606Y316D01*
X10546Y276D01*
X10507Y217D01*
X10493Y146D01*
X10507Y76D01*
X10539Y28D01*
X10542Y9D01*
X10508Y-62D01*
X9924D01*
X9918Y-63D01*
X9754Y-47D01*
X9591Y2D01*
X9440Y83D01*
X9313Y187D01*
X9310Y192D01*
X9032Y470D01*
X9034Y471D01*
X8893Y587D01*
X8732Y673D01*
X8558Y725D01*
X8512Y730D01*
X8506Y740D01*
X8446Y780D01*
X8376Y794D01*
X8306Y780D01*
X8246Y740D01*
X8207Y680D01*
X8193Y610D01*
X8207Y540D01*
X8246Y480D01*
X8306Y440D01*
X8376Y426D01*
X8446Y440D01*
X8488Y468D01*
X8506Y467D01*
X8631Y429D01*
X8746Y367D01*
X8787Y333D01*
X8820Y306D01*
X8804Y230D01*
X8797Y220D01*
X8780Y217D01*
X8707Y169D01*
X8659Y96D01*
X8642Y10D01*
X8659Y-76D01*
X8707Y-149D01*
X8780Y-197D01*
X8866Y-214D01*
X8952Y-197D01*
X9025Y-149D01*
X9073Y-76D01*
X9077Y-60D01*
X9164Y-29D01*
X9258Y-110D01*
X9410Y-203D01*
X9574Y-271D01*
X9696Y-300D01*
X9686Y-380D01*
X8786D01*
X8689Y-399D01*
X8606Y-454D01*
X8551Y-537D01*
X8531Y-635D01*
X8551Y-732D01*
X8606Y-815D01*
X8689Y-870D01*
X8786Y-890D01*
X12052D01*
X12095Y-970D01*
X12084Y-985D01*
X9206D01*
X9109Y-1005D01*
X9026Y-1060D01*
X8656Y-1430D01*
X8601Y-1512D01*
X8581Y-1610D01*
X8601Y-1708D01*
X8656Y-1790D01*
X8662Y-1800D01*
X8663Y-1891D01*
X6927Y-3627D01*
X6122D01*
X6119Y-3621D01*
X6046Y-3573D01*
X5960Y-3556D01*
X5874Y-3573D01*
X5801Y-3621D01*
X5753Y-3694D01*
X5736Y-3780D01*
X5753Y-3866D01*
X5801Y-3939D01*
X5874Y-3987D01*
X5960Y-4004D01*
X6046Y-3987D01*
X6119Y-3939D01*
X6122Y-3933D01*
X6990D01*
X7049Y-3921D01*
X7098Y-3888D01*
X8448Y-2538D01*
X8551Y-2549D01*
X8557Y-2559D01*
X8630Y-2607D01*
X8716Y-2624D01*
X8802Y-2607D01*
X8875Y-2559D01*
X8923Y-2486D01*
X8940Y-2400D01*
X8923Y-2314D01*
X8875Y-2241D01*
X8895Y-2165D01*
X8934Y-2123D01*
X10168D01*
X10171Y-2129D01*
X10244Y-2177D01*
X10330Y-2194D01*
X10416Y-2177D01*
X10489Y-2129D01*
X10537Y-2056D01*
X10554Y-1970D01*
X10537Y-1884D01*
X10489Y-1811D01*
X10416Y-1763D01*
X10330Y-1746D01*
X10244Y-1763D01*
X10171Y-1811D01*
X10168Y-1817D01*
X9103D01*
X9069Y-1737D01*
X9312Y-1495D01*
X12138D01*
X12171Y-1575D01*
X12016Y-1730D01*
X11961Y-1812D01*
X11941Y-1910D01*
Y-4464D01*
X11620Y-4785D01*
X11570D01*
X11472Y-4805D01*
X11390Y-4860D01*
X11335Y-4942D01*
X11315Y-5040D01*
X11335Y-5138D01*
X11390Y-5220D01*
X11472Y-5275D01*
X11570Y-5295D01*
X11726D01*
X11824Y-5275D01*
X11906Y-5220D01*
X12314Y-4813D01*
X12394Y-4846D01*
Y-5010D01*
X12404Y-5061D01*
X12432Y-5104D01*
X12958Y-5629D01*
X12952Y-5660D01*
X12969Y-5746D01*
X13017Y-5819D01*
X13090Y-5867D01*
X13176Y-5884D01*
X13262Y-5867D01*
X13335Y-5819D01*
X13383Y-5746D01*
X13400Y-5660D01*
X13383Y-5574D01*
X13335Y-5501D01*
X13262Y-5453D01*
X13176Y-5436D01*
X13145Y-5442D01*
X12659Y-4955D01*
Y-4076D01*
X12685Y-4059D01*
X12733Y-3986D01*
X12750Y-3900D01*
X12733Y-3814D01*
X12685Y-3741D01*
X12612Y-3693D01*
X12526Y-3676D01*
X12513Y-3678D01*
X12451Y-3628D01*
Y-2016D01*
X15920Y1453D01*
X16141Y1232D01*
Y937D01*
X15566Y362D01*
X15511Y279D01*
X15491Y182D01*
Y-2390D01*
X15511Y-2488D01*
X15566Y-2570D01*
X16166Y-3170D01*
X16249Y-3225D01*
X16346Y-3245D01*
X16444Y-3225D01*
X16526Y-3170D01*
X16582Y-3088D01*
X16601Y-2990D01*
X16582Y-2892D01*
X16526Y-2810D01*
X16001Y-2284D01*
Y-920D01*
X16081Y-878D01*
X16110Y-897D01*
X16196Y-914D01*
X16282Y-897D01*
X16355Y-849D01*
X16403Y-776D01*
X16420Y-690D01*
X16403Y-604D01*
X16355Y-531D01*
X16282Y-483D01*
X16196Y-466D01*
X16110Y-483D01*
X16081Y-502D01*
X16001Y-460D01*
Y76D01*
X16576Y651D01*
X16632Y734D01*
X16651Y832D01*
Y1338D01*
X16632Y1435D01*
X16576Y1518D01*
X16100Y1994D01*
X16018Y2049D01*
X16018Y2049D01*
X16006Y2057D01*
X15920Y2074D01*
X15892Y2069D01*
X15424D01*
X15393Y2143D01*
X15980Y2730D01*
X16035Y2812D01*
X16055Y2910D01*
Y3320D01*
X16035Y3418D01*
X15980Y3500D01*
X15790Y3690D01*
X15708Y3746D01*
X15610Y3765D01*
X13703D01*
X13653Y3845D01*
X13664Y3900D01*
X13647Y3986D01*
X13599Y4059D01*
X13526Y4107D01*
X13440Y4124D01*
X13433Y4123D01*
X13398Y4158D01*
X13349Y4191D01*
X13290Y4203D01*
D02*
G37*
G36*
X960Y2794D02*
X874Y2777D01*
X801Y2729D01*
X753Y2656D01*
X736Y2570D01*
X753Y2484D01*
X801Y2411D01*
X874Y2363D01*
X960Y2346D01*
X1046Y2363D01*
X1119Y2411D01*
X1167Y2484D01*
X1184Y2570D01*
X1167Y2656D01*
X1119Y2729D01*
X1046Y2777D01*
X960Y2794D01*
D02*
G37*
G36*
X32750Y2718D02*
X30650D01*
X30593Y2707D01*
X30545Y2675D01*
X30223Y2352D01*
X30210Y2354D01*
X30124Y2337D01*
X30051Y2289D01*
X30003Y2216D01*
X29986Y2130D01*
X30003Y2044D01*
X30051Y1971D01*
X30124Y1923D01*
X30210Y1906D01*
X30296Y1923D01*
X30369Y1971D01*
X30417Y2044D01*
X30434Y2130D01*
X30432Y2143D01*
X30711Y2422D01*
X32689D01*
X33448Y1663D01*
X33446Y1650D01*
X33463Y1564D01*
X33511Y1491D01*
X33584Y1443D01*
X33670Y1426D01*
X33756Y1443D01*
X33829Y1491D01*
X33877Y1564D01*
X33894Y1650D01*
X33877Y1736D01*
X33829Y1809D01*
X33756Y1857D01*
X33670Y1874D01*
X33657Y1872D01*
X32855Y2675D01*
X32807Y2707D01*
X32750Y2718D01*
D02*
G37*
G36*
X19400Y3298D02*
X19323Y3287D01*
X19251Y3258D01*
X19190Y3210D01*
X19142Y3149D01*
X19113Y3077D01*
X19102Y3000D01*
X19113Y2923D01*
X19142Y2851D01*
X19190Y2790D01*
X19251Y2742D01*
X19323Y2713D01*
X19370Y2706D01*
X19407Y2638D01*
X19408Y2624D01*
X19383Y2586D01*
X19366Y2500D01*
X19383Y2414D01*
X19431Y2341D01*
X19504Y2293D01*
X19590Y2276D01*
X19676Y2293D01*
X19749Y2341D01*
X19797Y2414D01*
X19814Y2500D01*
X19797Y2586D01*
X19749Y2659D01*
X19676Y2707D01*
X19643Y2714D01*
X19625Y2755D01*
X19619Y2800D01*
X19658Y2851D01*
X19687Y2923D01*
X19698Y3000D01*
X19687Y3077D01*
X19658Y3149D01*
X19610Y3210D01*
X19549Y3258D01*
X19477Y3287D01*
X19400Y3298D01*
D02*
G37*
G36*
X17027Y4864D02*
X16941Y4847D01*
X16868Y4799D01*
X16820Y4726D01*
X16803Y4640D01*
X16820Y4554D01*
X16868Y4481D01*
X16873Y4478D01*
Y4382D01*
X16868Y4379D01*
X16820Y4306D01*
X16803Y4220D01*
X16820Y4134D01*
X16868Y4061D01*
X16873Y4058D01*
Y3962D01*
X16868Y3959D01*
X16820Y3886D01*
X16803Y3800D01*
X16820Y3714D01*
X16868Y3641D01*
X16941Y3593D01*
X17027Y3576D01*
X17113Y3593D01*
X17185Y3641D01*
X17234Y3714D01*
X17251Y3800D01*
X17234Y3886D01*
X17185Y3959D01*
X17181Y3962D01*
Y4058D01*
X17185Y4061D01*
X17234Y4134D01*
X17238Y4155D01*
X17272Y4218D01*
X17325Y4213D01*
X17360Y4206D01*
X17446Y4223D01*
X17519Y4271D01*
X17536Y4297D01*
X17685D01*
X17883Y4099D01*
X17844Y4026D01*
X17800Y4034D01*
X17714Y4017D01*
X17641Y3969D01*
X17593Y3896D01*
X17576Y3810D01*
X17593Y3724D01*
X17641Y3651D01*
X17667Y3634D01*
Y3556D01*
X17641Y3539D01*
X17593Y3466D01*
X17576Y3380D01*
X17593Y3294D01*
X17641Y3221D01*
X17714Y3173D01*
X17800Y3156D01*
X17857Y3167D01*
X17937Y3118D01*
Y1766D01*
X17911Y1749D01*
X17863Y1676D01*
X17846Y1590D01*
X17863Y1504D01*
X17911Y1431D01*
X17984Y1383D01*
X18070Y1366D01*
X18156Y1383D01*
X18229Y1431D01*
X18277Y1504D01*
X18294Y1590D01*
X18277Y1676D01*
X18229Y1749D01*
X18203Y1766D01*
Y4100D01*
X18192Y4151D01*
X18164Y4194D01*
X17834Y4524D01*
X17791Y4552D01*
X17740Y4563D01*
X17536D01*
X17519Y4589D01*
X17446Y4637D01*
X17360Y4654D01*
X17325Y4647D01*
X17272Y4642D01*
X17238Y4705D01*
X17234Y4726D01*
X17185Y4799D01*
X17113Y4847D01*
X17027Y4864D01*
D02*
G37*
G36*
X8400Y5724D02*
X8314Y5707D01*
X8241Y5659D01*
X8193Y5586D01*
X8176Y5500D01*
X8193Y5414D01*
X8241Y5341D01*
X8314Y5293D01*
X8400Y5276D01*
X8486Y5293D01*
X8559Y5341D01*
X8607Y5414D01*
X8624Y5500D01*
X8607Y5586D01*
X8559Y5659D01*
X8486Y5707D01*
X8400Y5724D01*
D02*
G37*
G36*
X5599Y6250D02*
X3399D01*
Y5620D01*
X3319Y5615D01*
X3319Y5618D01*
X3273Y5727D01*
X3201Y5821D01*
X3107Y5893D01*
X2998Y5939D01*
X2880Y5954D01*
X2762Y5939D01*
X2653Y5893D01*
X2559Y5821D01*
X2486Y5727D01*
X2441Y5618D01*
X2426Y5500D01*
X2441Y5382D01*
X2486Y5273D01*
X2559Y5179D01*
X2653Y5107D01*
X2762Y5061D01*
X2880Y5046D01*
X2998Y5061D01*
X3107Y5107D01*
X3201Y5179D01*
X3273Y5273D01*
X3319Y5382D01*
X3319Y5385D01*
X3399Y5380D01*
Y4050D01*
X5599D01*
Y4261D01*
X5720D01*
X5808Y4278D01*
X5882Y4328D01*
X5932Y4402D01*
X5949Y4490D01*
X5932Y4578D01*
X5882Y4652D01*
X5808Y4702D01*
X5720Y4719D01*
X5673D01*
X5662Y4750D01*
X5668Y4768D01*
X5716Y4831D01*
X5776Y4843D01*
X5849Y4891D01*
X5897Y4964D01*
X5914Y5050D01*
X5897Y5136D01*
X5849Y5209D01*
X5776Y5257D01*
X5690Y5274D01*
X5679Y5272D01*
X5599Y5338D01*
Y6250D01*
D02*
G37*
G36*
X6850Y5314D02*
X6764Y5297D01*
X6691Y5249D01*
X6643Y5176D01*
X6626Y5090D01*
X6643Y5004D01*
X6691Y4931D01*
X6764Y4883D01*
X6850Y4866D01*
X6936Y4883D01*
X7009Y4931D01*
X7057Y5004D01*
X7074Y5090D01*
X7057Y5176D01*
X7009Y5249D01*
X6936Y5297D01*
X6850Y5314D01*
D02*
G37*
G36*
X32150Y5244D02*
X32064Y5227D01*
X31991Y5179D01*
X31943Y5106D01*
X31926Y5020D01*
X31943Y4934D01*
X31991Y4861D01*
X32064Y4813D01*
X32150Y4796D01*
X32236Y4813D01*
X32309Y4861D01*
X32357Y4934D01*
X32374Y5020D01*
X32357Y5106D01*
X32309Y5179D01*
X32236Y5227D01*
X32150Y5244D01*
D02*
G37*
G36*
X34650D02*
X34564Y5227D01*
X34491Y5179D01*
X34443Y5106D01*
X34426Y5020D01*
X34443Y4934D01*
X34491Y4861D01*
X34564Y4813D01*
X34650Y4796D01*
X34736Y4813D01*
X34809Y4861D01*
X34857Y4934D01*
X34874Y5020D01*
X34857Y5106D01*
X34809Y5179D01*
X34736Y5227D01*
X34650Y5244D01*
D02*
G37*
G36*
X19610Y724D02*
X19524Y707D01*
X19451Y659D01*
X19403Y586D01*
X19386Y500D01*
X19403Y414D01*
X19451Y341D01*
X19524Y293D01*
X19610Y276D01*
X19696Y293D01*
X19769Y341D01*
X19817Y414D01*
X19834Y500D01*
X19817Y586D01*
X19769Y659D01*
X19696Y707D01*
X19610Y724D01*
D02*
G37*
G36*
X6571Y-50D02*
X4549D01*
Y-2072D01*
X5483D01*
X5653Y-2058D01*
X5819Y-2019D01*
X5977Y-1953D01*
X6123Y-1864D01*
X6252Y-1753D01*
X6363Y-1624D01*
X6452Y-1478D01*
X6518Y-1320D01*
X6558Y-1154D01*
X6571Y-984D01*
Y-50D01*
D02*
G37*
G36*
X16556Y-1256D02*
X16470Y-1273D01*
X16397Y-1321D01*
X16349Y-1394D01*
X16332Y-1480D01*
X16349Y-1566D01*
X16397Y-1639D01*
X16470Y-1687D01*
X16556Y-1704D01*
X16642Y-1687D01*
X16715Y-1639D01*
X16763Y-1566D01*
X16780Y-1480D01*
X16763Y-1394D01*
X16715Y-1321D01*
X16642Y-1273D01*
X16556Y-1256D01*
D02*
G37*
G36*
X4449Y-50D02*
X2427D01*
Y-984D01*
X2441Y-1154D01*
X2480Y-1320D01*
X2546Y-1478D01*
X2635Y-1624D01*
X2746Y-1753D01*
X2876Y-1864D01*
X3021Y-1953D01*
X3179Y-2019D01*
X3345Y-2058D01*
X3515Y-2072D01*
X4449D01*
Y-50D01*
D02*
G37*
G36*
X33850Y-2576D02*
X33764Y-2593D01*
X33700Y-2636D01*
X33636Y-2593D01*
X33550Y-2576D01*
X33464Y-2593D01*
X33398Y-2637D01*
X33333Y-2593D01*
X33247Y-2576D01*
X33161Y-2593D01*
X33093Y-2638D01*
X33026Y-2593D01*
X32940Y-2576D01*
X32854Y-2593D01*
X32781Y-2641D01*
X32733Y-2714D01*
X32716Y-2800D01*
X32733Y-2886D01*
X32781Y-2959D01*
X32854Y-3007D01*
X32940Y-3024D01*
X32971Y-3018D01*
X33457Y-3505D01*
Y-4383D01*
X33425Y-4432D01*
X33412Y-4500D01*
Y-5100D01*
X33425Y-5168D01*
X33457Y-5217D01*
Y-6740D01*
X33444Y-6742D01*
X33371Y-6791D01*
X33323Y-6864D01*
X33306Y-6949D01*
X33323Y-7035D01*
X33330Y-7047D01*
X33288Y-7127D01*
X32966D01*
X32949Y-7101D01*
X32876Y-7052D01*
X32790Y-7035D01*
X32704Y-7052D01*
X32631Y-7101D01*
X32583Y-7174D01*
X32566Y-7259D01*
X32570Y-7283D01*
X32506Y-7363D01*
X32104D01*
X32084Y-7339D01*
X32067Y-7254D01*
X32019Y-7181D01*
X31946Y-7132D01*
X31860Y-7115D01*
X31774Y-7132D01*
X31701Y-7181D01*
X31653Y-7254D01*
X31636Y-7339D01*
X31653Y-7425D01*
X31701Y-7498D01*
X31774Y-7547D01*
X31761Y-7626D01*
X31753Y-7638D01*
X31736Y-7723D01*
X31742Y-7754D01*
X30952Y-8544D01*
X30869Y-8563D01*
X30796Y-8515D01*
X30710Y-8498D01*
X30624Y-8515D01*
X30551Y-8563D01*
X30503Y-8636D01*
X30486Y-8722D01*
X30503Y-8808D01*
X30551Y-8881D01*
X30624Y-8929D01*
X30710Y-8946D01*
X30796Y-8929D01*
X30869Y-8881D01*
X30886Y-8855D01*
X30961D01*
X31012Y-8844D01*
X31055Y-8816D01*
X31929Y-7942D01*
X31960Y-7948D01*
X32046Y-7931D01*
X32119Y-7882D01*
X32167Y-7809D01*
X32184Y-7723D01*
X32181Y-7708D01*
X32247Y-7628D01*
X32596D01*
X32608Y-7643D01*
X32591Y-7751D01*
X32591Y-7751D01*
X32543Y-7824D01*
X32526Y-7909D01*
X32543Y-7995D01*
X32591Y-8068D01*
X32664Y-8117D01*
X32750Y-8134D01*
X32836Y-8117D01*
X32909Y-8068D01*
X32931Y-8035D01*
X32975Y-8000D01*
X33033Y-8015D01*
X33064Y-8035D01*
X33150Y-8052D01*
X33181Y-8046D01*
X33950Y-8816D01*
X33993Y-8844D01*
X34044Y-8855D01*
X34284D01*
X34301Y-8881D01*
X34374Y-8929D01*
X34460Y-8946D01*
X34546Y-8929D01*
X34619Y-8881D01*
X34667Y-8808D01*
X34684Y-8722D01*
X34667Y-8636D01*
X34619Y-8563D01*
X34546Y-8515D01*
X34460Y-8498D01*
X34374Y-8515D01*
X34301Y-8563D01*
X34284Y-8589D01*
X34099D01*
X33368Y-7859D01*
X33374Y-7828D01*
X33371Y-7810D01*
X33421Y-7748D01*
X33509D01*
X33560Y-7738D01*
X33603Y-7709D01*
X34414Y-6898D01*
X34442Y-6855D01*
X34453Y-6805D01*
Y-6017D01*
X34485Y-5968D01*
X34498Y-5900D01*
Y-5300D01*
X34485Y-5232D01*
X34453Y-5183D01*
Y-3270D01*
X34442Y-3219D01*
X34414Y-3176D01*
X34068Y-2831D01*
X34074Y-2800D01*
X34057Y-2714D01*
X34009Y-2641D01*
X33936Y-2593D01*
X33850Y-2576D01*
D02*
G37*
G36*
X10536Y-2486D02*
X10450Y-2503D01*
X10377Y-2551D01*
X10374Y-2557D01*
X9348D01*
X9345Y-2551D01*
X9272Y-2503D01*
X9186Y-2486D01*
X9100Y-2503D01*
X9027Y-2551D01*
X8979Y-2624D01*
X8962Y-2710D01*
X8979Y-2796D01*
X9022Y-2860D01*
X8979Y-2924D01*
X8962Y-3010D01*
X8979Y-3096D01*
X9027Y-3169D01*
X9100Y-3217D01*
X9186Y-3234D01*
X9272Y-3217D01*
X9345Y-3169D01*
X9348Y-3163D01*
X10364D01*
X10367Y-3169D01*
X10440Y-3217D01*
X10526Y-3234D01*
X10612Y-3217D01*
X10685Y-3169D01*
X10733Y-3096D01*
X10750Y-3010D01*
X10733Y-2924D01*
X10695Y-2867D01*
X10743Y-2796D01*
X10760Y-2710D01*
X10743Y-2624D01*
X10695Y-2551D01*
X10622Y-2503D01*
X10536Y-2486D01*
D02*
G37*
G36*
X27199Y-199D02*
X26125D01*
Y-801D01*
X26159D01*
X26184Y-866D01*
X26185Y-881D01*
X26169Y-960D01*
X26186Y-1046D01*
X26235Y-1119D01*
X26308Y-1167D01*
X26394Y-1184D01*
X26480Y-1167D01*
X26552Y-1119D01*
X26601Y-1046D01*
X26618Y-960D01*
X26601Y-874D01*
X26598Y-869D01*
Y-853D01*
X26650Y-801D01*
X27199D01*
Y-199D01*
D02*
G37*
G36*
X4449Y2072D02*
X3515D01*
X3345Y2058D01*
X3179Y2019D01*
X3021Y1953D01*
X2876Y1864D01*
X2746Y1753D01*
X2635Y1624D01*
X2546Y1478D01*
X2480Y1320D01*
X2441Y1154D01*
X2427Y984D01*
Y50D01*
X4449D01*
Y2072D01*
D02*
G37*
G36*
X5483D02*
X4549D01*
Y50D01*
X6571D01*
Y984D01*
X6558Y1154D01*
X6518Y1320D01*
X6452Y1478D01*
X6363Y1624D01*
X6252Y1753D01*
X6123Y1864D01*
X5977Y1953D01*
X5819Y2019D01*
X5653Y2058D01*
X5483Y2072D01*
D02*
G37*
G36*
X19000Y298D02*
X18923Y287D01*
X18851Y258D01*
X18790Y210D01*
X18742Y149D01*
X18713Y77D01*
X18702Y-0D01*
X18713Y-77D01*
X18742Y-149D01*
X18790Y-210D01*
X18851Y-258D01*
X18923Y-287D01*
X19000Y-298D01*
X19077Y-287D01*
X19149Y-258D01*
X19210Y-210D01*
X19258Y-149D01*
X19287Y-77D01*
X19298Y-0D01*
X19287Y77D01*
X19258Y149D01*
X19210Y210D01*
X19149Y258D01*
X19077Y287D01*
X19000Y298D01*
D02*
G37*
G36*
X30700Y1444D02*
X30614Y1427D01*
X30541Y1379D01*
X30493Y1306D01*
X30476Y1220D01*
X30492Y1137D01*
Y-399D01*
X30193Y-698D01*
X30180Y-696D01*
X30094Y-713D01*
X30021Y-761D01*
X29973Y-834D01*
X29956Y-920D01*
X29973Y-1006D01*
X30021Y-1079D01*
X30094Y-1127D01*
X30180Y-1144D01*
X30266Y-1127D01*
X30339Y-1079D01*
X30387Y-1006D01*
X30404Y-920D01*
X30402Y-907D01*
X30745Y-565D01*
X30777Y-517D01*
X30788Y-460D01*
Y1014D01*
X30859Y1061D01*
X30907Y1134D01*
X30924Y1220D01*
X30907Y1306D01*
X30859Y1379D01*
X30786Y1427D01*
X30700Y1444D01*
D02*
G37*
G36*
X16816Y24D02*
X16730Y7D01*
X16657Y-41D01*
X16609Y-114D01*
X16592Y-200D01*
X16609Y-286D01*
X16657Y-359D01*
X16730Y-407D01*
X16816Y-424D01*
X16902Y-407D01*
X16975Y-359D01*
X17023Y-286D01*
X17040Y-200D01*
X17023Y-114D01*
X16975Y-41D01*
X16902Y7D01*
X16816Y24D01*
D02*
G37*
G36*
X16950Y-8973D02*
X16699D01*
Y-9454D01*
X16950D01*
Y-8973D01*
D02*
G37*
G36*
X18050Y-11608D02*
Y-11950D01*
X18392D01*
X18385Y-11897D01*
X18345Y-11801D01*
X18282Y-11718D01*
X18199Y-11655D01*
X18103Y-11615D01*
X18050Y-11608D01*
D02*
G37*
G36*
X19950Y-11605D02*
X19605D01*
Y-11950D01*
X19950D01*
Y-11605D01*
D02*
G37*
G36*
X17950Y-11608D02*
X17897Y-11615D01*
X17801Y-11655D01*
X17718Y-11718D01*
X17655Y-11801D01*
X17615Y-11897D01*
X17608Y-11950D01*
X17950D01*
Y-11608D01*
D02*
G37*
G36*
X16950D02*
X16897Y-11615D01*
X16801Y-11655D01*
X16718Y-11718D01*
X16655Y-11801D01*
X16615Y-11897D01*
X16608Y-11950D01*
X16950D01*
Y-11608D01*
D02*
G37*
G36*
X17050D02*
Y-11950D01*
X17392D01*
X17385Y-11897D01*
X17345Y-11801D01*
X17282Y-11718D01*
X17199Y-11655D01*
X17103Y-11615D01*
X17050Y-11608D01*
D02*
G37*
G36*
X20395Y-11605D02*
X20050D01*
Y-11950D01*
X20395D01*
Y-11605D01*
D02*
G37*
G36*
X22050Y-11608D02*
Y-11950D01*
X22392D01*
X22385Y-11897D01*
X22345Y-11801D01*
X22282Y-11718D01*
X22199Y-11655D01*
X22103Y-11615D01*
X22050Y-11608D01*
D02*
G37*
G36*
X22950D02*
X22897Y-11615D01*
X22801Y-11655D01*
X22718Y-11718D01*
X22655Y-11801D01*
X22615Y-11897D01*
X22608Y-11950D01*
X22950D01*
Y-11608D01*
D02*
G37*
G36*
X21950D02*
X21897Y-11615D01*
X21801Y-11655D01*
X21718Y-11718D01*
X21655Y-11801D01*
X21615Y-11897D01*
X21608Y-11950D01*
X21950D01*
Y-11608D01*
D02*
G37*
G36*
X20950D02*
X20897Y-11615D01*
X20801Y-11655D01*
X20718Y-11718D01*
X20655Y-11801D01*
X20615Y-11897D01*
X20608Y-11950D01*
X20950D01*
Y-11608D01*
D02*
G37*
G36*
X21050D02*
Y-11950D01*
X21392D01*
X21385Y-11897D01*
X21345Y-11801D01*
X21282Y-11718D01*
X21199Y-11655D01*
X21103Y-11615D01*
X21050Y-11608D01*
D02*
G37*
G36*
X16050D02*
Y-11950D01*
X16392D01*
X16385Y-11897D01*
X16345Y-11801D01*
X16282Y-11718D01*
X16199Y-11655D01*
X16103Y-11615D01*
X16050Y-11608D01*
D02*
G37*
G36*
X12050D02*
Y-11950D01*
X12392D01*
X12385Y-11897D01*
X12345Y-11801D01*
X12282Y-11718D01*
X12199Y-11655D01*
X12103Y-11615D01*
X12050Y-11608D01*
D02*
G37*
G36*
X12950D02*
X12897Y-11615D01*
X12801Y-11655D01*
X12718Y-11718D01*
X12655Y-11801D01*
X12615Y-11897D01*
X12608Y-11950D01*
X12950D01*
Y-11608D01*
D02*
G37*
G36*
X11950D02*
X11897Y-11615D01*
X11801Y-11655D01*
X11718Y-11718D01*
X11655Y-11801D01*
X11615Y-11897D01*
X11608Y-11950D01*
X11950D01*
Y-11608D01*
D02*
G37*
G36*
X10950Y-11605D02*
X10605D01*
Y-11950D01*
X10950D01*
Y-11605D01*
D02*
G37*
G36*
X11395D02*
X11050D01*
Y-11950D01*
X11395D01*
Y-11605D01*
D02*
G37*
G36*
X13050Y-11608D02*
Y-11950D01*
X13392D01*
X13385Y-11897D01*
X13345Y-11801D01*
X13282Y-11718D01*
X13199Y-11655D01*
X13103Y-11615D01*
X13050Y-11608D01*
D02*
G37*
G36*
X15050D02*
Y-11950D01*
X15392D01*
X15385Y-11897D01*
X15345Y-11801D01*
X15282Y-11718D01*
X15199Y-11655D01*
X15103Y-11615D01*
X15050Y-11608D01*
D02*
G37*
G36*
X15950D02*
X15897Y-11615D01*
X15801Y-11655D01*
X15718Y-11718D01*
X15655Y-11801D01*
X15615Y-11897D01*
X15608Y-11950D01*
X15950D01*
Y-11608D01*
D02*
G37*
G36*
X14950D02*
X14897Y-11615D01*
X14801Y-11655D01*
X14718Y-11718D01*
X14655Y-11801D01*
X14615Y-11897D01*
X14608Y-11950D01*
X14950D01*
Y-11608D01*
D02*
G37*
G36*
X13950D02*
X13897Y-11615D01*
X13801Y-11655D01*
X13718Y-11718D01*
X13655Y-11801D01*
X13615Y-11897D01*
X13608Y-11950D01*
X13950D01*
Y-11608D01*
D02*
G37*
G36*
X14050D02*
Y-11950D01*
X14392D01*
X14385Y-11897D01*
X14345Y-11801D01*
X14282Y-11718D01*
X14199Y-11655D01*
X14103Y-11615D01*
X14050Y-11608D01*
D02*
G37*
G36*
X23050D02*
Y-11950D01*
X23392D01*
X23385Y-11897D01*
X23345Y-11801D01*
X23282Y-11718D01*
X23199Y-11655D01*
X23103Y-11615D01*
X23050Y-11608D01*
D02*
G37*
G36*
X15950Y-9546D02*
X15699D01*
Y-10027D01*
X15950D01*
Y-9546D01*
D02*
G37*
G36*
X16301D02*
X16050D01*
Y-10027D01*
X16301D01*
Y-9546D01*
D02*
G37*
G36*
X3164Y-9795D02*
X3078Y-9813D01*
X3006Y-9861D01*
X2957Y-9934D01*
X2940Y-10020D01*
X2957Y-10106D01*
X3006Y-10178D01*
X3078Y-10227D01*
X3164Y-10244D01*
X3250Y-10227D01*
X3323Y-10178D01*
X3371Y-10106D01*
X3389Y-10020D01*
X3371Y-9934D01*
X3323Y-9861D01*
X3250Y-9813D01*
X3164Y-9795D01*
D02*
G37*
G36*
X2700Y-10481D02*
X2614Y-10498D01*
X2541Y-10547D01*
X2493Y-10620D01*
X2476Y-10705D01*
X2493Y-10791D01*
X2541Y-10864D01*
X2614Y-10913D01*
X2700Y-10930D01*
X2786Y-10913D01*
X2859Y-10864D01*
X2907Y-10791D01*
X2924Y-10705D01*
X2907Y-10620D01*
X2859Y-10547D01*
X2786Y-10498D01*
X2700Y-10481D01*
D02*
G37*
G36*
X3620D02*
X3534Y-10498D01*
X3461Y-10547D01*
X3413Y-10620D01*
X3396Y-10705D01*
X3413Y-10791D01*
X3461Y-10864D01*
X3534Y-10913D01*
X3620Y-10930D01*
X3706Y-10913D01*
X3779Y-10864D01*
X3827Y-10791D01*
X3844Y-10705D01*
X3827Y-10620D01*
X3779Y-10547D01*
X3706Y-10498D01*
X3620Y-10481D01*
D02*
G37*
G36*
X16950Y-9546D02*
X16699D01*
Y-10027D01*
X16950D01*
Y-9546D01*
D02*
G37*
G36*
X15950Y-8973D02*
X15699D01*
Y-9454D01*
X15950D01*
Y-8973D01*
D02*
G37*
G36*
X16301D02*
X16050D01*
Y-9454D01*
X16301D01*
Y-8973D01*
D02*
G37*
G36*
X27392Y-9550D02*
X27050D01*
Y-9892D01*
X27103Y-9885D01*
X27199Y-9845D01*
X27282Y-9782D01*
X27345Y-9699D01*
X27385Y-9603D01*
X27392Y-9550D01*
D02*
G37*
G36*
X17301Y-9546D02*
X17050D01*
Y-10027D01*
X17301D01*
Y-9546D01*
D02*
G37*
G36*
X26950Y-9550D02*
X26608D01*
X26615Y-9603D01*
X26655Y-9699D01*
X26718Y-9782D01*
X26801Y-9845D01*
X26897Y-9885D01*
X26950Y-9892D01*
Y-9550D01*
D02*
G37*
G36*
X17301Y-10127D02*
X16699D01*
Y-10608D01*
X16730D01*
X16757Y-10688D01*
X16718Y-10718D01*
X16655Y-10801D01*
X16615Y-10897D01*
X16608Y-10950D01*
X17392D01*
X17385Y-10897D01*
X17345Y-10801D01*
X17282Y-10718D01*
X17243Y-10688D01*
X17270Y-10608D01*
X17301D01*
Y-10127D01*
D02*
G37*
G36*
X25050Y-11608D02*
Y-11950D01*
X25392D01*
X25385Y-11897D01*
X25345Y-11801D01*
X25282Y-11718D01*
X25199Y-11655D01*
X25103Y-11615D01*
X25050Y-11608D01*
D02*
G37*
G36*
X4500Y-10850D02*
X4371Y-10867D01*
X4250Y-10917D01*
X4146Y-10996D01*
X4067Y-11100D01*
X4017Y-11221D01*
X4000Y-11350D01*
X4017Y-11479D01*
X4067Y-11600D01*
X4146Y-11704D01*
X4250Y-11783D01*
X4371Y-11833D01*
X4500Y-11850D01*
X4629Y-11833D01*
X4750Y-11783D01*
X4854Y-11704D01*
X4933Y-11600D01*
X4983Y-11479D01*
X5000Y-11350D01*
X4983Y-11221D01*
X4933Y-11100D01*
X4854Y-10996D01*
X4750Y-10917D01*
X4629Y-10867D01*
X4500Y-10850D01*
D02*
G37*
G36*
X24950Y-11608D02*
X24897Y-11615D01*
X24801Y-11655D01*
X24718Y-11718D01*
X24655Y-11801D01*
X24615Y-11897D01*
X24608Y-11950D01*
X24950D01*
Y-11608D01*
D02*
G37*
G36*
X23950D02*
X23897Y-11615D01*
X23801Y-11655D01*
X23718Y-11718D01*
X23655Y-11801D01*
X23615Y-11897D01*
X23608Y-11950D01*
X23950D01*
Y-11608D01*
D02*
G37*
G36*
X24050D02*
Y-11950D01*
X24392D01*
X24385Y-11897D01*
X24345Y-11801D01*
X24282Y-11718D01*
X24199Y-11655D01*
X24103Y-11615D01*
X24050Y-11608D01*
D02*
G37*
G36*
X18301Y-8392D02*
X17699D01*
Y-9454D01*
X17699D01*
X17711Y-9500D01*
X17699Y-9546D01*
X17699D01*
Y-10608D01*
X17730D01*
X17757Y-10688D01*
X17718Y-10718D01*
X17655Y-10801D01*
X17615Y-10897D01*
X17601Y-11000D01*
X17615Y-11103D01*
X17655Y-11199D01*
X17718Y-11282D01*
X17801Y-11345D01*
X17897Y-11385D01*
X18000Y-11399D01*
X18103Y-11385D01*
X18199Y-11345D01*
X18282Y-11282D01*
X18345Y-11199D01*
X18385Y-11103D01*
X18399Y-11000D01*
X18385Y-10897D01*
X18345Y-10801D01*
X18282Y-10718D01*
X18243Y-10688D01*
X18270Y-10608D01*
X18301D01*
Y-9546D01*
X18301D01*
X18289Y-9500D01*
X18301Y-9454D01*
X18301D01*
Y-8392D01*
D02*
G37*
G36*
X17392Y-11050D02*
X17050D01*
Y-11392D01*
X17103Y-11385D01*
X17199Y-11345D01*
X17282Y-11282D01*
X17345Y-11199D01*
X17385Y-11103D01*
X17392Y-11050D01*
D02*
G37*
G36*
X16301Y-10127D02*
X15699D01*
Y-10608D01*
X15730D01*
X15757Y-10688D01*
X15718Y-10718D01*
X15655Y-10801D01*
X15615Y-10897D01*
X15608Y-10950D01*
X16392D01*
X16385Y-10897D01*
X16345Y-10801D01*
X16282Y-10718D01*
X16243Y-10688D01*
X16270Y-10608D01*
X16301D01*
Y-10127D01*
D02*
G37*
G36*
X16950Y-11050D02*
X16608D01*
X16615Y-11103D01*
X16655Y-11199D01*
X16718Y-11282D01*
X16801Y-11345D01*
X16897Y-11385D01*
X16950Y-11392D01*
Y-11050D01*
D02*
G37*
G36*
X15950D02*
X15608D01*
X15615Y-11103D01*
X15655Y-11199D01*
X15718Y-11282D01*
X15801Y-11345D01*
X15897Y-11385D01*
X15950Y-11392D01*
Y-11050D01*
D02*
G37*
G36*
X16392D02*
X16050D01*
Y-11392D01*
X16103Y-11385D01*
X16199Y-11345D01*
X16282Y-11282D01*
X16345Y-11199D01*
X16385Y-11103D01*
X16392Y-11050D01*
D02*
G37*
G36*
X35500Y10578D02*
X35331Y10565D01*
X35167Y10525D01*
X35010Y10461D01*
X34866Y10372D01*
X34738Y10262D01*
X34628Y10134D01*
X34539Y9989D01*
X34475Y9833D01*
X34435Y9669D01*
X34422Y9500D01*
X34435Y9331D01*
X34475Y9167D01*
X34539Y9011D01*
X34628Y8866D01*
X34738Y8738D01*
X34866Y8628D01*
X35010Y8539D01*
X35167Y8475D01*
X35331Y8435D01*
X35500Y8422D01*
X35653Y8434D01*
X35679Y8399D01*
X35691Y8358D01*
X35426Y8094D01*
X35424Y8091D01*
X35361Y8049D01*
X35313Y7976D01*
X35296Y7890D01*
X35313Y7804D01*
X35361Y7731D01*
X35434Y7683D01*
X35520Y7666D01*
X35536Y7669D01*
X35597Y7618D01*
Y7465D01*
X35537Y7404D01*
X35515Y7400D01*
X35472Y7371D01*
X35349Y7248D01*
X35320Y7205D01*
X35310Y7154D01*
Y6636D01*
X35027Y6353D01*
X34899D01*
X34856Y6433D01*
X34857Y6434D01*
X34874Y6520D01*
X34857Y6606D01*
X34809Y6679D01*
X34736Y6727D01*
X34650Y6744D01*
X34564Y6727D01*
X34491Y6679D01*
X34443Y6606D01*
X34426Y6520D01*
X34443Y6434D01*
X34444Y6433D01*
X34401Y6353D01*
X32399D01*
X32356Y6433D01*
X32357Y6434D01*
X32374Y6520D01*
X32357Y6606D01*
X32309Y6679D01*
X32236Y6727D01*
X32150Y6744D01*
X32064Y6727D01*
X31991Y6679D01*
X31943Y6606D01*
X31926Y6520D01*
X31943Y6434D01*
X31944Y6433D01*
X31901Y6353D01*
X26385D01*
X26383Y6354D01*
X26340Y6382D01*
X26290Y6393D01*
X24531D01*
X24480Y6382D01*
X24437Y6354D01*
X22396Y4313D01*
X22368Y4270D01*
X22357Y4219D01*
Y3692D01*
X22322Y3685D01*
X22264Y3646D01*
X21945Y3328D01*
X21869Y3299D01*
X21833Y3323D01*
X21796Y3347D01*
X21710Y3364D01*
X21624Y3347D01*
X21551Y3299D01*
X21503Y3226D01*
X21486Y3140D01*
X21492Y3109D01*
X21260Y2878D01*
X21180Y2911D01*
Y3014D01*
X21187Y3024D01*
X21204Y3110D01*
X21187Y3196D01*
X21139Y3269D01*
X21066Y3317D01*
X20980Y3334D01*
X20894Y3317D01*
X20821Y3269D01*
X20773Y3196D01*
X20756Y3110D01*
X20773Y3024D01*
X20821Y2951D01*
X20894Y2903D01*
X20915Y2899D01*
Y2297D01*
X20835Y2254D01*
X20816Y2267D01*
X20730Y2284D01*
X20644Y2267D01*
X20571Y2219D01*
X20523Y2146D01*
X20506Y2060D01*
X20523Y1974D01*
X20571Y1901D01*
X20619Y1869D01*
X20641Y1778D01*
X20486Y1623D01*
X20458Y1580D01*
X20447Y1530D01*
Y1028D01*
X20421Y1010D01*
X20373Y938D01*
X20356Y852D01*
X20373Y766D01*
X20421Y693D01*
X20494Y645D01*
X20580Y627D01*
X20602Y632D01*
X20657Y586D01*
X20668Y536D01*
X20696Y493D01*
X20821Y368D01*
X20816Y339D01*
X20833Y253D01*
X20881Y180D01*
X20954Y131D01*
X21040Y114D01*
X21126Y131D01*
X21199Y180D01*
X21247Y253D01*
X21264Y339D01*
X21247Y424D01*
X21199Y496D01*
X21239Y556D01*
X21256Y642D01*
X21239Y728D01*
X21190Y800D01*
X21185Y804D01*
Y901D01*
X21187Y903D01*
X21236Y976D01*
X21253Y1062D01*
X21236Y1148D01*
X21187Y1220D01*
X21185Y1222D01*
Y1319D01*
X21190Y1323D01*
X21239Y1396D01*
X21256Y1482D01*
X21239Y1568D01*
X21190Y1640D01*
X21173Y1652D01*
X21163Y1755D01*
X21394Y1986D01*
X21422Y2029D01*
X21433Y2080D01*
Y2218D01*
X21513Y2281D01*
X21540Y2276D01*
X21587Y2285D01*
X21667Y2232D01*
Y2026D01*
X21641Y2009D01*
X21593Y1936D01*
X21576Y1850D01*
X21593Y1764D01*
X21641Y1691D01*
X21714Y1643D01*
X21800Y1626D01*
X21886Y1643D01*
X21959Y1691D01*
X21976Y1717D01*
X22390D01*
X22441Y1728D01*
X22484Y1756D01*
X22755Y2027D01*
X23614D01*
X23631Y2001D01*
X23704Y1953D01*
X23790Y1936D01*
X23876Y1953D01*
X23949Y2001D01*
X23960Y2018D01*
X24040Y2026D01*
X24185Y1881D01*
X24152Y1801D01*
X23901D01*
Y1199D01*
X24526D01*
X24568Y1119D01*
X24553Y1096D01*
X24536Y1010D01*
X24553Y924D01*
X24593Y863D01*
X24544Y801D01*
X23901D01*
Y199D01*
X24975D01*
Y783D01*
X25041Y835D01*
X25074Y813D01*
X25160Y796D01*
X25246Y813D01*
X25312Y857D01*
X25381Y881D01*
X25391D01*
X25464Y833D01*
X25550Y816D01*
X25581Y822D01*
X25996Y406D01*
X26039Y378D01*
X26090Y367D01*
X26125D01*
Y199D01*
X27199D01*
Y801D01*
X26925D01*
X26882Y881D01*
X26898Y905D01*
X26917Y1002D01*
Y1199D01*
X27199D01*
Y1737D01*
X27199Y1801D01*
X27272Y1817D01*
X28775D01*
X29124Y1468D01*
X29083Y1406D01*
X29066Y1320D01*
X29083Y1234D01*
X29128Y1166D01*
X29083Y1098D01*
X29066Y1013D01*
X29083Y927D01*
X29126Y863D01*
X29083Y798D01*
X29066Y713D01*
X29083Y627D01*
X29084Y625D01*
X29041Y545D01*
X28974D01*
X28923Y535D01*
X28880Y506D01*
X26696Y-1678D01*
X26694Y-1681D01*
X26654Y-1680D01*
X26606Y-1669D01*
X26584Y-1636D01*
X26098Y-1151D01*
X26104Y-1120D01*
X26087Y-1034D01*
X26039Y-961D01*
X25966Y-913D01*
X25880Y-896D01*
X25794Y-913D01*
X25721Y-961D01*
X25694Y-1003D01*
X25600Y-1022D01*
X25524Y-946D01*
X25481Y-918D01*
X25430Y-907D01*
X24384D01*
X24344Y-827D01*
X24363Y-801D01*
X24975D01*
Y-199D01*
X23901D01*
Y-740D01*
X23898Y-802D01*
X23832Y-829D01*
X23812Y-833D01*
X23739Y-881D01*
X23691Y-954D01*
X23673Y-1040D01*
X23691Y-1126D01*
X23697Y-1135D01*
X23681Y-1241D01*
X23633Y-1314D01*
X23616Y-1400D01*
X23620Y-1423D01*
X23555Y-1503D01*
X22290D01*
X22239Y-1513D01*
X22196Y-1541D01*
X21871Y-1867D01*
X21840Y-1861D01*
X21754Y-1878D01*
X21681Y-1927D01*
X21671Y-1942D01*
X21568Y-1952D01*
X21393Y-1777D01*
Y-1542D01*
X21399Y-1539D01*
X21447Y-1466D01*
X21464Y-1380D01*
X21447Y-1294D01*
X21399Y-1221D01*
X21326Y-1173D01*
X21240Y-1156D01*
X21154Y-1173D01*
X21081Y-1221D01*
X21078Y-1227D01*
X20982D01*
X20979Y-1221D01*
X20906Y-1173D01*
X20822Y-1156D01*
X20743Y-1077D01*
Y-702D01*
X20749Y-699D01*
X20797Y-626D01*
X20814Y-540D01*
X20797Y-454D01*
X20749Y-381D01*
X20676Y-333D01*
X20590Y-316D01*
X20504Y-333D01*
X20431Y-381D01*
X20383Y-454D01*
X20366Y-540D01*
X20383Y-626D01*
X20431Y-699D01*
X20437Y-702D01*
Y-1140D01*
X20449Y-1199D01*
X20482Y-1248D01*
X20599Y-1365D01*
X20596Y-1380D01*
X20613Y-1466D01*
X20661Y-1539D01*
X20734Y-1587D01*
X20820Y-1604D01*
X20906Y-1587D01*
X20979Y-1539D01*
X20982Y-1533D01*
X21078D01*
X21081Y-1539D01*
X21087Y-1542D01*
Y-1840D01*
X21099Y-1899D01*
X21132Y-1948D01*
X21802Y-2618D01*
X21851Y-2651D01*
X21910Y-2663D01*
X23417D01*
X23712Y-2958D01*
X23761Y-2991D01*
X23820Y-3003D01*
X24248D01*
X24251Y-3009D01*
X24324Y-3057D01*
X24410Y-3074D01*
X24496Y-3057D01*
X24569Y-3009D01*
X24617Y-2936D01*
X24634Y-2850D01*
X24621Y-2782D01*
X24656Y-2732D01*
X24679Y-2712D01*
X24690Y-2714D01*
X24776Y-2697D01*
X24849Y-2649D01*
X24897Y-2576D01*
X24914Y-2490D01*
X24897Y-2404D01*
X24849Y-2331D01*
X24776Y-2283D01*
X24690Y-2266D01*
X24659Y-2272D01*
X24349Y-1962D01*
X24380Y-1888D01*
X24790D01*
X25442Y-2539D01*
X25436Y-2570D01*
X25453Y-2656D01*
X25501Y-2729D01*
X25574Y-2777D01*
X25660Y-2794D01*
X25746Y-2777D01*
X25800Y-2741D01*
X25865Y-2756D01*
X25888Y-2769D01*
X25893Y-2796D01*
X25941Y-2869D01*
X26014Y-2917D01*
X26100Y-2934D01*
X26186Y-2917D01*
X26259Y-2869D01*
X26307Y-2796D01*
X26324Y-2710D01*
X26307Y-2624D01*
X26289Y-2596D01*
X26346Y-2539D01*
X26404Y-2577D01*
X26490Y-2594D01*
X26576Y-2577D01*
X26577Y-2576D01*
X26657Y-2619D01*
Y-3445D01*
X22275Y-7827D01*
X20300D01*
X20249Y-7838D01*
X20206Y-7866D01*
X19906Y-8166D01*
X19878Y-8209D01*
X19867Y-8260D01*
Y-8392D01*
X19699D01*
Y-9454D01*
X19699D01*
X19711Y-9500D01*
X19699Y-9546D01*
X19699D01*
Y-10608D01*
X19730D01*
X19757Y-10688D01*
X19718Y-10718D01*
X19655Y-10801D01*
X19615Y-10897D01*
X19601Y-11000D01*
X19615Y-11103D01*
X19655Y-11199D01*
X19718Y-11282D01*
X19801Y-11345D01*
X19897Y-11385D01*
X20000Y-11399D01*
X20103Y-11385D01*
X20199Y-11345D01*
X20282Y-11282D01*
X20345Y-11199D01*
X20385Y-11103D01*
X20399Y-11000D01*
X20385Y-10897D01*
X20345Y-10801D01*
X20282Y-10718D01*
X20243Y-10688D01*
X20270Y-10608D01*
X20301D01*
Y-9546D01*
X20301D01*
X20289Y-9500D01*
X20301Y-9454D01*
X20301D01*
Y-8392D01*
X20139D01*
X20135Y-8312D01*
X20355Y-8093D01*
X20995D01*
X21026Y-8166D01*
X20906Y-8286D01*
X20878Y-8329D01*
X20867Y-8380D01*
Y-8392D01*
X20699D01*
Y-9454D01*
X20699D01*
X20711Y-9500D01*
X20699Y-9546D01*
X20699D01*
Y-10608D01*
X20730D01*
X20757Y-10688D01*
X20718Y-10718D01*
X20655Y-10801D01*
X20615Y-10897D01*
X20601Y-11000D01*
X20615Y-11103D01*
X20655Y-11199D01*
X20718Y-11282D01*
X20801Y-11345D01*
X20897Y-11385D01*
X21000Y-11399D01*
X21103Y-11385D01*
X21199Y-11345D01*
X21282Y-11282D01*
X21345Y-11199D01*
X21385Y-11103D01*
X21399Y-11000D01*
X21385Y-10897D01*
X21345Y-10801D01*
X21282Y-10718D01*
X21243Y-10688D01*
X21270Y-10608D01*
X21301D01*
Y-9546D01*
X21301D01*
X21289Y-9500D01*
X21301Y-9454D01*
X21301D01*
Y-8392D01*
X21280D01*
X21249Y-8318D01*
X21355Y-8213D01*
X21915D01*
X21946Y-8286D01*
X21906Y-8326D01*
X21878Y-8369D01*
X21873Y-8392D01*
X21699D01*
Y-9454D01*
X21699D01*
X21711Y-9500D01*
X21699Y-9546D01*
X21699D01*
Y-10608D01*
X21730D01*
X21757Y-10688D01*
X21718Y-10718D01*
X21655Y-10801D01*
X21615Y-10897D01*
X21601Y-11000D01*
X21615Y-11103D01*
X21655Y-11199D01*
X21718Y-11282D01*
X21801Y-11345D01*
X21897Y-11385D01*
X22000Y-11399D01*
X22103Y-11385D01*
X22199Y-11345D01*
X22282Y-11282D01*
X22345Y-11199D01*
X22385Y-11103D01*
X22399Y-11000D01*
X22385Y-10897D01*
X22345Y-10801D01*
X22282Y-10718D01*
X22243Y-10688D01*
X22270Y-10608D01*
X22301D01*
Y-9546D01*
X22301D01*
X22289Y-9500D01*
X22301Y-9454D01*
X22301D01*
Y-8392D01*
X22350Y-8333D01*
X22429D01*
X22480Y-8322D01*
X22523Y-8294D01*
X22794Y-8023D01*
X22867Y-8054D01*
Y-8392D01*
X22699D01*
Y-9454D01*
X22699D01*
X22711Y-9500D01*
X22699Y-9546D01*
X22699D01*
Y-10608D01*
X22730D01*
X22757Y-10688D01*
X22718Y-10718D01*
X22655Y-10801D01*
X22615Y-10897D01*
X22601Y-11000D01*
X22615Y-11103D01*
X22655Y-11199D01*
X22718Y-11282D01*
X22801Y-11345D01*
X22897Y-11385D01*
X23000Y-11399D01*
X23103Y-11385D01*
X23199Y-11345D01*
X23282Y-11282D01*
X23345Y-11199D01*
X23385Y-11103D01*
X23399Y-11000D01*
X23385Y-10897D01*
X23345Y-10801D01*
X23282Y-10718D01*
X23243Y-10688D01*
X23270Y-10608D01*
X23301D01*
Y-9546D01*
X23301D01*
X23289Y-9500D01*
X23301Y-9454D01*
X23301D01*
Y-8392D01*
X23133D01*
Y-7854D01*
X23794Y-7193D01*
X23867Y-7224D01*
Y-8392D01*
X23699D01*
Y-9454D01*
X23699D01*
X23711Y-9500D01*
X23699Y-9546D01*
X23699D01*
Y-10608D01*
X23730D01*
X23757Y-10688D01*
X23718Y-10718D01*
X23655Y-10801D01*
X23615Y-10897D01*
X23601Y-11000D01*
X23615Y-11103D01*
X23655Y-11199D01*
X23718Y-11282D01*
X23801Y-11345D01*
X23897Y-11385D01*
X24000Y-11399D01*
X24103Y-11385D01*
X24199Y-11345D01*
X24282Y-11282D01*
X24345Y-11199D01*
X24385Y-11103D01*
X24399Y-11000D01*
X24385Y-10897D01*
X24345Y-10801D01*
X24282Y-10718D01*
X24243Y-10688D01*
X24270Y-10608D01*
X24301D01*
Y-9546D01*
X24301D01*
X24289Y-9500D01*
X24301Y-9454D01*
X24301D01*
Y-8392D01*
X24133D01*
Y-7024D01*
X24618Y-6538D01*
X24692Y-6569D01*
Y-7955D01*
X24702Y-8006D01*
X24731Y-8049D01*
X24867Y-8186D01*
Y-8392D01*
X24699D01*
Y-9454D01*
X24699D01*
X24711Y-9500D01*
X24699Y-9546D01*
X24699D01*
Y-10608D01*
X24730D01*
X24757Y-10688D01*
X24718Y-10718D01*
X24655Y-10801D01*
X24615Y-10897D01*
X24601Y-11000D01*
X24615Y-11103D01*
X24655Y-11199D01*
X24718Y-11282D01*
X24801Y-11345D01*
X24897Y-11385D01*
X25000Y-11399D01*
X25103Y-11385D01*
X25199Y-11345D01*
X25282Y-11282D01*
X25345Y-11199D01*
X25385Y-11103D01*
X25399Y-11000D01*
X25385Y-10897D01*
X25345Y-10801D01*
X25282Y-10718D01*
X25243Y-10688D01*
X25270Y-10608D01*
X25301D01*
Y-9546D01*
X25301D01*
X25289Y-9500D01*
X25301Y-9454D01*
X25301D01*
Y-8464D01*
X25301Y-8422D01*
X25341Y-8391D01*
X25354Y-8386D01*
X25375Y-8377D01*
X25510Y-8461D01*
X25667Y-8525D01*
X25831Y-8565D01*
X26000Y-8578D01*
X26169Y-8565D01*
X26333Y-8525D01*
X26490Y-8461D01*
X26634Y-8372D01*
X26762Y-8262D01*
X26872Y-8134D01*
X26961Y-7989D01*
X27025Y-7833D01*
X27065Y-7669D01*
X27078Y-7500D01*
X27065Y-7331D01*
X27025Y-7167D01*
X26961Y-7011D01*
X26872Y-6866D01*
X26762Y-6738D01*
X26634Y-6628D01*
X26490Y-6539D01*
X26333Y-6475D01*
X26169Y-6435D01*
X26000Y-6422D01*
X25832Y-6435D01*
X25830Y-6433D01*
X25783Y-6364D01*
X25792Y-6351D01*
X25803Y-6300D01*
Y-5863D01*
X27253Y-4413D01*
X27940D01*
X27991Y-4402D01*
X28034Y-4374D01*
X28444Y-3964D01*
X28472Y-3921D01*
X28483Y-3870D01*
Y-3535D01*
X28568Y-3450D01*
X28594Y-3467D01*
X28680Y-3484D01*
X28766Y-3467D01*
X28839Y-3419D01*
X28887Y-3346D01*
X28904Y-3260D01*
X28887Y-3174D01*
X28839Y-3101D01*
X28766Y-3053D01*
X28765Y-3050D01*
X28767Y-3046D01*
X28784Y-2960D01*
X28783Y-2953D01*
X28848Y-2873D01*
X29427D01*
X29477Y-2862D01*
X29520Y-2834D01*
X29739Y-2615D01*
X29767Y-2572D01*
X29778Y-2522D01*
Y-1865D01*
X29767Y-1814D01*
X29739Y-1771D01*
X29508Y-1541D01*
X29514Y-1510D01*
X29497Y-1424D01*
X29449Y-1351D01*
X29442Y-1347D01*
Y-1251D01*
X29449Y-1246D01*
X29497Y-1173D01*
X29514Y-1087D01*
X29497Y-1002D01*
X29454Y-937D01*
X29497Y-873D01*
X29514Y-787D01*
X29497Y-702D01*
X29454Y-637D01*
X29497Y-573D01*
X29514Y-487D01*
X29497Y-402D01*
X29454Y-337D01*
X29497Y-273D01*
X29514Y-187D01*
X29497Y-102D01*
X29454Y-37D01*
X29497Y27D01*
X29514Y113D01*
X29497Y198D01*
X29454Y263D01*
X29497Y327D01*
X29514Y413D01*
X29497Y498D01*
X29454Y563D01*
X29497Y627D01*
X29514Y713D01*
X29508Y746D01*
X29714Y952D01*
X29742Y995D01*
X29753Y1046D01*
Y1499D01*
X29742Y1550D01*
X29714Y1593D01*
X29312Y1994D01*
X29323Y2097D01*
X29329Y2101D01*
X29377Y2174D01*
X29394Y2260D01*
X29377Y2346D01*
X29334Y2410D01*
X29377Y2474D01*
X29394Y2560D01*
X29377Y2646D01*
X29329Y2719D01*
X29256Y2767D01*
X29170Y2784D01*
X29084Y2767D01*
X29011Y2719D01*
X28963Y2646D01*
X28946Y2563D01*
X26672D01*
X26651Y2643D01*
X26762Y2738D01*
X26872Y2866D01*
X26961Y3011D01*
X27025Y3167D01*
X27065Y3331D01*
X27078Y3500D01*
X27065Y3669D01*
X27025Y3833D01*
X26961Y3990D01*
X26872Y4134D01*
X26762Y4262D01*
X26634Y4372D01*
X26490Y4461D01*
X26333Y4525D01*
X26169Y4565D01*
X26000Y4578D01*
X25831Y4565D01*
X25667Y4525D01*
X25510Y4461D01*
X25366Y4372D01*
X25238Y4262D01*
X25128Y4134D01*
X25039Y3990D01*
X24975Y3833D01*
X24935Y3669D01*
X24922Y3500D01*
X24935Y3331D01*
X24975Y3167D01*
X25039Y3011D01*
X25128Y2866D01*
X25238Y2738D01*
X25349Y2643D01*
X25328Y2563D01*
X24836D01*
X24827Y2606D01*
X24779Y2679D01*
X24706Y2727D01*
X24634Y2742D01*
X24617Y2826D01*
X24569Y2899D01*
X24496Y2947D01*
X24410Y2964D01*
X24324Y2947D01*
X24251Y2899D01*
X24248Y2894D01*
X24152D01*
X24149Y2899D01*
X24076Y2947D01*
X23990Y2964D01*
X23941Y2954D01*
X23900Y2963D01*
X23657D01*
X23608Y2995D01*
X23540Y3008D01*
X23040D01*
X22972Y2995D01*
X22923Y2963D01*
X22836D01*
X22819Y2989D01*
X22746Y3037D01*
X22664Y3054D01*
X22653Y3070D01*
X22627Y3129D01*
X22704Y3206D01*
X22732Y3249D01*
X22743Y3300D01*
Y3601D01*
X22762Y3619D01*
X22823Y3654D01*
X22853Y3647D01*
X23627D01*
X23678Y3658D01*
X23721Y3686D01*
X23807Y3772D01*
X23840Y3766D01*
X23926Y3783D01*
X23999Y3831D01*
X24047Y3904D01*
X24064Y3990D01*
X24047Y4076D01*
X23999Y4149D01*
X23926Y4197D01*
X23840Y4214D01*
X23796Y4206D01*
X23757Y4279D01*
X24463Y4986D01*
X24562Y4971D01*
X24581Y4941D01*
X24654Y4893D01*
X24740Y4876D01*
X24826Y4893D01*
X24878Y4927D01*
X25730D01*
X25780Y4938D01*
X25823Y4966D01*
X25985Y5127D01*
X30545D01*
X31992Y3681D01*
X31986Y3650D01*
X32003Y3564D01*
X32051Y3491D01*
X32124Y3443D01*
X32210Y3426D01*
X32296Y3443D01*
X32369Y3491D01*
X32417Y3564D01*
X32432Y3638D01*
X32435Y3651D01*
X32501Y3726D01*
X32536Y3733D01*
X32580Y3763D01*
X32621Y3701D01*
X32694Y3653D01*
X32780Y3636D01*
X32866Y3653D01*
X32939Y3701D01*
X32987Y3774D01*
X33004Y3860D01*
X32987Y3946D01*
X32939Y4019D01*
X32866Y4067D01*
X32793Y4082D01*
X32521Y4354D01*
X32478Y4382D01*
X32427Y4393D01*
X31995D01*
X30974Y5414D01*
X31004Y5487D01*
X35330D01*
X35381Y5498D01*
X35424Y5526D01*
X35516Y5618D01*
X35578Y5567D01*
X35565Y5548D01*
X35553Y5490D01*
X35528Y5451D01*
X35517Y5400D01*
Y3816D01*
X35491Y3799D01*
X35443Y3726D01*
X35426Y3640D01*
X35443Y3554D01*
X35491Y3481D01*
X35564Y3433D01*
X35650Y3416D01*
X35736Y3433D01*
X35809Y3481D01*
X35855Y3551D01*
X35930Y3536D01*
X36016Y3553D01*
X36089Y3601D01*
X36135Y3671D01*
X36210Y3656D01*
X36296Y3673D01*
X36369Y3721D01*
X36415Y3791D01*
X36490Y3776D01*
X36576Y3793D01*
X36649Y3841D01*
X36697Y3914D01*
X36714Y4000D01*
X36697Y4086D01*
X36649Y4159D01*
X36623Y4176D01*
Y4868D01*
X37040Y5285D01*
X37097Y5297D01*
X37155Y5335D01*
X37503Y5684D01*
X37542Y5742D01*
X37553Y5799D01*
X37774Y6019D01*
X37802Y6062D01*
X37813Y6113D01*
Y6232D01*
X37816Y6233D01*
X37889Y6281D01*
X37937Y6354D01*
X37954Y6440D01*
X37937Y6526D01*
X37889Y6599D01*
X37851Y6624D01*
X37834Y6719D01*
X37894Y6779D01*
X37922Y6822D01*
X37933Y6873D01*
Y8010D01*
X37922Y8060D01*
X37894Y8103D01*
X37703Y8294D01*
X37660Y8322D01*
X37610Y8333D01*
X37251D01*
X37180Y8354D01*
X37174Y8413D01*
X37182Y8414D01*
X37226Y8423D01*
X37299Y8471D01*
X37347Y8544D01*
X37364Y8630D01*
X37347Y8716D01*
X37299Y8789D01*
X37226Y8837D01*
X37140Y8854D01*
X37054Y8837D01*
X36981Y8789D01*
X36933Y8716D01*
X36916Y8630D01*
X36933Y8544D01*
X36981Y8471D01*
X37054Y8423D01*
X37098Y8414D01*
X37106Y8413D01*
X37100Y8354D01*
X37029Y8333D01*
X36192D01*
X36121Y8404D01*
X36078Y8432D01*
X36027Y8443D01*
X35965D01*
X35949Y8523D01*
X35989Y8539D01*
X36134Y8628D01*
X36262Y8738D01*
X36372Y8866D01*
X36461Y9011D01*
X36525Y9167D01*
X36565Y9331D01*
X36578Y9500D01*
X36565Y9669D01*
X36525Y9833D01*
X36461Y9989D01*
X36372Y10134D01*
X36262Y10262D01*
X36134Y10372D01*
X35989Y10461D01*
X35833Y10525D01*
X35669Y10565D01*
X35500Y10578D01*
D02*
G37*
G36*
X23950Y11950D02*
X23608D01*
X23615Y11897D01*
X23655Y11801D01*
X23718Y11718D01*
X23801Y11655D01*
X23897Y11615D01*
X23950Y11608D01*
Y11950D01*
D02*
G37*
G36*
X26950D02*
X26608D01*
X26615Y11897D01*
X26655Y11801D01*
X26718Y11718D01*
X26801Y11655D01*
X26897Y11615D01*
X26950Y11608D01*
Y11950D01*
D02*
G37*
G36*
X27950D02*
X27608D01*
X27615Y11897D01*
X27655Y11801D01*
X27718Y11718D01*
X27801Y11655D01*
X27897Y11615D01*
X27950Y11608D01*
Y11950D01*
D02*
G37*
G36*
X20950D02*
X20608D01*
X20615Y11897D01*
X20655Y11801D01*
X20718Y11718D01*
X20801Y11655D01*
X20897Y11615D01*
X20950Y11608D01*
Y11950D01*
D02*
G37*
G36*
X21950D02*
X21608D01*
X21615Y11897D01*
X21655Y11801D01*
X21718Y11718D01*
X21801Y11655D01*
X21897Y11615D01*
X21950Y11608D01*
Y11950D01*
D02*
G37*
G36*
X22950D02*
X22608D01*
X22615Y11897D01*
X22655Y11801D01*
X22718Y11718D01*
X22801Y11655D01*
X22897Y11615D01*
X22950Y11608D01*
Y11950D01*
D02*
G37*
G36*
X31950D02*
X31608D01*
X31615Y11897D01*
X31655Y11801D01*
X31718Y11718D01*
X31801Y11655D01*
X31897Y11615D01*
X31950Y11608D01*
Y11950D01*
D02*
G37*
G36*
X32950D02*
X32608D01*
X32615Y11897D01*
X32655Y11801D01*
X32718Y11718D01*
X32801Y11655D01*
X32897Y11615D01*
X32950Y11608D01*
Y11950D01*
D02*
G37*
G36*
X7792D02*
X7450D01*
Y11608D01*
X7503Y11615D01*
X7599Y11655D01*
X7682Y11718D01*
X7745Y11801D01*
X7785Y11897D01*
X7792Y11950D01*
D02*
G37*
G36*
X28950D02*
X28608D01*
X28615Y11897D01*
X28655Y11801D01*
X28718Y11718D01*
X28801Y11655D01*
X28897Y11615D01*
X28950Y11608D01*
Y11950D01*
D02*
G37*
G36*
X29950D02*
X29608D01*
X29615Y11897D01*
X29655Y11801D01*
X29718Y11718D01*
X29801Y11655D01*
X29897Y11615D01*
X29950Y11608D01*
Y11950D01*
D02*
G37*
G36*
X30950D02*
X30608D01*
X30615Y11897D01*
X30655Y11801D01*
X30718Y11718D01*
X30801Y11655D01*
X30897Y11615D01*
X30950Y11608D01*
Y11950D01*
D02*
G37*
G36*
X10350D02*
X10008D01*
X10015Y11897D01*
X10055Y11801D01*
X10118Y11718D01*
X10201Y11655D01*
X10297Y11615D01*
X10350Y11608D01*
Y11950D01*
D02*
G37*
G36*
X11350D02*
X11008D01*
X11015Y11897D01*
X11055Y11801D01*
X11118Y11718D01*
X11201Y11655D01*
X11297Y11615D01*
X11350Y11608D01*
Y11950D01*
D02*
G37*
G36*
X12350D02*
X12008D01*
X12015Y11897D01*
X12055Y11801D01*
X12118Y11718D01*
X12201Y11655D01*
X12297Y11615D01*
X12350Y11608D01*
Y11950D01*
D02*
G37*
G36*
X7350D02*
X7008D01*
X7015Y11897D01*
X7055Y11801D01*
X7118Y11718D01*
X7201Y11655D01*
X7297Y11615D01*
X7350Y11608D01*
Y11950D01*
D02*
G37*
G36*
X8350D02*
X8008D01*
X8015Y11897D01*
X8055Y11801D01*
X8118Y11718D01*
X8201Y11655D01*
X8297Y11615D01*
X8350Y11608D01*
Y11950D01*
D02*
G37*
G36*
X9350D02*
X9008D01*
X9015Y11897D01*
X9055Y11801D01*
X9118Y11718D01*
X9201Y11655D01*
X9297Y11615D01*
X9350Y11608D01*
Y11950D01*
D02*
G37*
G36*
X17950D02*
X17608D01*
X17615Y11897D01*
X17655Y11801D01*
X17718Y11718D01*
X17801Y11655D01*
X17897Y11615D01*
X17950Y11608D01*
Y11950D01*
D02*
G37*
G36*
X18950D02*
X18608D01*
X18615Y11897D01*
X18655Y11801D01*
X18718Y11718D01*
X18801Y11655D01*
X18897Y11615D01*
X18950Y11608D01*
Y11950D01*
D02*
G37*
G36*
X19950D02*
X19608D01*
X19615Y11897D01*
X19655Y11801D01*
X19718Y11718D01*
X19801Y11655D01*
X19897Y11615D01*
X19950Y11608D01*
Y11950D01*
D02*
G37*
G36*
X13350D02*
X13008D01*
X13015Y11897D01*
X13055Y11801D01*
X13118Y11718D01*
X13201Y11655D01*
X13297Y11615D01*
X13350Y11608D01*
Y11950D01*
D02*
G37*
G36*
X14350D02*
X14008D01*
X14015Y11897D01*
X14055Y11801D01*
X14118Y11718D01*
X14201Y11655D01*
X14297Y11615D01*
X14350Y11608D01*
Y11950D01*
D02*
G37*
G36*
X15350D02*
X15008D01*
X15015Y11897D01*
X15055Y11801D01*
X15118Y11718D01*
X15201Y11655D01*
X15297Y11615D01*
X15350Y11608D01*
Y11950D01*
D02*
G37*
G36*
X27392D02*
X27050D01*
Y11608D01*
X27103Y11615D01*
X27199Y11655D01*
X27282Y11718D01*
X27345Y11801D01*
X27385Y11897D01*
X27392Y11950D01*
D02*
G37*
G36*
X28392D02*
X28050D01*
Y11608D01*
X28103Y11615D01*
X28199Y11655D01*
X28282Y11718D01*
X28345Y11801D01*
X28385Y11897D01*
X28392Y11950D01*
D02*
G37*
G36*
X29392D02*
X29050D01*
Y11608D01*
X29103Y11615D01*
X29199Y11655D01*
X29282Y11718D01*
X29345Y11801D01*
X29385Y11897D01*
X29392Y11950D01*
D02*
G37*
G36*
X22392D02*
X22050D01*
Y11608D01*
X22103Y11615D01*
X22199Y11655D01*
X22282Y11718D01*
X22345Y11801D01*
X22385Y11897D01*
X22392Y11950D01*
D02*
G37*
G36*
X23392D02*
X23050D01*
Y11608D01*
X23103Y11615D01*
X23199Y11655D01*
X23282Y11718D01*
X23345Y11801D01*
X23385Y11897D01*
X23392Y11950D01*
D02*
G37*
G36*
X24392D02*
X24050D01*
Y11608D01*
X24103Y11615D01*
X24199Y11655D01*
X24282Y11718D01*
X24345Y11801D01*
X24385Y11897D01*
X24392Y11950D01*
D02*
G37*
G36*
X33392D02*
X33050D01*
Y11608D01*
X33103Y11615D01*
X33199Y11655D01*
X33282Y11718D01*
X33345Y11801D01*
X33385Y11897D01*
X33392Y11950D01*
D02*
G37*
G36*
X1450Y12142D02*
X1397Y12135D01*
X1301Y12095D01*
X1218Y12032D01*
X1155Y11949D01*
X1115Y11853D01*
X1108Y11800D01*
X1450D01*
Y12142D01*
D02*
G37*
G36*
X1550D02*
Y11800D01*
X1892D01*
X1885Y11853D01*
X1845Y11949D01*
X1782Y12032D01*
X1699Y12095D01*
X1603Y12135D01*
X1550Y12142D01*
D02*
G37*
G36*
X30392Y11950D02*
X30050D01*
Y11608D01*
X30103Y11615D01*
X30199Y11655D01*
X30282Y11718D01*
X30345Y11801D01*
X30385Y11897D01*
X30392Y11950D01*
D02*
G37*
G36*
X31392D02*
X31050D01*
Y11608D01*
X31103Y11615D01*
X31199Y11655D01*
X31282Y11718D01*
X31345Y11801D01*
X31385Y11897D01*
X31392Y11950D01*
D02*
G37*
G36*
X32392D02*
X32050D01*
Y11608D01*
X32103Y11615D01*
X32199Y11655D01*
X32282Y11718D01*
X32345Y11801D01*
X32385Y11897D01*
X32392Y11950D01*
D02*
G37*
G36*
X11792D02*
X11450D01*
Y11608D01*
X11503Y11615D01*
X11599Y11655D01*
X11682Y11718D01*
X11745Y11801D01*
X11785Y11897D01*
X11792Y11950D01*
D02*
G37*
G36*
X12792D02*
X12450D01*
Y11608D01*
X12503Y11615D01*
X12599Y11655D01*
X12682Y11718D01*
X12745Y11801D01*
X12785Y11897D01*
X12792Y11950D01*
D02*
G37*
G36*
X13792D02*
X13450D01*
Y11608D01*
X13503Y11615D01*
X13599Y11655D01*
X13682Y11718D01*
X13745Y11801D01*
X13785Y11897D01*
X13792Y11950D01*
D02*
G37*
G36*
X8792D02*
X8450D01*
Y11608D01*
X8503Y11615D01*
X8599Y11655D01*
X8682Y11718D01*
X8745Y11801D01*
X8785Y11897D01*
X8792Y11950D01*
D02*
G37*
G36*
X9792D02*
X9450D01*
Y11608D01*
X9503Y11615D01*
X9599Y11655D01*
X9682Y11718D01*
X9745Y11801D01*
X9785Y11897D01*
X9792Y11950D01*
D02*
G37*
G36*
X10792D02*
X10450D01*
Y11608D01*
X10503Y11615D01*
X10599Y11655D01*
X10682Y11718D01*
X10745Y11801D01*
X10785Y11897D01*
X10792Y11950D01*
D02*
G37*
G36*
X19392D02*
X19050D01*
Y11608D01*
X19103Y11615D01*
X19199Y11655D01*
X19282Y11718D01*
X19345Y11801D01*
X19385Y11897D01*
X19392Y11950D01*
D02*
G37*
G36*
X20392D02*
X20050D01*
Y11608D01*
X20103Y11615D01*
X20199Y11655D01*
X20282Y11718D01*
X20345Y11801D01*
X20385Y11897D01*
X20392Y11950D01*
D02*
G37*
G36*
X21392D02*
X21050D01*
Y11608D01*
X21103Y11615D01*
X21199Y11655D01*
X21282Y11718D01*
X21345Y11801D01*
X21385Y11897D01*
X21392Y11950D01*
D02*
G37*
G36*
X14792D02*
X14450D01*
Y11608D01*
X14503Y11615D01*
X14599Y11655D01*
X14682Y11718D01*
X14745Y11801D01*
X14785Y11897D01*
X14792Y11950D01*
D02*
G37*
G36*
X15792D02*
X15450D01*
Y11608D01*
X15503Y11615D01*
X15599Y11655D01*
X15682Y11718D01*
X15745Y11801D01*
X15785Y11897D01*
X15792Y11950D01*
D02*
G37*
G36*
X18392D02*
X18050D01*
Y11608D01*
X18103Y11615D01*
X18199Y11655D01*
X18282Y11718D01*
X18345Y11801D01*
X18385Y11897D01*
X18392Y11950D01*
D02*
G37*
G36*
X20000Y11399D02*
X19897Y11385D01*
X19801Y11345D01*
X19718Y11282D01*
X19655Y11199D01*
X19615Y11103D01*
X19601Y11000D01*
X19615Y10897D01*
X19655Y10801D01*
X19718Y10718D01*
X19757Y10688D01*
X19730Y10608D01*
X19699D01*
Y9546D01*
X19699D01*
X19711Y9500D01*
X19699Y9454D01*
X19699D01*
Y8392D01*
X20301D01*
Y9454D01*
X20301D01*
X20289Y9500D01*
X20301Y9546D01*
X20301D01*
Y10608D01*
X20270D01*
X20243Y10688D01*
X20282Y10718D01*
X20345Y10801D01*
X20385Y10897D01*
X20399Y11000D01*
X20385Y11103D01*
X20345Y11199D01*
X20282Y11282D01*
X20199Y11345D01*
X20103Y11385D01*
X20000Y11399D01*
D02*
G37*
G36*
X21000D02*
X20897Y11385D01*
X20801Y11345D01*
X20718Y11282D01*
X20655Y11199D01*
X20615Y11103D01*
X20601Y11000D01*
X20615Y10897D01*
X20655Y10801D01*
X20718Y10718D01*
X20757Y10688D01*
X20730Y10608D01*
X20699D01*
Y9546D01*
X20699D01*
X20711Y9500D01*
X20699Y9454D01*
X20699D01*
Y8392D01*
X21301D01*
Y9454D01*
X21301D01*
X21289Y9500D01*
X21301Y9546D01*
X21301D01*
Y10608D01*
X21270D01*
X21243Y10688D01*
X21282Y10718D01*
X21345Y10801D01*
X21385Y10897D01*
X21399Y11000D01*
X21385Y11103D01*
X21345Y11199D01*
X21282Y11282D01*
X21199Y11345D01*
X21103Y11385D01*
X21000Y11399D01*
D02*
G37*
G36*
X19000D02*
X18897Y11385D01*
X18801Y11345D01*
X18718Y11282D01*
X18655Y11199D01*
X18615Y11103D01*
X18601Y11000D01*
X18615Y10897D01*
X18655Y10801D01*
X18718Y10718D01*
X18757Y10688D01*
X18730Y10608D01*
X18699D01*
Y9546D01*
X18699D01*
X18711Y9500D01*
X18699Y9454D01*
X18699D01*
Y8392D01*
X19301D01*
Y9454D01*
X19301D01*
X19289Y9500D01*
X19301Y9546D01*
X19301D01*
Y10608D01*
X19270D01*
X19243Y10688D01*
X19282Y10718D01*
X19345Y10801D01*
X19385Y10897D01*
X19399Y11000D01*
X19385Y11103D01*
X19345Y11199D01*
X19282Y11282D01*
X19199Y11345D01*
X19103Y11385D01*
X19000Y11399D01*
D02*
G37*
G36*
X16400D02*
X16297Y11385D01*
X16201Y11345D01*
X16118Y11282D01*
X16055Y11199D01*
X16015Y11103D01*
X16001Y11000D01*
X16015Y10897D01*
X16055Y10801D01*
X16118Y10718D01*
X16157Y10688D01*
X16130Y10608D01*
X16099D01*
Y9546D01*
X16099D01*
X16111Y9500D01*
X16099Y9454D01*
X16099D01*
Y8392D01*
X16701D01*
Y9454D01*
X16701D01*
X16689Y9500D01*
X16701Y9546D01*
X16701D01*
Y10608D01*
X16670D01*
X16643Y10688D01*
X16682Y10718D01*
X16745Y10801D01*
X16785Y10897D01*
X16799Y11000D01*
X16785Y11103D01*
X16745Y11199D01*
X16682Y11282D01*
X16599Y11345D01*
X16503Y11385D01*
X16400Y11399D01*
D02*
G37*
G36*
X18000D02*
X17897Y11385D01*
X17801Y11345D01*
X17718Y11282D01*
X17655Y11199D01*
X17615Y11103D01*
X17601Y11000D01*
X17615Y10897D01*
X17655Y10801D01*
X17718Y10718D01*
X17757Y10688D01*
X17730Y10608D01*
X17699D01*
Y9546D01*
X17699D01*
X17711Y9500D01*
X17699Y9454D01*
X17699D01*
Y8392D01*
X18301D01*
Y9454D01*
X18301D01*
X18289Y9500D01*
X18301Y9546D01*
X18301D01*
Y10608D01*
X18270D01*
X18243Y10688D01*
X18282Y10718D01*
X18345Y10801D01*
X18385Y10897D01*
X18399Y11000D01*
X18385Y11103D01*
X18345Y11199D01*
X18282Y11282D01*
X18199Y11345D01*
X18103Y11385D01*
X18000Y11399D01*
D02*
G37*
G36*
X22000D02*
X21897Y11385D01*
X21801Y11345D01*
X21718Y11282D01*
X21655Y11199D01*
X21615Y11103D01*
X21601Y11000D01*
X21615Y10897D01*
X21655Y10801D01*
X21718Y10718D01*
X21757Y10688D01*
X21730Y10608D01*
X21699D01*
Y9546D01*
X21699D01*
X21711Y9500D01*
X21699Y9454D01*
X21699D01*
Y8392D01*
X22301D01*
Y9454D01*
X22301D01*
X22289Y9500D01*
X22301Y9546D01*
X22301D01*
Y10608D01*
X22270D01*
X22243Y10688D01*
X22282Y10718D01*
X22345Y10801D01*
X22385Y10897D01*
X22399Y11000D01*
X22385Y11103D01*
X22345Y11199D01*
X22282Y11282D01*
X22199Y11345D01*
X22103Y11385D01*
X22000Y11399D01*
D02*
G37*
G36*
X27000D02*
X26897Y11385D01*
X26801Y11345D01*
X26718Y11282D01*
X26655Y11199D01*
X26615Y11103D01*
X26601Y11000D01*
X26615Y10897D01*
X26655Y10801D01*
X26718Y10718D01*
X26757Y10688D01*
X26730Y10608D01*
X26699D01*
Y9546D01*
X26699D01*
X26711Y9500D01*
X26699Y9454D01*
X26699D01*
Y8392D01*
X27301D01*
Y9454D01*
X27301D01*
X27289Y9500D01*
X27301Y9546D01*
X27301D01*
Y10608D01*
X27270D01*
X27243Y10688D01*
X27282Y10718D01*
X27345Y10801D01*
X27385Y10897D01*
X27399Y11000D01*
X27385Y11103D01*
X27345Y11199D01*
X27282Y11282D01*
X27199Y11345D01*
X27103Y11385D01*
X27000Y11399D01*
D02*
G37*
G36*
X28000D02*
X27897Y11385D01*
X27801Y11345D01*
X27718Y11282D01*
X27655Y11199D01*
X27615Y11103D01*
X27601Y11000D01*
X27615Y10897D01*
X27655Y10801D01*
X27718Y10718D01*
X27757Y10688D01*
X27730Y10608D01*
X27699D01*
Y9546D01*
X27699D01*
X27711Y9500D01*
X27699Y9454D01*
X27699D01*
Y8392D01*
X28301D01*
Y9454D01*
X28301D01*
X28289Y9500D01*
X28301Y9546D01*
X28301D01*
Y10608D01*
X28270D01*
X28243Y10688D01*
X28282Y10718D01*
X28345Y10801D01*
X28385Y10897D01*
X28399Y11000D01*
X28385Y11103D01*
X28345Y11199D01*
X28282Y11282D01*
X28199Y11345D01*
X28103Y11385D01*
X28000Y11399D01*
D02*
G37*
G36*
X25000D02*
X24897Y11385D01*
X24801Y11345D01*
X24718Y11282D01*
X24655Y11199D01*
X24615Y11103D01*
X24601Y11000D01*
X24615Y10897D01*
X24655Y10801D01*
X24718Y10718D01*
X24757Y10688D01*
X24730Y10608D01*
X24699D01*
Y9546D01*
X24699D01*
X24711Y9500D01*
X24699Y9454D01*
X24699D01*
Y8392D01*
X25301D01*
Y9454D01*
X25301D01*
X25289Y9500D01*
X25301Y9546D01*
X25301D01*
Y10608D01*
X25270D01*
X25243Y10688D01*
X25282Y10718D01*
X25345Y10801D01*
X25385Y10897D01*
X25399Y11000D01*
X25385Y11103D01*
X25345Y11199D01*
X25282Y11282D01*
X25199Y11345D01*
X25103Y11385D01*
X25000Y11399D01*
D02*
G37*
G36*
X23000D02*
X22897Y11385D01*
X22801Y11345D01*
X22718Y11282D01*
X22655Y11199D01*
X22615Y11103D01*
X22601Y11000D01*
X22615Y10897D01*
X22655Y10801D01*
X22718Y10718D01*
X22757Y10688D01*
X22730Y10608D01*
X22699D01*
Y9546D01*
X22699D01*
X22711Y9500D01*
X22699Y9454D01*
X22699D01*
Y8392D01*
X23301D01*
Y9454D01*
X23301D01*
X23289Y9500D01*
X23301Y9546D01*
X23301D01*
Y10608D01*
X23270D01*
X23243Y10688D01*
X23282Y10718D01*
X23345Y10801D01*
X23385Y10897D01*
X23399Y11000D01*
X23385Y11103D01*
X23345Y11199D01*
X23282Y11282D01*
X23199Y11345D01*
X23103Y11385D01*
X23000Y11399D01*
D02*
G37*
G36*
X24000D02*
X23897Y11385D01*
X23801Y11345D01*
X23718Y11282D01*
X23655Y11199D01*
X23615Y11103D01*
X23601Y11000D01*
X23615Y10897D01*
X23655Y10801D01*
X23718Y10718D01*
X23757Y10688D01*
X23730Y10608D01*
X23699D01*
Y9546D01*
X23699D01*
X23711Y9500D01*
X23699Y9454D01*
X23699D01*
Y8392D01*
X24301D01*
Y9454D01*
X24301D01*
X24289Y9500D01*
X24301Y9546D01*
X24301D01*
Y10608D01*
X24270D01*
X24243Y10688D01*
X24282Y10718D01*
X24345Y10801D01*
X24385Y10897D01*
X24399Y11000D01*
X24385Y11103D01*
X24345Y11199D01*
X24282Y11282D01*
X24199Y11345D01*
X24103Y11385D01*
X24000Y11399D01*
D02*
G37*
G36*
X9400D02*
X9297Y11385D01*
X9201Y11345D01*
X9118Y11282D01*
X9055Y11199D01*
X9015Y11103D01*
X9001Y11000D01*
X9015Y10897D01*
X9055Y10801D01*
X9118Y10718D01*
X9157Y10688D01*
X9130Y10608D01*
X9099D01*
Y9546D01*
X9099D01*
X9111Y9500D01*
X9099Y9454D01*
X9099D01*
Y8392D01*
X9701D01*
Y9454D01*
X9701D01*
X9689Y9500D01*
X9701Y9546D01*
X9701D01*
Y10608D01*
X9670D01*
X9643Y10688D01*
X9682Y10718D01*
X9745Y10801D01*
X9785Y10897D01*
X9799Y11000D01*
X9785Y11103D01*
X9745Y11199D01*
X9682Y11282D01*
X9599Y11345D01*
X9503Y11385D01*
X9400Y11399D01*
D02*
G37*
G36*
X10350Y8873D02*
X10099D01*
Y8392D01*
X10350D01*
Y8873D01*
D02*
G37*
G36*
X8400Y11399D02*
X8297Y11385D01*
X8201Y11345D01*
X8118Y11282D01*
X8055Y11199D01*
X8015Y11103D01*
X8001Y11000D01*
X8015Y10897D01*
X8055Y10801D01*
X8118Y10718D01*
X8157Y10688D01*
X8130Y10608D01*
X8099D01*
Y9546D01*
X8099D01*
X8111Y9500D01*
X8099Y9454D01*
X8099D01*
Y8392D01*
X8701D01*
Y9454D01*
X8701D01*
X8689Y9500D01*
X8701Y9546D01*
X8701D01*
Y10608D01*
X8670D01*
X8643Y10688D01*
X8682Y10718D01*
X8745Y10801D01*
X8785Y10897D01*
X8799Y11000D01*
X8785Y11103D01*
X8745Y11199D01*
X8682Y11282D01*
X8599Y11345D01*
X8503Y11385D01*
X8400Y11399D01*
D02*
G37*
G36*
X7400Y7034D02*
X7314Y7017D01*
X7241Y6969D01*
X7193Y6896D01*
X7176Y6810D01*
X7193Y6724D01*
X7241Y6651D01*
X7314Y6603D01*
X7400Y6586D01*
X7486Y6603D01*
X7559Y6651D01*
X7607Y6724D01*
X7624Y6810D01*
X7607Y6896D01*
X7559Y6969D01*
X7486Y7017D01*
X7400Y7034D01*
D02*
G37*
G36*
X5610Y8324D02*
X5524Y8307D01*
X5451Y8259D01*
X5403Y8186D01*
X5386Y8100D01*
X5403Y8014D01*
X5451Y7941D01*
X5524Y7893D01*
X5610Y7876D01*
X5696Y7893D01*
X5769Y7941D01*
X5817Y8014D01*
X5834Y8100D01*
X5817Y8186D01*
X5769Y8259D01*
X5696Y8307D01*
X5610Y8324D01*
D02*
G37*
G36*
X10701Y8873D02*
X10450D01*
Y8392D01*
X10701D01*
Y8873D01*
D02*
G37*
G36*
X14400Y11399D02*
X14297Y11385D01*
X14201Y11345D01*
X14118Y11282D01*
X14055Y11199D01*
X14015Y11103D01*
X14001Y11000D01*
X14015Y10897D01*
X14055Y10801D01*
X14118Y10718D01*
X14157Y10688D01*
X14130Y10608D01*
X14099D01*
Y9546D01*
X14099D01*
X14111Y9500D01*
X14099Y9454D01*
X14099D01*
Y8392D01*
X14701D01*
Y9454D01*
X14701D01*
X14689Y9500D01*
X14701Y9546D01*
X14701D01*
Y10608D01*
X14670D01*
X14643Y10688D01*
X14682Y10718D01*
X14745Y10801D01*
X14785Y10897D01*
X14799Y11000D01*
X14785Y11103D01*
X14745Y11199D01*
X14682Y11282D01*
X14599Y11345D01*
X14503Y11385D01*
X14400Y11399D01*
D02*
G37*
G36*
X15400D02*
X15297Y11385D01*
X15201Y11345D01*
X15118Y11282D01*
X15055Y11199D01*
X15015Y11103D01*
X15001Y11000D01*
X15015Y10897D01*
X15055Y10801D01*
X15118Y10718D01*
X15157Y10688D01*
X15130Y10608D01*
X15099D01*
Y9546D01*
X15099D01*
X15111Y9500D01*
X15099Y9454D01*
X15099D01*
Y8392D01*
X15701D01*
Y9454D01*
X15701D01*
X15689Y9500D01*
X15701Y9546D01*
X15701D01*
Y10608D01*
X15670D01*
X15643Y10688D01*
X15682Y10718D01*
X15745Y10801D01*
X15785Y10897D01*
X15799Y11000D01*
X15785Y11103D01*
X15745Y11199D01*
X15682Y11282D01*
X15599Y11345D01*
X15503Y11385D01*
X15400Y11399D01*
D02*
G37*
G36*
X13400D02*
X13297Y11385D01*
X13201Y11345D01*
X13118Y11282D01*
X13055Y11199D01*
X13015Y11103D01*
X13001Y11000D01*
X13015Y10897D01*
X13055Y10801D01*
X13118Y10718D01*
X13157Y10688D01*
X13130Y10608D01*
X13099D01*
Y9546D01*
X13099D01*
X13111Y9500D01*
X13099Y9454D01*
X13099D01*
Y8392D01*
X13701D01*
Y9454D01*
X13701D01*
X13689Y9500D01*
X13701Y9546D01*
X13701D01*
Y10608D01*
X13670D01*
X13643Y10688D01*
X13682Y10718D01*
X13745Y10801D01*
X13785Y10897D01*
X13799Y11000D01*
X13785Y11103D01*
X13745Y11199D01*
X13682Y11282D01*
X13599Y11345D01*
X13503Y11385D01*
X13400Y11399D01*
D02*
G37*
G36*
X11400D02*
X11297Y11385D01*
X11201Y11345D01*
X11118Y11282D01*
X11055Y11199D01*
X11015Y11103D01*
X11001Y11000D01*
X11015Y10897D01*
X11055Y10801D01*
X11118Y10718D01*
X11157Y10688D01*
X11130Y10608D01*
X11099D01*
Y9546D01*
X11099D01*
X11111Y9500D01*
X11099Y9454D01*
X11099D01*
Y8392D01*
X11701D01*
Y9454D01*
X11701D01*
X11689Y9500D01*
X11701Y9546D01*
X11701D01*
Y10608D01*
X11670D01*
X11643Y10688D01*
X11682Y10718D01*
X11745Y10801D01*
X11785Y10897D01*
X11799Y11000D01*
X11785Y11103D01*
X11745Y11199D01*
X11682Y11282D01*
X11599Y11345D01*
X11503Y11385D01*
X11400Y11399D01*
D02*
G37*
G36*
X12400D02*
X12297Y11385D01*
X12201Y11345D01*
X12118Y11282D01*
X12055Y11199D01*
X12015Y11103D01*
X12001Y11000D01*
X12015Y10897D01*
X12055Y10801D01*
X12118Y10718D01*
X12157Y10688D01*
X12130Y10608D01*
X12099D01*
Y9546D01*
X12099D01*
X12111Y9500D01*
X12099Y9454D01*
X12099D01*
Y8392D01*
X12701D01*
Y9454D01*
X12701D01*
X12689Y9500D01*
X12701Y9546D01*
X12701D01*
Y10608D01*
X12670D01*
X12643Y10688D01*
X12682Y10718D01*
X12745Y10801D01*
X12785Y10897D01*
X12799Y11000D01*
X12785Y11103D01*
X12745Y11199D01*
X12682Y11282D01*
X12599Y11345D01*
X12503Y11385D01*
X12400Y11399D01*
D02*
G37*
G36*
X29000D02*
X28897Y11385D01*
X28801Y11345D01*
X28718Y11282D01*
X28655Y11199D01*
X28615Y11103D01*
X28601Y11000D01*
X28615Y10897D01*
X28655Y10801D01*
X28718Y10718D01*
X28757Y10688D01*
X28730Y10608D01*
X28699D01*
Y9546D01*
X28699D01*
X28711Y9500D01*
X28699Y9454D01*
X28699D01*
Y8392D01*
X29301D01*
Y9454D01*
X29301D01*
X29289Y9500D01*
X29301Y9546D01*
X29301D01*
Y10608D01*
X29270D01*
X29243Y10688D01*
X29282Y10718D01*
X29345Y10801D01*
X29385Y10897D01*
X29399Y11000D01*
X29385Y11103D01*
X29345Y11199D01*
X29282Y11282D01*
X29199Y11345D01*
X29103Y11385D01*
X29000Y11399D01*
D02*
G37*
G36*
X1450Y11700D02*
X1108D01*
X1115Y11647D01*
X1155Y11551D01*
X1218Y11468D01*
X1301Y11405D01*
X1397Y11365D01*
X1450Y11358D01*
Y11700D01*
D02*
G37*
G36*
X1892D02*
X1550D01*
Y11358D01*
X1603Y11365D01*
X1699Y11405D01*
X1782Y11468D01*
X1845Y11551D01*
X1885Y11647D01*
X1892Y11700D01*
D02*
G37*
G36*
X10450Y11392D02*
Y11050D01*
X10792D01*
X10785Y11103D01*
X10745Y11199D01*
X10682Y11282D01*
X10599Y11345D01*
X10503Y11385D01*
X10450Y11392D01*
D02*
G37*
G36*
X10792Y10950D02*
X10400D01*
X10008D01*
X10015Y10897D01*
X10055Y10801D01*
X10118Y10718D01*
X10157Y10688D01*
X10130Y10608D01*
X10099D01*
Y10127D01*
X10400D01*
X10701D01*
Y10608D01*
X10670D01*
X10643Y10688D01*
X10682Y10718D01*
X10745Y10801D01*
X10785Y10897D01*
X10792Y10950D01*
D02*
G37*
G36*
X10350Y11392D02*
X10297Y11385D01*
X10201Y11345D01*
X10118Y11282D01*
X10055Y11199D01*
X10015Y11103D01*
X10008Y11050D01*
X10350D01*
Y11392D01*
D02*
G37*
G36*
X16350Y11950D02*
X16005D01*
Y11605D01*
X16350D01*
Y11950D01*
D02*
G37*
G36*
X33950D02*
X33605D01*
Y11605D01*
X33950D01*
Y11950D01*
D02*
G37*
G36*
X34395D02*
X34050D01*
Y11605D01*
X34395D01*
Y11950D01*
D02*
G37*
G36*
X25395D02*
X25050D01*
Y11605D01*
X25395D01*
Y11950D01*
D02*
G37*
G36*
X16795D02*
X16450D01*
Y11605D01*
X16795D01*
Y11950D01*
D02*
G37*
G36*
X24950D02*
X24605D01*
Y11605D01*
X24950D01*
Y11950D01*
D02*
G37*
G36*
X33000Y11399D02*
X32897Y11385D01*
X32801Y11345D01*
X32718Y11282D01*
X32655Y11199D01*
X32615Y11103D01*
X32601Y11000D01*
X32615Y10897D01*
X32655Y10801D01*
X32718Y10718D01*
X32757Y10688D01*
X32730Y10608D01*
X32699D01*
Y9546D01*
X32699D01*
X32711Y9500D01*
X32699Y9454D01*
X32699D01*
Y8392D01*
X33301D01*
Y9454D01*
X33301D01*
X33289Y9500D01*
X33301Y9546D01*
X33301D01*
Y10608D01*
X33270D01*
X33243Y10688D01*
X33282Y10718D01*
X33345Y10801D01*
X33385Y10897D01*
X33399Y11000D01*
X33385Y11103D01*
X33345Y11199D01*
X33282Y11282D01*
X33199Y11345D01*
X33103Y11385D01*
X33000Y11399D01*
D02*
G37*
G36*
X34000D02*
X33897Y11385D01*
X33801Y11345D01*
X33718Y11282D01*
X33655Y11199D01*
X33615Y11103D01*
X33601Y11000D01*
X33615Y10897D01*
X33655Y10801D01*
X33718Y10718D01*
X33757Y10688D01*
X33730Y10608D01*
X33699D01*
Y9546D01*
X33699D01*
X33711Y9500D01*
X33699Y9454D01*
X33699D01*
Y8392D01*
X34301D01*
Y9454D01*
X34301D01*
X34289Y9500D01*
X34301Y9546D01*
X34301D01*
Y10608D01*
X34270D01*
X34243Y10688D01*
X34282Y10718D01*
X34345Y10801D01*
X34385Y10897D01*
X34399Y11000D01*
X34385Y11103D01*
X34345Y11199D01*
X34282Y11282D01*
X34199Y11345D01*
X34103Y11385D01*
X34000Y11399D01*
D02*
G37*
G36*
X10350Y9454D02*
X10099D01*
Y8973D01*
X10350D01*
Y9454D01*
D02*
G37*
G36*
X30000Y11399D02*
X29897Y11385D01*
X29801Y11345D01*
X29718Y11282D01*
X29655Y11199D01*
X29615Y11103D01*
X29601Y11000D01*
X29615Y10897D01*
X29655Y10801D01*
X29718Y10718D01*
X29757Y10688D01*
X29730Y10608D01*
X29699D01*
Y9546D01*
X29699D01*
X29711Y9500D01*
X29699Y9454D01*
X29699D01*
Y8392D01*
X30301D01*
Y9454D01*
X30301D01*
X30289Y9500D01*
X30301Y9546D01*
X30301D01*
Y10608D01*
X30270D01*
X30243Y10688D01*
X30282Y10718D01*
X30345Y10801D01*
X30385Y10897D01*
X30399Y11000D01*
X30385Y11103D01*
X30345Y11199D01*
X30282Y11282D01*
X30199Y11345D01*
X30103Y11385D01*
X30000Y11399D01*
D02*
G37*
G36*
X31000D02*
X30897Y11385D01*
X30801Y11345D01*
X30718Y11282D01*
X30655Y11199D01*
X30615Y11103D01*
X30601Y11000D01*
X30615Y10897D01*
X30655Y10801D01*
X30718Y10718D01*
X30757Y10688D01*
X30730Y10608D01*
X30699D01*
Y9546D01*
X30699D01*
X30711Y9500D01*
X30699Y9454D01*
X30699D01*
Y8392D01*
X31301D01*
Y9454D01*
X31301D01*
X31289Y9500D01*
X31301Y9546D01*
X31301D01*
Y10608D01*
X31270D01*
X31243Y10688D01*
X31282Y10718D01*
X31345Y10801D01*
X31385Y10897D01*
X31399Y11000D01*
X31385Y11103D01*
X31345Y11199D01*
X31282Y11282D01*
X31199Y11345D01*
X31103Y11385D01*
X31000Y11399D01*
D02*
G37*
G36*
X32000D02*
X31897Y11385D01*
X31801Y11345D01*
X31718Y11282D01*
X31655Y11199D01*
X31615Y11103D01*
X31601Y11000D01*
X31615Y10897D01*
X31655Y10801D01*
X31718Y10718D01*
X31757Y10688D01*
X31730Y10608D01*
X31699D01*
Y9546D01*
X31699D01*
X31711Y9500D01*
X31699Y9454D01*
X31699D01*
Y8392D01*
X32301D01*
Y9454D01*
X32301D01*
X32289Y9500D01*
X32301Y9546D01*
X32301D01*
Y10608D01*
X32270D01*
X32243Y10688D01*
X32282Y10718D01*
X32345Y10801D01*
X32385Y10897D01*
X32399Y11000D01*
X32385Y11103D01*
X32345Y11199D01*
X32282Y11282D01*
X32199Y11345D01*
X32103Y11385D01*
X32000Y11399D01*
D02*
G37*
G36*
X10350Y10027D02*
X10099D01*
Y9546D01*
X10350D01*
Y10027D01*
D02*
G37*
G36*
X10701D02*
X10450D01*
Y9546D01*
X10701D01*
Y10027D01*
D02*
G37*
G36*
X7400Y11399D02*
X7297Y11385D01*
X7201Y11345D01*
X7118Y11282D01*
X7055Y11199D01*
X7015Y11103D01*
X7001Y11000D01*
X7015Y10897D01*
X7055Y10801D01*
X7118Y10718D01*
X7157Y10688D01*
X7130Y10608D01*
X7099D01*
Y9864D01*
X7019Y9848D01*
X6961Y9989D01*
X6872Y10134D01*
X6762Y10262D01*
X6634Y10372D01*
X6489Y10461D01*
X6333Y10525D01*
X6169Y10565D01*
X6000Y10578D01*
X5831Y10565D01*
X5667Y10525D01*
X5511Y10461D01*
X5366Y10372D01*
X5238Y10262D01*
X5128Y10134D01*
X5039Y9989D01*
X4975Y9833D01*
X4935Y9669D01*
X4922Y9500D01*
X4935Y9331D01*
X4975Y9167D01*
X5039Y9011D01*
X5128Y8866D01*
X5238Y8738D01*
X5366Y8628D01*
X5511Y8539D01*
X5667Y8475D01*
X5831Y8435D01*
X6000Y8422D01*
X6169Y8435D01*
X6333Y8475D01*
X6489Y8539D01*
X6634Y8628D01*
X6762Y8738D01*
X6872Y8866D01*
X6961Y9011D01*
X7019Y9152D01*
X7099Y9136D01*
Y8392D01*
X7701D01*
Y9454D01*
X7701D01*
X7689Y9500D01*
X7701Y9546D01*
X7701D01*
Y10608D01*
X7670D01*
X7643Y10688D01*
X7682Y10718D01*
X7745Y10801D01*
X7785Y10897D01*
X7799Y11000D01*
X7785Y11103D01*
X7745Y11199D01*
X7682Y11282D01*
X7599Y11345D01*
X7503Y11385D01*
X7400Y11399D01*
D02*
G37*
G36*
X10701Y9454D02*
X10450D01*
Y8973D01*
X10701D01*
Y9454D01*
D02*
G37*
G36*
X38000Y10000D02*
X37871Y9983D01*
X37750Y9933D01*
X37646Y9854D01*
X37567Y9750D01*
X37517Y9629D01*
X37500Y9500D01*
X37517Y9371D01*
X37567Y9250D01*
X37646Y9146D01*
X37750Y9067D01*
X37871Y9017D01*
X38000Y9000D01*
X38129Y9017D01*
X38250Y9067D01*
X38354Y9146D01*
X38433Y9250D01*
X38483Y9371D01*
X38500Y9500D01*
X38483Y9629D01*
X38433Y9750D01*
X38354Y9854D01*
X38250Y9933D01*
X38129Y9983D01*
X38000Y10000D01*
D02*
G37*
%LPD*%
G36*
X37302Y6841D02*
X37315Y6833D01*
X37323Y6753D01*
X36945Y6375D01*
X36680D01*
X36675Y6380D01*
X36644Y6455D01*
X36677Y6504D01*
X36694Y6590D01*
X36677Y6676D01*
X36629Y6749D01*
X36642Y6832D01*
X36673Y6867D01*
X37285D01*
X37302Y6841D01*
D02*
G37*
G36*
X22198Y2587D02*
X22201Y2581D01*
X22274Y2533D01*
X22360Y2516D01*
X22391Y2522D01*
X22546Y2366D01*
X22589Y2338D01*
X22606Y2254D01*
X22335Y1983D01*
X21976D01*
X21959Y2009D01*
X21933Y2026D01*
Y2435D01*
X22095Y2597D01*
X22198Y2587D01*
D02*
G37*
G36*
X37311Y7711D02*
X37384Y7663D01*
X37470Y7646D01*
X37486Y7649D01*
X37547Y7598D01*
Y7289D01*
X37467Y7223D01*
X37461Y7224D01*
X37375Y7207D01*
X37302Y7159D01*
X37285Y7133D01*
X36673D01*
X36640Y7213D01*
X37165Y7737D01*
X37294D01*
X37311Y7711D01*
D02*
G37*
D10*
X18660Y-6120D02*
Y-5660D01*
X22070Y-4970D02*
Y-3460D01*
X22050Y-4990D02*
X22070Y-4970D01*
X27228Y-4080D02*
X27970D01*
X27940Y-4280D02*
X28350Y-3870D01*
X27198Y-4280D02*
X27940D01*
X25670Y-5808D02*
X27198Y-4280D01*
X27970Y-4080D02*
X28230Y-3820D01*
X25404Y-5904D02*
X27228Y-4080D01*
X21840Y-2085D02*
X22290Y-1635D01*
X25025D01*
X26100Y-2710D01*
X22260Y-2085D02*
X22590Y-1755D01*
X24845D01*
X25660Y-2570D01*
X22893Y-1875D02*
X24075D01*
X23885Y-2085D02*
X24350Y-2550D01*
X24075Y-1875D02*
X24690Y-2490D01*
X22680Y-2088D02*
X22893Y-1875D01*
X23100Y-2085D02*
X23885D01*
X23898Y-1040D02*
X25430D01*
X26100Y-1710D01*
Y-2400D02*
Y-1710D01*
X25130Y-6480D02*
X25490D01*
X25670Y-6300D01*
Y-5808D01*
X28350Y-3870D02*
Y-3480D01*
X28110Y-3080D02*
X28450Y-2740D01*
X28110Y-3427D02*
Y-3080D01*
X27945Y-3592D02*
X28110Y-3427D01*
X27945Y-3595D02*
Y-3592D01*
X27780Y-3760D02*
X27945Y-3595D01*
X27990Y-3030D02*
X28400Y-2620D01*
X27990Y-3300D02*
Y-3030D01*
X27830Y-3460D02*
X27990Y-3300D01*
X28230Y-3820D02*
Y-3129D01*
X27780Y-2860D02*
X28230Y-2410D01*
X27510Y-2890D02*
X27780Y-3160D01*
Y-3460D02*
X27830D01*
X24824Y-6314D02*
X27390Y-3749D01*
X24000Y-6969D02*
X27270Y-3699D01*
X23000Y-7799D02*
X27150Y-3649D01*
X22429Y-8200D02*
X27030Y-3599D01*
X22380Y-8080D02*
X26910Y-3550D01*
X22330Y-7960D02*
X26790Y-3500D01*
X25404Y-6116D02*
Y-5904D01*
X27390Y-3749D02*
Y-2020D01*
X27270Y-3699D02*
Y-1970D01*
X27150Y-3649D02*
Y-1921D01*
X27030Y-3599D02*
Y-1871D01*
X26910Y-3550D02*
Y-1821D01*
X26790Y-3500D02*
Y-1771D01*
X25880Y-1120D02*
X26490Y-1730D01*
Y-2370D02*
Y-1730D01*
X27930Y-6150D02*
X28700D01*
X29080Y-6530D01*
X28570Y-3260D02*
X28680D01*
X28350Y-3480D02*
X28570Y-3260D01*
X28399Y-2960D02*
X28560D01*
X28230Y-3129D02*
X28399Y-2960D01*
X15406Y-5430D02*
X15470Y-5493D01*
Y-7330D02*
Y-5493D01*
X12526Y-5010D02*
X13176Y-5660D01*
X12526Y-5010D02*
Y-3900D01*
X18070Y1590D02*
Y4100D01*
X25930Y5260D02*
X30600D01*
X25000Y-8923D02*
Y-8131D01*
X28844Y113D02*
X29290D01*
X28323Y-1087D02*
X29290D01*
X28974Y413D02*
X29290D01*
X26910Y-1821D02*
X28844Y113D01*
X28713Y-187D02*
X29290D01*
X28583Y-487D02*
X29290D01*
X28453Y-787D02*
X29290D01*
X27390Y-2020D02*
X28323Y-1087D01*
X29290Y-2110D02*
X29400D01*
X27510Y-2070D02*
X27770Y-1810D01*
X29290D01*
X29525Y-2472D02*
Y-2235D01*
X29400Y-2110D02*
X29525Y-2235D01*
X29645Y-2522D02*
Y-1865D01*
X29290Y-1510D02*
X29645Y-1865D01*
X24824Y-7955D02*
X25000Y-8131D01*
X24824Y-7955D02*
Y-6314D01*
X27510Y-2890D02*
Y-2070D01*
X25730Y5060D02*
X25930Y5260D01*
X24780Y5060D02*
X25730D01*
X24740Y5100D02*
X24780Y5060D01*
X24730Y5110D02*
X24740Y5100D01*
X29120Y2310D02*
X29170Y2260D01*
X29040Y2430D02*
X29170Y2560D01*
X24410Y2433D02*
Y2740D01*
X24200Y2473D02*
Y2520D01*
X23990Y2433D02*
Y2740D01*
X23780Y2473D02*
Y2520D01*
X28830Y1950D02*
X29290Y1490D01*
X28880Y2070D02*
X29500Y1450D01*
X28929Y2190D02*
X29620Y1499D01*
X29290Y1320D02*
Y1490D01*
X29500Y1223D02*
Y1450D01*
X29290Y1013D02*
X29500Y1223D01*
X29290Y713D02*
Y716D01*
X29620Y1046D02*
Y1499D01*
X29290Y716D02*
X29620Y1046D01*
X17360Y4430D02*
X17740D01*
X18070Y4100D01*
X17800Y3380D02*
Y3810D01*
X25550Y1040D02*
X26090Y500D01*
X26662D01*
X24438Y1500D02*
X24680D01*
X24760Y822D02*
Y1010D01*
X24438Y500D02*
X24760Y822D01*
X24680Y1500D02*
X25160Y1020D01*
X30600Y5260D02*
X32210Y3650D01*
X25280Y5440D02*
X25335Y5385D01*
X25715D01*
X25830Y5500D02*
X30700D01*
X25715Y5385D02*
X25830Y5500D01*
X32780Y3860D02*
Y3907D01*
X30700Y5500D02*
X31940Y4260D01*
X32427D02*
X32780Y3907D01*
X31940Y4260D02*
X32427D01*
X25010Y5270D02*
X25020Y5280D01*
X32250Y4140D02*
X32450Y3940D01*
X25070Y5230D02*
X25730D01*
X31890Y4140D02*
X32250D01*
X25730Y5230D02*
X25880Y5380D01*
X30650D02*
X31890Y4140D01*
X25880Y5380D02*
X30650D01*
X25020Y5280D02*
X25070Y5230D01*
X37560Y8080D02*
X37680Y7960D01*
X35960Y8080D02*
X37560D01*
X37800Y6873D02*
Y8010D01*
X37610Y8200D02*
X37800Y8010D01*
X37680Y6113D02*
Y6390D01*
Y6922D02*
Y7960D01*
Y6390D02*
X37730Y6440D01*
X35830Y8310D02*
X36027D01*
X36137Y8200D01*
X37610D01*
X35940Y8100D02*
X35960Y8080D01*
X35520Y8000D02*
X35830Y8310D01*
X26280Y6100D02*
X35131D01*
X26240Y6140D02*
X26280Y6100D01*
X35131D02*
X36100Y7069D01*
Y7340D01*
X28400Y-2620D02*
X29377D01*
X29525Y-2472D01*
X28450Y-2740D02*
X29427D01*
X28230Y-2410D02*
X29290D01*
X29427Y-2740D02*
X29645Y-2522D01*
X26790Y-1771D02*
X28974Y413D01*
X27030Y-1871D02*
X28713Y-187D01*
X27150Y-1921D02*
X28583Y-487D01*
X27270Y-1970D02*
X28453Y-787D01*
X31860Y-7339D02*
X32016Y-7496D01*
X30961Y-8722D02*
X31960Y-7723D01*
X30710Y-8722D02*
X30961D01*
X32750Y-7909D02*
X33044Y-7616D01*
X33150Y-7828D02*
X34044Y-8722D01*
X34460D01*
X32790Y-7259D02*
X33526D01*
X32300Y-6669D02*
X32760Y-6209D01*
Y-5849D01*
X23000Y-8923D02*
Y-7799D01*
X21000Y-8380D02*
X21300Y-8080D01*
X21000Y-8923D02*
Y-8380D01*
X21300Y-8080D02*
X22380D01*
X22000Y-8420D02*
X22220Y-8200D01*
X22000Y-8923D02*
Y-8420D01*
X22220Y-8200D02*
X22429D01*
X20000Y-8260D02*
X20300Y-7960D01*
X22330D01*
X20000Y-8923D02*
Y-8260D01*
X24000Y-8923D02*
Y-6969D01*
X26091Y5780D02*
X26131Y5740D01*
X35280D01*
X36540Y7000D01*
X37461D01*
X26181Y5860D02*
X35231D01*
X26141Y5900D02*
X26181Y5860D01*
X26081Y5620D02*
X35330D01*
X26041Y5660D02*
X26081Y5620D01*
X35330D02*
X36300Y6590D01*
X36470D01*
X36410Y6650D02*
X36470Y6590D01*
X26230Y5980D02*
X35181D01*
X26190Y6020D02*
X26230Y5980D01*
X35181D02*
X36310Y7109D01*
X36210Y7527D02*
X36310Y7427D01*
Y7109D02*
Y7427D01*
X23780Y2473D02*
X24303Y1950D01*
X23990Y2433D02*
X24353Y2070D01*
X24200Y2473D02*
X24483Y2190D01*
X24410Y2433D02*
X24533Y2310D01*
X24620Y2520D02*
X24710Y2430D01*
X24303Y1950D02*
X28830D01*
X24353Y2070D02*
X28880D01*
X24483Y2190D02*
X28929D01*
X24533Y2310D02*
X29120D01*
X24710Y2430D02*
X29040D01*
X23540Y4250D02*
X24950Y5660D01*
X26041D01*
X24900Y5780D02*
X26091D01*
X23240Y3990D02*
Y4120D01*
X23540Y3990D02*
Y4250D01*
X23240Y4120D02*
X24900Y5780D01*
X22940Y3990D02*
X24850Y5900D01*
X23837Y3990D02*
X23840D01*
X23627Y3780D02*
X23837Y3990D01*
X22931Y4320D02*
X24751Y6140D01*
X22760Y4320D02*
X22931D01*
X22610Y4170D02*
X22760Y4320D01*
X35652Y7067D02*
X35880Y7295D01*
Y7730D01*
X35950Y7800D01*
X36210Y7527D02*
Y7650D01*
X35520Y7890D02*
X35600D01*
X35520D02*
Y8000D01*
X35730Y7890D02*
X35940Y8100D01*
X35730Y7410D02*
Y7890D01*
X35598Y7278D02*
X35730Y7410D01*
X35566Y7278D02*
X35598D01*
X35443Y7154D02*
X35566Y7278D01*
X35443Y6581D02*
Y7154D01*
X35081Y6220D02*
X35443Y6581D01*
X26330Y6220D02*
X35081D01*
X26290Y6260D02*
X26330Y6220D01*
X24531Y6260D02*
X26290D01*
X24850Y5900D02*
X26141D01*
X22853Y3780D02*
X23627D01*
X22730Y3903D02*
X22853Y3780D01*
X22730Y3903D02*
Y4120D01*
X22810Y4200D01*
X22980D01*
X24800Y6020D01*
X26190D01*
X24751Y6140D02*
X26240D01*
X22490Y4219D02*
X24531Y6260D01*
X22490Y3620D02*
Y4219D01*
X21300Y2730D02*
X21710Y3140D01*
X21540Y2500D02*
Y2670D01*
X20790Y1272D02*
Y1570D01*
X20980Y3110D02*
X21048Y3042D01*
X20790Y1570D02*
X21300Y2080D01*
Y2730D01*
X21038Y339D02*
X21040D01*
X20790Y586D02*
X21038Y339D01*
X20790Y586D02*
Y1272D01*
X20580Y1530D02*
X21048Y1997D01*
X20580Y852D02*
Y1530D01*
X21048Y1997D02*
Y3042D01*
X22390Y1850D02*
X22700Y2160D01*
X23790D01*
X21800Y1850D02*
X22390D01*
X23898Y-1040D02*
X24438Y-500D01*
X14696Y-3880D02*
X14696Y-3880D01*
X13110Y-3880D02*
X14696D01*
X11710Y1030D02*
X11810Y930D01*
X11530Y3790D02*
X11710Y3610D01*
Y1030D02*
Y3610D01*
X11990Y1630D02*
X12650Y970D01*
X11990Y3540D02*
X12250Y3800D01*
X11990Y1630D02*
Y3540D01*
X12250Y3800D02*
X12320D01*
X12340D01*
X34320Y-6805D02*
Y-5900D01*
Y-5300D02*
Y-3270D01*
X33850Y-2800D02*
X34320Y-3270D01*
X32940Y-2800D02*
X33590Y-3450D01*
Y-4500D02*
Y-3450D01*
Y-6889D02*
Y-5100D01*
X32016Y-7496D02*
X33459D01*
X33044Y-7616D02*
X33509D01*
X34320Y-6805D01*
X33530Y-6949D02*
X33580D01*
X33530D02*
X33590Y-6889D01*
X33459Y-7496D02*
X34060Y-6895D01*
X33550Y-2800D02*
X34060Y-3310D01*
Y-6895D02*
Y-5100D01*
Y-4500D02*
Y-3310D01*
X33830Y-5300D02*
Y-3383D01*
X33247Y-2800D02*
X33830Y-3383D01*
X33526Y-7259D02*
X33830Y-6955D01*
Y-5900D01*
X36490Y4000D02*
Y4923D01*
X35650Y3640D02*
Y5400D01*
X36492Y6242D02*
X37000D01*
X37680Y6922D01*
X35930Y3760D02*
Y5221D01*
X36809Y6100D02*
X37027D01*
X37800Y6873D01*
X36210Y3880D02*
Y5060D01*
X36490Y4923D02*
X37028Y5462D01*
X37377Y5810D02*
X37680Y6113D01*
X35650Y5400D02*
X35730Y5480D01*
X36078Y5828D02*
X36492Y6242D01*
X36738Y6029D02*
X36809Y6100D01*
X35930Y5221D02*
X36390Y5681D01*
X36210Y5060D02*
X36290Y5140D01*
X37290Y6140D02*
X37410D01*
X36638Y5488D02*
X37290Y6140D01*
X23900Y2830D02*
X23990Y2740D01*
X22660Y2830D02*
X23040D01*
X23540D02*
X23900D01*
X23720Y2460D02*
X23780Y2520D01*
X22360Y2740D02*
X22640Y2460D01*
X23010D01*
X23510D02*
X23720D01*
X21800Y1940D02*
Y2490D01*
X22610Y3300D01*
Y4170D01*
X21540Y2670D02*
X22015Y3145D01*
X22390Y3520D02*
X22490Y3620D01*
X36480Y7109D02*
Y7240D01*
X37110Y7870D01*
X35231Y5860D02*
X36480Y7109D01*
X37110Y7870D02*
X37470D01*
D11*
X18000Y-9500D02*
Y-8923D01*
Y-10077D02*
Y-9500D01*
X13000D02*
Y-8923D01*
Y-10077D02*
Y-9500D01*
X25000Y9500D02*
Y10077D01*
Y8923D02*
Y9500D01*
X24000D02*
Y10077D01*
Y8923D02*
Y9500D01*
X23000D02*
Y10077D01*
Y8923D02*
Y9500D01*
X20000D02*
Y10077D01*
Y8923D02*
Y9500D01*
X19000D02*
Y10077D01*
Y8923D02*
Y9500D01*
X13400D02*
Y10077D01*
Y8923D02*
Y9500D01*
X18000D02*
Y10077D01*
Y8923D02*
Y9500D01*
X16400Y8923D02*
Y9500D01*
Y10077D01*
X21000Y8923D02*
Y9500D01*
Y10077D01*
X22000Y9500D02*
Y10077D01*
Y8923D02*
Y9500D01*
X31000Y8923D02*
Y9500D01*
Y10077D01*
X30000Y9500D02*
Y10077D01*
Y8923D02*
Y9500D01*
X28000Y8923D02*
Y9500D01*
Y10077D01*
X29000Y8923D02*
Y9500D01*
Y10077D01*
X32000Y8923D02*
Y9500D01*
Y10077D01*
X33000Y8923D02*
Y9500D01*
Y10077D01*
X27000Y9500D02*
Y10077D01*
Y8923D02*
Y9500D01*
X25000Y-10077D02*
Y-9500D01*
Y-8923D01*
X24000Y-9500D02*
Y-8923D01*
Y-10077D02*
Y-9500D01*
X23000Y-10077D02*
Y-9500D01*
Y-8923D01*
X22000Y-9500D02*
Y-8923D01*
Y-10077D02*
Y-9500D01*
X21000Y-10077D02*
Y-9500D01*
Y-8923D01*
X20000Y-10077D02*
Y-9500D01*
Y-8923D01*
X11400Y8923D02*
Y9500D01*
Y10077D01*
X12400Y8923D02*
Y9500D01*
Y10077D01*
X7400Y8923D02*
Y9500D01*
Y10077D01*
X8400Y8923D02*
Y9500D01*
Y10077D01*
X9400Y8923D02*
Y9500D01*
Y10077D01*
X34000Y8923D02*
Y9500D01*
Y10077D01*
X15400Y8923D02*
Y9500D01*
Y10077D01*
X14400Y8923D02*
Y9500D01*
Y10077D01*
X34320Y-5900D02*
Y-5300D01*
X33590Y-5100D02*
Y-4500D01*
X34060Y-5100D02*
Y-4500D01*
X33830Y-5900D02*
Y-5300D01*
X35730Y5480D02*
X36078Y5828D01*
X37028Y5462D02*
X37377Y5810D01*
X36290Y5140D02*
X36638Y5488D01*
X36390Y5681D02*
X36738Y6029D01*
X23040Y2830D02*
X23540D01*
X23010Y2460D02*
X23510D01*
X22015Y3145D02*
X22390Y3520D01*
D13*
X9669Y2597D02*
G03*
X8962Y2890I-707J-707D01*
G01*
X10759Y229D02*
G03*
X11016Y850I-621J621D01*
G01*
D02*
G03*
X10733Y1533I-966J0D01*
G01*
X8939Y377D02*
G03*
X8376Y610I-563J-563D01*
G01*
X9217Y99D02*
G03*
X9924Y-194I707J707D01*
G01*
X10759Y229D02*
G03*
X11016Y850I-621J621D01*
G01*
D02*
G03*
X10733Y1533I-966J0D01*
G01*
X9669Y2597D02*
G03*
X8962Y2890I-707J-707D01*
G01*
X8566Y2890D02*
X8962D01*
X10676Y146D02*
X10759Y229D01*
X9669Y2597D02*
X10733Y1533D01*
X9924Y-194D02*
X10676D01*
X8939Y377D02*
X9217Y99D01*
D19*
X4500Y-11350D02*
D03*
X38000Y9500D02*
D03*
D49*
X16400Y10077D02*
D03*
X15400D02*
D03*
X13400D02*
D03*
X12400D02*
D03*
X14400D02*
D03*
X16400Y8923D02*
D03*
X15400D02*
D03*
X13400D02*
D03*
X12400D02*
D03*
X14400D02*
D03*
X11400Y10077D02*
D03*
X10400D02*
D03*
X8400D02*
D03*
X7400D02*
D03*
X9400D02*
D03*
X10400Y8923D02*
D03*
X9400D02*
D03*
X11400D02*
D03*
X7400D02*
D03*
X8400D02*
D03*
X25000Y-8923D02*
D03*
X24000D02*
D03*
X22000D02*
D03*
X23000D02*
D03*
X24000Y-10077D02*
D03*
X25000D02*
D03*
X22000D02*
D03*
X23000D02*
D03*
X21000Y-8923D02*
D03*
X20000D02*
D03*
X21000Y-10077D02*
D03*
X20000D02*
D03*
X19000Y10077D02*
D03*
Y8923D02*
D03*
X18000Y10077D02*
D03*
Y8923D02*
D03*
X24000Y10077D02*
D03*
Y8923D02*
D03*
X23000D02*
D03*
Y10077D02*
D03*
X22000Y8923D02*
D03*
Y10077D02*
D03*
X20000Y8923D02*
D03*
Y10077D02*
D03*
X21000Y8923D02*
D03*
Y10077D02*
D03*
X25000D02*
D03*
Y8923D02*
D03*
X17000Y-10077D02*
D03*
Y-8923D02*
D03*
X18000Y-10077D02*
D03*
Y-8923D02*
D03*
X12000Y-10077D02*
D03*
Y-8923D02*
D03*
X13000D02*
D03*
Y-10077D02*
D03*
X14000Y-8923D02*
D03*
Y-10077D02*
D03*
X16000Y-8923D02*
D03*
Y-10077D02*
D03*
X15000Y-8923D02*
D03*
Y-10077D02*
D03*
X11000D02*
D03*
Y-8923D02*
D03*
X28000Y10077D02*
D03*
Y8923D02*
D03*
X27000Y10077D02*
D03*
Y8923D02*
D03*
X33000Y10077D02*
D03*
Y8923D02*
D03*
X32000D02*
D03*
Y10077D02*
D03*
X31000Y8923D02*
D03*
Y10077D02*
D03*
X29000Y8923D02*
D03*
Y10077D02*
D03*
X30000Y8923D02*
D03*
Y10077D02*
D03*
X34000D02*
D03*
Y8923D02*
D03*
D58*
X4047Y4410D02*
X4499Y4862D01*
X26394Y-769D02*
X26662Y-500D01*
X26394Y-960D02*
Y-769D01*
D59*
X23820Y-2850D02*
X24410D01*
X23480Y-2510D02*
X23820Y-2850D01*
X21910Y-2510D02*
X23480D01*
X21240Y-1840D02*
X21910Y-2510D01*
X21240Y-1840D02*
Y-1380D01*
X20590Y-1140D02*
Y-540D01*
Y-1140D02*
X20830Y-1380D01*
X21240D01*
X6990Y-3780D02*
X8800Y-1970D01*
X10330D01*
X5960Y-3780D02*
X6990D01*
X9186Y-3010D02*
X10526D01*
X9186Y-2710D02*
X10536D01*
X6820Y3960D02*
X10790D01*
X21032Y627D02*
Y642D01*
Y1482D01*
X28693Y-7790D02*
Y-7370D01*
Y-6530D01*
X13290Y4050D02*
X13440Y3900D01*
X11830Y530D02*
X12170D01*
X12120Y830D02*
Y1270D01*
X11570Y790D02*
Y3180D01*
X10790Y3960D02*
X11570Y3180D01*
Y790D02*
X11830Y530D01*
X11850Y1540D02*
X12120Y1270D01*
X11850Y1540D02*
Y3870D01*
X12030Y4050D01*
X13290D01*
D60*
X4350Y-8170D02*
X14247D01*
X3164Y-7754D02*
X3934D01*
X4350Y-8170D01*
X15170D02*
X15920Y-7420D01*
X16380D01*
X14247Y-8170D02*
X15170D01*
X14247D02*
X15000Y-8923D01*
Y-9500D02*
Y-8923D01*
Y-10077D02*
Y-9500D01*
X12196Y-4570D02*
Y-1910D01*
X11570Y-5040D02*
X11726D01*
X12196Y-4570D01*
X15746Y-2390D02*
Y182D01*
X16396Y832D01*
Y1338D01*
X8836Y-1610D02*
X9206Y-1240D01*
X12246D01*
X15610Y3510D02*
X15800Y3320D01*
Y3050D02*
Y3320D01*
Y2910D02*
Y3050D01*
X12255Y-635D02*
X15800Y2910D01*
X8786Y-635D02*
X12255D01*
X15746Y-2390D02*
X16346Y-2990D01*
X26662Y1002D02*
Y1500D01*
X13200Y3030D02*
Y3140D01*
X13570Y3510D01*
X12800D02*
X13570D01*
X15610D01*
X12246Y-1240D02*
X15300Y1814D01*
X12196Y-1910D02*
X15920Y1814D01*
X16396Y1338D01*
X15300Y1814D02*
X15920D01*
X11000Y-10077D02*
Y-8923D01*
X14000Y-10077D02*
Y-8923D01*
X12000Y-10077D02*
Y-8923D01*
D61*
X4050Y-6804D02*
Y-5311D01*
X4499Y-4919D02*
X5980Y-6400D01*
X4050Y-5311D02*
X4499Y-4862D01*
X5188D01*
X5700Y-4350D01*
X4871Y4490D02*
X5720D01*
X4499Y4862D02*
X4871Y4490D01*
D62*
X30640Y1160D02*
X30700Y1220D01*
X32750Y2570D02*
X33670Y1650D01*
X30210Y2130D02*
X30650Y2570D01*
X30160Y2130D02*
X30185Y2155D01*
X30650Y2570D02*
X32750D01*
X30180Y-920D02*
X30640Y-460D01*
Y1160D01*
D66*
X27000Y-9500D02*
D03*
X24000Y-11000D02*
D03*
X23000D02*
D03*
X25000D02*
D03*
X21000D02*
D03*
X22000D02*
D03*
X25000Y-12000D02*
D03*
X24000D02*
D03*
X22000D02*
D03*
X23000D02*
D03*
X20000Y-11000D02*
D03*
X21000Y-12000D02*
D03*
X14400Y12000D02*
D03*
X13400D02*
D03*
X15400D02*
D03*
X16400Y11000D02*
D03*
X15400D02*
D03*
X13400D02*
D03*
X12400D02*
D03*
X14400D02*
D03*
X12400Y12000D02*
D03*
X11400D02*
D03*
X10400D02*
D03*
X8400D02*
D03*
X7400D02*
D03*
X9400D02*
D03*
X10400Y11000D02*
D03*
X9400D02*
D03*
X11400D02*
D03*
X7400D02*
D03*
X8400D02*
D03*
X33000Y12000D02*
D03*
X32000D02*
D03*
X34000Y11000D02*
D03*
X32000D02*
D03*
X31000D02*
D03*
X33000D02*
D03*
X31000Y12000D02*
D03*
X30000D02*
D03*
X28000D02*
D03*
X27000D02*
D03*
X29000D02*
D03*
X30000Y11000D02*
D03*
X29000D02*
D03*
X27000D02*
D03*
X28000D02*
D03*
X19000Y12000D02*
D03*
Y11000D02*
D03*
X20000D02*
D03*
Y12000D02*
D03*
X22000Y11000D02*
D03*
Y12000D02*
D03*
X25000Y11000D02*
D03*
X24000Y12000D02*
D03*
Y11000D02*
D03*
X23000Y12000D02*
D03*
Y11000D02*
D03*
X21000Y12000D02*
D03*
Y11000D02*
D03*
X18000D02*
D03*
Y12000D02*
D03*
X17000Y-12000D02*
D03*
Y-11000D02*
D03*
X16000D02*
D03*
Y-12000D02*
D03*
X14000Y-11000D02*
D03*
Y-12000D02*
D03*
X11000Y-11000D02*
D03*
X12000Y-12000D02*
D03*
Y-11000D02*
D03*
X13000Y-12000D02*
D03*
Y-11000D02*
D03*
X15000Y-12000D02*
D03*
Y-11000D02*
D03*
X18000D02*
D03*
Y-12000D02*
D03*
X1500Y11750D02*
D03*
D67*
X565Y1299D02*
D03*
Y-1299D02*
D03*
D68*
X19400Y3000D02*
D03*
X19000Y-0D02*
D03*
X18600Y3000D02*
D03*
D69*
X2880Y-5500D02*
D03*
Y5500D02*
D03*
D70*
X20000Y-12000D02*
D03*
X16400Y12000D02*
D03*
X34000D02*
D03*
X25000D02*
D03*
X11000Y-12000D02*
D03*
D71*
X38000Y-9500D02*
D03*
X6000Y9500D02*
D03*
X35500D02*
D03*
X5500Y-9500D02*
D03*
X26000Y3500D02*
D03*
Y-7500D02*
D03*
D72*
X18660Y-5660D02*
D03*
X22070Y-3460D02*
D03*
X18660Y-6120D02*
D03*
X27620Y-5410D02*
D03*
X27640Y-4070D02*
D03*
X25160Y-4230D02*
D03*
X24350Y-2550D02*
D03*
X24690Y-2490D02*
D03*
X25660Y-2570D02*
D03*
X26100Y-2710D02*
D03*
X24410Y-2850D02*
D03*
X22700Y-4060D02*
D03*
X24130Y-4160D02*
D03*
X24620D02*
D03*
X22050Y-4990D02*
D03*
X26100Y-2400D02*
D03*
X23100Y-1035D02*
D03*
X22680Y-1035D02*
D03*
X22260Y-1032D02*
D03*
X21840Y-1035D02*
D03*
X21840Y-2085D02*
D03*
X22260Y-2085D02*
D03*
X22680Y-2088D02*
D03*
X23100Y-2085D02*
D03*
X25130Y-6480D02*
D03*
X27780Y-2860D02*
D03*
Y-3160D02*
D03*
Y-3460D02*
D03*
X25404Y-6116D02*
D03*
X25880Y-1120D02*
D03*
X26490Y-2370D02*
D03*
X27930Y-6150D02*
D03*
X29080Y-6530D02*
D03*
X28693Y-7790D02*
D03*
Y-7370D02*
D03*
X28696Y-6950D02*
D03*
X28693Y-6530D02*
D03*
X20590Y-540D02*
D03*
X20820Y-1380D02*
D03*
X17520Y-1480D02*
D03*
X20960Y-4200D02*
D03*
X21200Y-5540D02*
D03*
X28680Y-3260D02*
D03*
X28560Y-2960D02*
D03*
X16870Y-5240D02*
D03*
X10310Y-2440D02*
D03*
X10330Y-1970D02*
D03*
X13620Y-3600D02*
D03*
X29230Y3120D02*
D03*
X10890Y7020D02*
D03*
X12910Y6960D02*
D03*
X15970Y6940D02*
D03*
X14680D02*
D03*
X17150Y6670D02*
D03*
X7400Y6810D02*
D03*
X2660Y-8190D02*
D03*
X3164Y-7754D02*
D03*
X5600Y7660D02*
D03*
X3164Y-10020D02*
D03*
X2700Y-10705D02*
D03*
X3620D02*
D03*
X3000Y10000D02*
D03*
X36040Y1180D02*
D03*
X36790Y2670D02*
D03*
X36040Y2710D02*
D03*
X14920Y-5470D02*
D03*
X12450Y-5620D02*
D03*
X11150Y-5770D02*
D03*
X11510Y-6120D02*
D03*
X16500Y-4250D02*
D03*
X31860Y-6999D02*
D03*
X32710Y-4179D02*
D03*
X35430Y-8409D02*
D03*
X35220Y-6009D02*
D03*
X37000Y1000D02*
D03*
X38630Y9190D02*
D03*
X38500Y7000D02*
D03*
Y5500D02*
D03*
X37000Y10000D02*
D03*
Y9000D02*
D03*
Y5000D02*
D03*
Y3000D02*
D03*
Y0D02*
D03*
X36990Y-1870D02*
D03*
X37090Y-4000D02*
D03*
X37030Y-6650D02*
D03*
X37000Y-8000D02*
D03*
X31300Y-7699D02*
D03*
X28000Y-10000D02*
D03*
X27300Y-8540D02*
D03*
X25590Y-8870D02*
D03*
X26000Y-10000D02*
D03*
X12410Y-7330D02*
D03*
X15830Y-6290D02*
D03*
X12170Y-6310D02*
D03*
X14000Y-7180D02*
D03*
X12490Y-8590D02*
D03*
Y-10320D02*
D03*
X11510Y-8570D02*
D03*
X11480Y-10350D02*
D03*
X8620Y-8820D02*
D03*
X8500Y-11000D02*
D03*
X500Y-8000D02*
D03*
X2830Y-6120D02*
D03*
X2170Y-7390D02*
D03*
X1250Y-4630D02*
D03*
X3380Y6810D02*
D03*
X3100Y8500D02*
D03*
X6900Y10500D02*
D03*
X6750Y8090D02*
D03*
X17870Y6330D02*
D03*
X13910Y3900D02*
D03*
X19960Y3760D02*
D03*
X11760Y8130D02*
D03*
X10700Y8160D02*
D03*
X10890Y10100D02*
D03*
X9900Y8820D02*
D03*
X9890Y10080D02*
D03*
X9130Y-7330D02*
D03*
X9590Y-7090D02*
D03*
X5250Y-2260D02*
D03*
X4410Y-2250D02*
D03*
X3050Y-2590D02*
D03*
X3240Y-3490D02*
D03*
X2940Y-3060D02*
D03*
X5770Y-4880D02*
D03*
X9510Y-9560D02*
D03*
X7320Y-9580D02*
D03*
X18200Y-5480D02*
D03*
X16410Y-8000D02*
D03*
X17430Y-7960D02*
D03*
X19410Y-8010D02*
D03*
X19470Y-10260D02*
D03*
X17460Y-10040D02*
D03*
X17520Y-9010D02*
D03*
X16470Y-8980D02*
D03*
X16460Y-10020D02*
D03*
X15490Y-9990D02*
D03*
X15530Y-8970D02*
D03*
X36220Y-9509D02*
D03*
X31720D02*
D03*
X29720D02*
D03*
X35790Y-4969D02*
D03*
X34590Y-5160D02*
D03*
X31550Y-4959D02*
D03*
X30420Y-5039D02*
D03*
X16196Y-690D02*
D03*
X16380Y-7420D02*
D03*
X15470Y-7330D02*
D03*
X15000Y-9500D02*
D03*
X13846Y-6270D02*
D03*
X16010Y-4890D02*
D03*
X14200Y-5120D02*
D03*
X4050Y-6804D02*
D03*
X5980Y-6400D02*
D03*
X7966Y-3980D02*
D03*
X10900Y2400D02*
D03*
X9976Y3290D02*
D03*
X25000Y9500D02*
D03*
X24000D02*
D03*
X23000D02*
D03*
X20000D02*
D03*
X19000D02*
D03*
X30700Y1220D02*
D03*
X13400Y9500D02*
D03*
X12690Y2770D02*
D03*
X11570Y-5040D02*
D03*
X13000Y-9500D02*
D03*
X12000D02*
D03*
X14000D02*
D03*
X18000D02*
D03*
Y9500D02*
D03*
X34720Y3400D02*
D03*
X32690Y2980D02*
D03*
X35200Y-1480D02*
D03*
X30180Y-920D02*
D03*
X33670Y1650D02*
D03*
X31400Y-1610D02*
D03*
X34060Y2250D02*
D03*
X34380Y2880D02*
D03*
X35260Y1490D02*
D03*
Y2350D02*
D03*
X35200Y700D02*
D03*
X8846Y-290D02*
D03*
X7380Y-5580D02*
D03*
X15406Y-5430D02*
D03*
X9770Y-5420D02*
D03*
X13076Y1970D02*
D03*
X11036Y-5310D02*
D03*
X8786Y-635D02*
D03*
X16816Y-200D02*
D03*
X17330Y-690D02*
D03*
X12900Y-1920D02*
D03*
X11700Y-2970D02*
D03*
X9176Y-5260D02*
D03*
X310Y-3590D02*
D03*
X1080Y-1940D02*
D03*
X11866Y-3760D02*
D03*
X5260Y2960D02*
D03*
X8226Y-570D02*
D03*
X8866Y10D02*
D03*
X8716Y-2400D02*
D03*
X15166Y-1790D02*
D03*
X7666Y-1620D02*
D03*
X7766Y-2630D02*
D03*
X14220Y-5490D02*
D03*
X15046Y-3540D02*
D03*
X15036Y460D02*
D03*
X4516Y1820D02*
D03*
X4546Y-1100D02*
D03*
X2150Y-630D02*
D03*
X8846Y3440D02*
D03*
X11380Y610D02*
D03*
X6586Y-2160D02*
D03*
X10910Y-7060D02*
D03*
X16206Y-2130D02*
D03*
X16196Y110D02*
D03*
X11610Y-5420D02*
D03*
X16006Y1130D02*
D03*
X16340Y2700D02*
D03*
X15696Y-4240D02*
D03*
X14360Y2290D02*
D03*
X10364Y-5498D02*
D03*
X17010Y470D02*
D03*
X17030Y1170D02*
D03*
X10736Y-5380D02*
D03*
X8796Y-1000D02*
D03*
X8206Y-1020D02*
D03*
X10676Y146D02*
D03*
Y-193D02*
D03*
X7916Y-260D02*
D03*
X13176Y-5660D02*
D03*
X12526Y-3900D02*
D03*
X14696Y-3880D02*
D03*
X780Y-3080D02*
D03*
X16280Y3070D02*
D03*
X17096Y-2100D02*
D03*
X14026Y-910D02*
D03*
X14196Y-1990D02*
D03*
X12856Y-2970D02*
D03*
X3226Y-1000D02*
D03*
X3186Y2630D02*
D03*
X11170Y3120D02*
D03*
X8566Y2890D02*
D03*
X8376Y610D02*
D03*
X5240Y-770D02*
D03*
X3786Y1005D02*
D03*
X10050Y2640D02*
D03*
X8683Y-5207D02*
D03*
X8349D02*
D03*
X10830Y-1840D02*
D03*
X6856Y-750D02*
D03*
X9220Y-3440D02*
D03*
X10506Y-3930D02*
D03*
X8456Y-1670D02*
D03*
X9876Y-4400D02*
D03*
X14916Y3110D02*
D03*
X14396Y3100D02*
D03*
X16556Y-1480D02*
D03*
X4516Y2850D02*
D03*
X8836Y-1610D02*
D03*
X10526Y-3010D02*
D03*
X10536Y-2710D02*
D03*
X10326Y-1660D02*
D03*
X11020Y-260D02*
D03*
X12800Y3510D02*
D03*
X31450Y1290D02*
D03*
X33720Y-9509D02*
D03*
X16400Y9500D02*
D03*
X21260Y5590D02*
D03*
X21000Y9500D02*
D03*
X22000D02*
D03*
X31000Y9500D02*
D03*
X30000D02*
D03*
X28000D02*
D03*
X29000D02*
D03*
X32000D02*
D03*
X33000D02*
D03*
X27000D02*
D03*
X32500Y10230D02*
D03*
X32420Y8200D02*
D03*
X31410Y7280D02*
D03*
X25620Y10220D02*
D03*
X26440Y10270D02*
D03*
X15800Y3050D02*
D03*
X16346Y-2990D02*
D03*
X5960Y-3780D02*
D03*
X5920Y-5780D02*
D03*
X9186Y-3010D02*
D03*
Y-2710D02*
D03*
X9126Y-2380D02*
D03*
X13540Y3010D02*
D03*
X18090Y4980D02*
D03*
X20520Y-6070D02*
D03*
X4760Y7380D02*
D03*
X31060Y2130D02*
D03*
X32580Y2190D02*
D03*
X33200Y3510D02*
D03*
X34650Y5020D02*
D03*
Y6520D02*
D03*
X32150Y5020D02*
D03*
Y6520D02*
D03*
X6880Y7230D02*
D03*
X12180Y530D02*
D03*
X6820Y3960D02*
D03*
X17027Y4640D02*
D03*
X17027Y4220D02*
D03*
Y3800D02*
D03*
X17800Y3380D02*
D03*
X18070Y1590D02*
D03*
X19610Y500D02*
D03*
X19590Y2500D02*
D03*
X5610Y8100D02*
D03*
X4326Y-705D02*
D03*
X17020Y5010D02*
D03*
X25000Y-9500D02*
D03*
X24000D02*
D03*
X23000D02*
D03*
X22000D02*
D03*
X21000D02*
D03*
X20000D02*
D03*
X29290Y413D02*
D03*
Y113D02*
D03*
Y-187D02*
D03*
Y-487D02*
D03*
Y-787D02*
D03*
Y-1087D02*
D03*
Y-2410D02*
D03*
Y-1810D02*
D03*
Y-1510D02*
D03*
Y-2110D02*
D03*
X24740Y5100D02*
D03*
X23990Y2740D02*
D03*
X23780Y2520D02*
D03*
X29170Y2560D02*
D03*
Y2260D02*
D03*
X11400Y9500D02*
D03*
X12400D02*
D03*
X24620Y2520D02*
D03*
X24410Y2740D02*
D03*
X24200Y2520D02*
D03*
X29290Y1320D02*
D03*
Y1013D02*
D03*
Y713D02*
D03*
X7400Y9500D02*
D03*
X8400D02*
D03*
X9400D02*
D03*
X26662Y1002D02*
D03*
X13440Y3900D02*
D03*
X17360Y4430D02*
D03*
X17800Y3810D02*
D03*
X10420Y2210D02*
D03*
X12970Y2580D02*
D03*
X13200Y3030D02*
D03*
X15920Y1850D02*
D03*
X18430Y130D02*
D03*
X17740Y1040D02*
D03*
X19910Y-1970D02*
D03*
X26860Y-1180D02*
D03*
X26990Y0D02*
D03*
X27190Y990D02*
D03*
X27170Y2820D02*
D03*
X24930Y4110D02*
D03*
X26040Y4680D02*
D03*
X20540Y1820D02*
D03*
X17590Y5840D02*
D03*
X22970Y6300D02*
D03*
X25920Y8100D02*
D03*
X25840Y7060D02*
D03*
X38500Y12000D02*
D03*
X36000D02*
D03*
X34500Y10250D02*
D03*
X30130Y6590D02*
D03*
X26140Y11090D02*
D03*
X500Y10500D02*
D03*
X2500D02*
D03*
X4500D02*
D03*
X7820Y8010D02*
D03*
X4910Y8710D02*
D03*
X670Y6830D02*
D03*
X840Y3530D02*
D03*
X470Y4580D02*
D03*
X2320Y4850D02*
D03*
X2250Y6670D02*
D03*
X6320Y4470D02*
D03*
X11630Y-1800D02*
D03*
X11210Y-3560D02*
D03*
X18920Y-6930D02*
D03*
X19730Y-5210D02*
D03*
X21730Y-6570D02*
D03*
X20470Y-7530D02*
D03*
X27980Y-4790D02*
D03*
X28490Y-5080D02*
D03*
X34410Y-8409D02*
D03*
X34940Y-9089D02*
D03*
X30430Y-8419D02*
D03*
X37050Y-11030D02*
D03*
X33310Y-11020D02*
D03*
X30120Y-11010D02*
D03*
X27780Y-10970D02*
D03*
X26240D02*
D03*
X24760Y1010D02*
D03*
X25550Y1040D02*
D03*
X25160Y1020D02*
D03*
X8400Y5500D02*
D03*
X6850Y5090D02*
D03*
X5690Y5050D02*
D03*
X11000Y-9500D02*
D03*
X31660Y3850D02*
D03*
X31030Y3970D02*
D03*
X32950Y5130D02*
D03*
X30230Y4800D02*
D03*
X29270Y3620D02*
D03*
X30350Y2740D02*
D03*
X30210Y2130D02*
D03*
X30260Y-1370D02*
D03*
X30960Y-1700D02*
D03*
X6600Y-7800D02*
D03*
X500Y-10900D02*
D03*
X1700Y-11000D02*
D03*
X5500D02*
D03*
X7890Y4570D02*
D03*
X8950Y4940D02*
D03*
X9910Y5040D02*
D03*
X9900Y6200D02*
D03*
X8900Y6600D02*
D03*
X7900Y6000D02*
D03*
X18400Y2200D02*
D03*
X15400Y3100D02*
D03*
X500Y12000D02*
D03*
X2500D02*
D03*
X5400D02*
D03*
X6900D02*
D03*
X34500D02*
D03*
X38500Y10000D02*
D03*
X37000Y-12000D02*
D03*
X35000D02*
D03*
X33000D02*
D03*
X31000D02*
D03*
X29000D02*
D03*
X27000D02*
D03*
X500D02*
D03*
X2400Y-11800D02*
D03*
X4500Y-12000D02*
D03*
X6500D02*
D03*
X9000D02*
D03*
X10500D02*
D03*
Y-11000D02*
D03*
X5700Y-4350D02*
D03*
X5720Y4490D02*
D03*
X2570Y1050D02*
D03*
X2390Y2240D02*
D03*
X1100Y-690D02*
D03*
X960Y2570D02*
D03*
X1710Y-3550D02*
D03*
X1130Y240D02*
D03*
X32210Y3650D02*
D03*
X36530Y8660D02*
D03*
X36210Y3880D02*
D03*
X35650Y3640D02*
D03*
X35930Y3760D02*
D03*
X36490Y4000D02*
D03*
X34000Y9500D02*
D03*
X25280Y5440D02*
D03*
X15400Y9500D02*
D03*
X32780Y3860D02*
D03*
X25010Y5270D02*
D03*
X14400Y9500D02*
D03*
X32450Y3940D02*
D03*
X36770Y6490D02*
D03*
X37410Y6140D02*
D03*
X37730Y6440D02*
D03*
X37140Y8630D02*
D03*
X36870Y7270D02*
D03*
X35940Y8100D02*
D03*
X34340Y7100D02*
D03*
X36100Y7340D02*
D03*
X23840Y-1400D02*
D03*
X34270Y-1480D02*
D03*
X27780Y-3760D02*
D03*
X31860Y-7339D02*
D03*
X32790Y-7259D02*
D03*
X32750Y-7909D02*
D03*
X34570Y-7269D02*
D03*
X32490D02*
D03*
X32940Y-2800D02*
D03*
X33550D02*
D03*
X32300Y-6669D02*
D03*
X30710Y-8722D02*
D03*
X31960Y-7723D02*
D03*
X33150Y-7828D02*
D03*
X34460Y-8722D02*
D03*
X33247Y-2800D02*
D03*
X32760Y-5849D02*
D03*
X22360Y2740D02*
D03*
X22380Y2370D02*
D03*
X20980Y3110D02*
D03*
X22940Y3990D02*
D03*
X23840D02*
D03*
X37461Y7000D02*
D03*
X37470Y7870D02*
D03*
X36470Y6590D02*
D03*
X23240Y3990D02*
D03*
X23540D02*
D03*
X35950Y7800D02*
D03*
X35652Y7067D02*
D03*
X36210Y7650D02*
D03*
X35520Y7890D02*
D03*
X21710Y3140D02*
D03*
X22660Y2830D02*
D03*
X19520Y1250D02*
D03*
X21540Y2500D02*
D03*
X21800Y1850D02*
D03*
X21032Y1482D02*
D03*
X21029Y1062D02*
D03*
X21040Y339D02*
D03*
X20790Y1272D02*
D03*
X21032Y642D02*
D03*
X20580Y852D02*
D03*
X23790Y2160D02*
D03*
X21240Y-1380D02*
D03*
X21670Y-240D02*
D03*
X20310Y-680D02*
D03*
X23370Y130D02*
D03*
X22240Y580D02*
D03*
X22830Y3300D02*
D03*
X20730Y2060D02*
D03*
X20380Y3170D02*
D03*
X30230Y-6789D02*
D03*
X34580Y-6509D02*
D03*
X21240Y-2420D02*
D03*
X22960Y1940D02*
D03*
X22010Y3790D02*
D03*
X35050Y6870D02*
D03*
X23898Y-1040D02*
D03*
X26394Y-960D02*
D03*
X33850Y-2800D02*
D03*
X13110Y-3880D02*
D03*
X12440Y160D02*
D03*
X13106Y970D02*
D03*
X12120Y830D02*
D03*
X11810Y930D02*
D03*
X11530Y3790D02*
D03*
X12650Y970D02*
D03*
X12320Y3800D02*
D03*
X33530Y-6949D02*
D03*
X33370Y-6589D02*
D03*
D73*
X33359Y236D02*
D03*
Y709D02*
D03*
X32886D02*
D03*
Y236D02*
D03*
X33359Y-709D02*
D03*
Y-236D02*
D03*
X32886D02*
D03*
Y-709D02*
D03*
X32414Y709D02*
D03*
X31941D02*
D03*
X32414Y236D02*
D03*
X31941D02*
D03*
X32414Y-709D02*
D03*
Y-236D02*
D03*
X31941Y-709D02*
D03*
Y-236D02*
D03*
D74*
X7058Y0D02*
G03*
X7058Y0I-2559J0D01*
G01*
D75*
X4499D02*
D03*
D76*
Y5150D02*
D03*
Y-5150D02*
D03*
D77*
X26662Y1500D02*
D03*
Y500D02*
D03*
Y-500D02*
D03*
X24438Y1500D02*
D03*
Y500D02*
D03*
Y-500D02*
D03*
M02*
