G04 Layer_Color=8388736*
%FSLAX24Y24*%
%MOIN*%
G70*
G01*
G75*
%ADD90C,0.0240*%
%ADD91C,0.0139*%
%ADD92R,0.0454X0.0769*%
%ADD93C,0.0454*%
%ADD94R,0.0277X0.0296*%
%ADD95R,0.0257X0.0296*%
%ADD96R,0.0257X0.0217*%
%ADD97R,0.0296X0.0277*%
%ADD98O,0.0305X0.0136*%
%ADD99O,0.0136X0.0305*%
%ADD100R,0.0414X0.0198*%
%ADD101R,0.0460X0.0360*%
%ADD102C,0.0787*%
%ADD103R,0.0360X0.0380*%
%ADD104R,0.0375X0.0355*%
%ADD105R,0.0288X0.0257*%
%ADD106R,0.0316X0.0395*%
%ADD107R,0.0592X0.0217*%
%ADD108R,0.0611X0.0690*%
%ADD109R,0.0670X0.0808*%
%ADD110R,0.0454X0.0395*%
%ADD111R,0.0296X0.0395*%
%ADD112R,0.0336X0.0178*%
%ADD113R,0.0532X0.0493*%
%ADD114O,0.0710X0.0178*%
%ADD115O,0.0178X0.0710*%
%ADD116O,0.0316X0.0139*%
%ADD117O,0.0139X0.0316*%
%ADD118R,0.1910X0.1910*%
G04:AMPARAMS|DCode=119|XSize=53.2mil|YSize=49.3mil|CornerRadius=0mil|HoleSize=0mil|Usage=FLASHONLY|Rotation=225.000|XOffset=0mil|YOffset=0mil|HoleType=Round|Shape=Rectangle|*
%AMROTATEDRECTD119*
4,1,4,0.0014,0.0363,0.0363,0.0014,-0.0014,-0.0363,-0.0363,-0.0014,0.0014,0.0363,0.0*
%
%ADD119ROTATEDRECTD119*%

%ADD120R,0.0355X0.0375*%
%ADD121R,0.0257X0.0316*%
%ADD122R,0.0375X0.0355*%
%ADD123R,0.1560X0.0560*%
%ADD124R,0.0462X0.0922*%
%ADD125R,0.1143X0.0611*%
%ADD126R,0.0532X0.1044*%
%ADD127R,0.1005X0.0359*%
%ADD128C,0.0370*%
%ADD129R,0.1312X0.0560*%
G04:AMPARAMS|DCode=130|XSize=25.7mil|YSize=29.6mil|CornerRadius=0mil|HoleSize=0mil|Usage=FLASHONLY|Rotation=45.000|XOffset=0mil|YOffset=0mil|HoleType=Round|Shape=Rectangle|*
%AMROTATEDRECTD130*
4,1,4,0.0014,-0.0196,-0.0196,0.0014,-0.0014,0.0196,0.0196,-0.0014,0.0014,-0.0196,0.0*
%
%ADD130ROTATEDRECTD130*%

%ADD131R,0.0296X0.0257*%
%ADD132R,0.0359X0.1005*%
%ADD133C,0.0651*%
%ADD134O,0.0690X0.0414*%
%ADD135C,0.0761*%
%ADD136R,0.0651X0.0651*%
%ADD137C,0.1320*%
%ADD138C,0.0300*%
D90*
X16572Y-6560D02*
G03*
X16572Y-6560I-110J0D01*
G01*
Y-5560D02*
G03*
X16572Y-5560I-110J0D01*
G01*
X16594D02*
G03*
X16594Y-5560I-110J0D01*
G01*
X29080Y5072D02*
G03*
X29080Y5072I-110J0D01*
G01*
X19604Y-1000D02*
G03*
X19604Y-1000I-110J0D01*
G01*
X19582D02*
G03*
X19582Y-1000I-110J0D01*
G01*
Y-4000D02*
G03*
X19582Y-4000I-110J0D01*
G01*
X19604D02*
G03*
X19604Y-4000I-110J0D01*
G01*
X18582D02*
G03*
X18582Y-4000I-110J0D01*
G01*
X18604D02*
G03*
X18604Y-4000I-110J0D01*
G01*
X18582Y-1000D02*
G03*
X18582Y-1000I-110J0D01*
G01*
X18604D02*
G03*
X18604Y-1000I-110J0D01*
G01*
X16572Y-6060D02*
G03*
X16572Y-6060I-110J0D01*
G01*
X16594D02*
G03*
X16594Y-6060I-110J0D01*
G01*
X35619Y6106D02*
G03*
X35619Y6106I-110J0D01*
G01*
X35640D02*
G03*
X35640Y6106I-110J0D01*
G01*
X29930Y4554D02*
G03*
X29930Y4554I-110J0D01*
G01*
Y4532D02*
G03*
X29930Y4532I-110J0D01*
G01*
X29080Y4554D02*
G03*
X29080Y4554I-110J0D01*
G01*
Y4532D02*
G03*
X29080Y4532I-110J0D01*
G01*
X29930Y5072D02*
G03*
X29930Y5072I-110J0D01*
G01*
X35619Y5536D02*
G03*
X35619Y5536I-110J0D01*
G01*
X35640D02*
G03*
X35640Y5536I-110J0D01*
G01*
X35619Y4966D02*
G03*
X35619Y4966I-110J0D01*
G01*
X35640D02*
G03*
X35640Y4966I-110J0D01*
G01*
X35619Y4396D02*
G03*
X35619Y4396I-110J0D01*
G01*
X35640D02*
G03*
X35640Y4396I-110J0D01*
G01*
X6020Y5356D02*
G03*
X6020Y5356I-110J0D01*
G01*
Y5378D02*
G03*
X6020Y5378I-110J0D01*
G01*
X6488Y-5900D02*
G03*
X6488Y-5900I-110J0D01*
G01*
Y-6400D02*
G03*
X6488Y-6400I-110J0D01*
G01*
Y-6900D02*
G03*
X6488Y-6900I-110J0D01*
G01*
X27900Y6729D02*
G03*
X27900Y6729I-110J0D01*
G01*
Y6751D02*
G03*
X27900Y6751I-110J0D01*
G01*
X27400Y6729D02*
G03*
X27400Y6729I-110J0D01*
G01*
Y6751D02*
G03*
X27400Y6751I-110J0D01*
G01*
X26900Y6729D02*
G03*
X26900Y6729I-110J0D01*
G01*
Y6751D02*
G03*
X26900Y6751I-110J0D01*
G01*
X26400Y6729D02*
G03*
X26400Y6729I-110J0D01*
G01*
Y6751D02*
G03*
X26400Y6751I-110J0D01*
G01*
X26628Y-1400D02*
G03*
X26628Y-1400I-110J0D01*
G01*
X25486D02*
G03*
X25486Y-1400I-110J0D01*
G01*
X25508D02*
G03*
X25508Y-1400I-110J0D01*
G01*
D91*
X16586Y-6560D02*
D03*
X16340D02*
D03*
Y-5560D02*
D03*
X16606D02*
D03*
X28970Y5196D02*
D03*
Y4950D02*
D03*
X19616Y-1000D02*
D03*
X19350D02*
D03*
Y-4000D02*
D03*
X19616D02*
D03*
X18350D02*
D03*
X18616D02*
D03*
X18350Y-1000D02*
D03*
X18616D02*
D03*
X16340Y-6060D02*
D03*
X16606D02*
D03*
X35387Y6106D02*
D03*
X35652D02*
D03*
X29820Y4676D02*
D03*
Y4410D02*
D03*
X28970Y4676D02*
D03*
Y4410D02*
D03*
X29820Y4950D02*
D03*
Y5196D02*
D03*
X35387Y5536D02*
D03*
X35652D02*
D03*
X35387Y4966D02*
D03*
X35652D02*
D03*
X35387Y4396D02*
D03*
X35652D02*
D03*
X5910Y5234D02*
D03*
Y5500D02*
D03*
X6500Y-5900D02*
D03*
X6254D02*
D03*
X6500Y-6400D02*
D03*
X6254D02*
D03*
X6500Y-6900D02*
D03*
X6254D02*
D03*
X27790Y6607D02*
D03*
Y6873D02*
D03*
X27290Y6607D02*
D03*
Y6873D02*
D03*
X26790Y6607D02*
D03*
Y6873D02*
D03*
X26290Y6607D02*
D03*
Y6873D02*
D03*
X26640Y-1400D02*
D03*
X26394D02*
D03*
X25254D02*
D03*
X25520D02*
D03*
D92*
X30268Y3319D02*
D03*
X31252D02*
D03*
D93*
X21500Y-4000D02*
D03*
X20500Y-3000D02*
D03*
X5000Y-250D02*
D03*
Y500D02*
D03*
X4000Y1500D02*
D03*
Y2500D02*
D03*
X18500Y-3000D02*
D03*
Y-2000D02*
D03*
X19500Y-3000D02*
D03*
Y-2000D02*
D03*
X21500Y-5000D02*
D03*
X7000Y-5250D02*
D03*
D94*
X27620Y-5097D02*
D03*
Y-4703D02*
D03*
X27180Y-3693D02*
D03*
Y-4087D02*
D03*
X26440Y-3693D02*
D03*
Y-4087D02*
D03*
X26120Y-4703D02*
D03*
Y-5097D02*
D03*
X26860Y-4703D02*
D03*
Y-5097D02*
D03*
X21240Y-1713D02*
D03*
Y-2107D02*
D03*
X7460Y1327D02*
D03*
Y1721D02*
D03*
Y2063D02*
D03*
Y2456D02*
D03*
X13506Y-5053D02*
D03*
Y-5447D02*
D03*
X12796Y-5053D02*
D03*
Y-5447D02*
D03*
X16336Y1737D02*
D03*
Y1343D02*
D03*
X8576Y-237D02*
D03*
Y157D02*
D03*
X8703Y-4907D02*
D03*
Y-4513D02*
D03*
X8329Y-4907D02*
D03*
Y-4513D02*
D03*
X3720Y7883D02*
D03*
Y8277D02*
D03*
X32150Y4697D02*
D03*
Y4303D02*
D03*
X34650D02*
D03*
Y4697D02*
D03*
Y5803D02*
D03*
Y6197D02*
D03*
X32150Y5803D02*
D03*
Y6197D02*
D03*
X6520Y5517D02*
D03*
Y5123D02*
D03*
X4360Y7157D02*
D03*
Y6763D02*
D03*
X5260Y7693D02*
D03*
Y8087D02*
D03*
X15820Y5933D02*
D03*
Y6327D02*
D03*
D95*
X23100Y-1363D02*
D03*
Y-1757D02*
D03*
X22680Y-1757D02*
D03*
Y-1363D02*
D03*
X22260Y-1757D02*
D03*
Y-1363D02*
D03*
X21840Y-1363D02*
D03*
Y-1757D02*
D03*
X37190Y2043D02*
D03*
Y2437D02*
D03*
X14576Y-5447D02*
D03*
Y-5053D02*
D03*
X11936Y-5447D02*
D03*
Y-5053D02*
D03*
X34490Y-1197D02*
D03*
Y-803D02*
D03*
X30930Y-1317D02*
D03*
Y-923D02*
D03*
X33940Y1523D02*
D03*
Y1917D02*
D03*
X34440Y2093D02*
D03*
Y2487D02*
D03*
Y673D02*
D03*
Y1067D02*
D03*
X34820Y-1197D02*
D03*
Y-803D02*
D03*
X9066Y2773D02*
D03*
Y3167D02*
D03*
X9096Y-237D02*
D03*
Y157D02*
D03*
X8226Y-237D02*
D03*
Y157D02*
D03*
X16336Y967D02*
D03*
Y573D02*
D03*
X16486Y-227D02*
D03*
Y167D02*
D03*
X16516Y-2143D02*
D03*
Y-2537D02*
D03*
X9096Y-957D02*
D03*
Y-563D02*
D03*
X31660Y3516D02*
D03*
Y3122D02*
D03*
X29850Y3526D02*
D03*
X29850Y3132D02*
D03*
X20610Y167D02*
D03*
Y-227D02*
D03*
X33890Y-6863D02*
D03*
Y-7256D02*
D03*
X20620Y2877D02*
D03*
Y2483D02*
D03*
X13556Y2707D02*
D03*
Y2313D02*
D03*
X10886Y2743D02*
D03*
Y3137D02*
D03*
D96*
X26070Y-4166D02*
D03*
Y-3614D02*
D03*
X26810Y-4166D02*
D03*
Y-3614D02*
D03*
X26490Y-5176D02*
D03*
Y-4624D02*
D03*
X25750Y-5176D02*
D03*
Y-4624D02*
D03*
D97*
X27971Y-7790D02*
D03*
X28365Y-7790D02*
D03*
X27971Y-7370D02*
D03*
X28365D02*
D03*
X27971Y-6950D02*
D03*
X28365D02*
D03*
X27971Y-6530D02*
D03*
X28365Y-6530D02*
D03*
X20444Y-1060D02*
D03*
X20051D02*
D03*
X20837D02*
D03*
X20443D02*
D03*
X16983Y-700D02*
D03*
X16589D02*
D03*
X15333Y-5130D02*
D03*
X15727D02*
D03*
X703Y-2380D02*
D03*
X1097D02*
D03*
X16053Y5010D02*
D03*
X16447D02*
D03*
X16053Y3800D02*
D03*
X16447D02*
D03*
X16053Y4640D02*
D03*
X16447D02*
D03*
X16053Y4220D02*
D03*
X16447D02*
D03*
X24567Y-1400D02*
D03*
X24173D02*
D03*
X21757Y1062D02*
D03*
X21363D02*
D03*
X21757Y642D02*
D03*
X21363D02*
D03*
X21757Y1482D02*
D03*
X21363D02*
D03*
D98*
X33152Y-7023D02*
D03*
Y-7338D02*
D03*
Y-7181D02*
D03*
Y-7496D02*
D03*
X32188Y-7023D02*
D03*
Y-7338D02*
D03*
Y-7181D02*
D03*
Y-7496D02*
D03*
X36545Y7626D02*
D03*
Y7469D02*
D03*
Y7311D02*
D03*
Y7154D02*
D03*
X37195D02*
D03*
Y7311D02*
D03*
Y7469D02*
D03*
Y7626D02*
D03*
X22012Y-476D02*
D03*
Y-319D02*
D03*
Y-161D02*
D03*
Y-4D02*
D03*
X21048D02*
D03*
Y-161D02*
D03*
Y-319D02*
D03*
Y-476D02*
D03*
X22012Y2264D02*
D03*
Y2421D02*
D03*
Y2579D02*
D03*
Y2736D02*
D03*
X21048D02*
D03*
Y2579D02*
D03*
Y2421D02*
D03*
Y2264D02*
D03*
D99*
X32906Y-6935D02*
D03*
X32749D02*
D03*
X32906Y-7584D02*
D03*
X32749D02*
D03*
X32591D02*
D03*
Y-6935D02*
D03*
X32434Y-6935D02*
D03*
Y-7584D02*
D03*
X36634Y6908D02*
D03*
X36791D02*
D03*
X36949D02*
D03*
X37106D02*
D03*
Y7872D02*
D03*
X36949D02*
D03*
X36791D02*
D03*
X36634D02*
D03*
X21294Y-565D02*
D03*
X21451D02*
D03*
X21609D02*
D03*
X21766Y-565D02*
D03*
Y85D02*
D03*
X21609D02*
D03*
X21451D02*
D03*
X21294D02*
D03*
Y2175D02*
D03*
X21451D02*
D03*
X21609D02*
D03*
X21766Y2175D02*
D03*
Y2825D02*
D03*
X21609D02*
D03*
X21451D02*
D03*
X21294D02*
D03*
D100*
X4844Y8080D02*
D03*
Y8336D02*
D03*
Y7824D02*
D03*
X4096Y8080D02*
D03*
Y8336D02*
D03*
Y7824D02*
D03*
X16316Y5734D02*
D03*
X16316Y5990D02*
D03*
X16316Y6246D02*
D03*
X17064D02*
D03*
Y5990D02*
D03*
Y5734D02*
D03*
D101*
X4827Y-2244D02*
D03*
X4000Y-1870D02*
D03*
Y-2618D02*
D03*
D102*
X4500Y-11350D02*
D03*
X38000Y9500D02*
D03*
D103*
X33429Y6000D02*
D03*
X33979D02*
D03*
X31479D02*
D03*
X30929D02*
D03*
X31479Y4500D02*
D03*
X30929D02*
D03*
X33979D02*
D03*
X33429D02*
D03*
D104*
X36794Y2324D02*
D03*
Y1516D02*
D03*
X36046Y2324D02*
D03*
Y1516D02*
D03*
D105*
X36877Y1920D02*
D03*
X35963D02*
D03*
D106*
X8683Y-3225D02*
D03*
Y-3795D02*
D03*
X8349Y-3225D02*
D03*
Y-3795D02*
D03*
D107*
X1618Y256D02*
D03*
Y512D02*
D03*
Y0D02*
D03*
Y-512D02*
D03*
Y-256D02*
D03*
D108*
X1530Y1260D02*
D03*
Y-1260D02*
D03*
D109*
X565Y-472D02*
D03*
Y472D02*
D03*
D110*
X3521Y534D02*
D03*
D111*
X2852Y-274D02*
D03*
X3600D02*
D03*
X2852Y534D02*
D03*
D112*
X5080Y-6548D02*
D03*
Y-6804D02*
D03*
Y-7060D02*
D03*
X4450Y-6804D02*
D03*
Y-6548D02*
D03*
Y-7060D02*
D03*
D113*
X10446Y3311D02*
D03*
Y2609D02*
D03*
X9506Y3311D02*
D03*
Y2609D02*
D03*
D114*
X15708Y665D02*
D03*
Y862D02*
D03*
Y-122D02*
D03*
Y468D02*
D03*
Y75D02*
D03*
Y272D02*
D03*
Y-1106D02*
D03*
Y-909D02*
D03*
Y-1500D02*
D03*
Y-1303D02*
D03*
Y-516D02*
D03*
Y-319D02*
D03*
Y-713D02*
D03*
Y-1894D02*
D03*
Y-1697D02*
D03*
Y-2287D02*
D03*
Y-2091D02*
D03*
Y-2484D02*
D03*
Y-3469D02*
D03*
Y-3272D02*
D03*
Y-3862D02*
D03*
Y-3665D02*
D03*
Y-2878D02*
D03*
Y-2681D02*
D03*
Y-3075D02*
D03*
X9744Y862D02*
D03*
Y665D02*
D03*
Y-516D02*
D03*
Y-319D02*
D03*
Y-909D02*
D03*
Y-713D02*
D03*
Y272D02*
D03*
Y468D02*
D03*
Y-122D02*
D03*
Y75D02*
D03*
Y-1894D02*
D03*
Y-1697D02*
D03*
Y-2287D02*
D03*
Y-2091D02*
D03*
Y-1303D02*
D03*
Y-1106D02*
D03*
Y-1500D02*
D03*
Y-3075D02*
D03*
Y-2484D02*
D03*
Y-2878D02*
D03*
Y-2681D02*
D03*
Y-3469D02*
D03*
Y-3665D02*
D03*
Y-3272D02*
D03*
Y-3862D02*
D03*
D115*
X15088Y1482D02*
D03*
X14891D02*
D03*
X14301D02*
D03*
X14104D02*
D03*
X14695D02*
D03*
X14498D02*
D03*
X13513D02*
D03*
X13317D02*
D03*
X13907D02*
D03*
X13710D02*
D03*
X13120D02*
D03*
X12923D02*
D03*
X12726D02*
D03*
X12529D02*
D03*
X12332D02*
D03*
X13317Y-4482D02*
D03*
X13120D02*
D03*
X13710D02*
D03*
X13513D02*
D03*
X12726D02*
D03*
X12529D02*
D03*
X12923D02*
D03*
X14695D02*
D03*
X14498D02*
D03*
X15088D02*
D03*
X14891D02*
D03*
X14104D02*
D03*
X13907D02*
D03*
X14301D02*
D03*
X11742Y1482D02*
D03*
X11545D02*
D03*
X12136D02*
D03*
X11939D02*
D03*
X10561D02*
D03*
X11348D02*
D03*
X11151D02*
D03*
X10954D02*
D03*
X10758D02*
D03*
X10364D02*
D03*
X11939Y-4482D02*
D03*
X11742D02*
D03*
X12332D02*
D03*
X12136D02*
D03*
X10954D02*
D03*
X11151D02*
D03*
X10758D02*
D03*
X11545D02*
D03*
X11348D02*
D03*
X10561D02*
D03*
X10364D02*
D03*
D116*
X33841Y866D02*
D03*
Y551D02*
D03*
Y709D02*
D03*
Y236D02*
D03*
Y394D02*
D03*
Y-79D02*
D03*
Y79D02*
D03*
Y-236D02*
D03*
Y-551D02*
D03*
Y-394D02*
D03*
Y-866D02*
D03*
Y-709D02*
D03*
X31459Y709D02*
D03*
Y866D02*
D03*
Y79D02*
D03*
Y236D02*
D03*
Y-79D02*
D03*
Y551D02*
D03*
Y394D02*
D03*
Y-551D02*
D03*
Y-236D02*
D03*
Y-394D02*
D03*
Y-709D02*
D03*
Y-866D02*
D03*
D117*
X33516Y1191D02*
D03*
X33201D02*
D03*
X33044D02*
D03*
X33359D02*
D03*
X32729D02*
D03*
X32571D02*
D03*
X32886D02*
D03*
X33516Y-1191D02*
D03*
X33359D02*
D03*
X33201D02*
D03*
X32886D02*
D03*
X32729D02*
D03*
X33044D02*
D03*
X32414D02*
D03*
X32571D02*
D03*
X32256Y1191D02*
D03*
X32099D02*
D03*
X32414D02*
D03*
X31941D02*
D03*
X31784D02*
D03*
X32099Y-1191D02*
D03*
X31941D02*
D03*
X32256D02*
D03*
X31784D02*
D03*
D118*
X32650Y0D02*
D03*
D119*
X33872Y2782D02*
D03*
X33482Y3171D02*
D03*
X33398Y2308D02*
D03*
X33009Y2698D02*
D03*
D120*
X30876Y800D02*
D03*
X30344D02*
D03*
X3956Y-3060D02*
D03*
X3424D02*
D03*
X16316Y2310D02*
D03*
X15784D02*
D03*
X3660Y-1090D02*
D03*
X4192D02*
D03*
X15092Y2730D02*
D03*
X14560D02*
D03*
D121*
X30010Y773D02*
D03*
Y1147D02*
D03*
X34440Y1393D02*
D03*
Y1767D02*
D03*
X34720Y-477D02*
D03*
Y-103D02*
D03*
X34440Y-27D02*
D03*
Y347D02*
D03*
D122*
X30350Y1776D02*
D03*
Y1244D02*
D03*
X31060Y1776D02*
D03*
Y1244D02*
D03*
X3470Y-1884D02*
D03*
Y-2416D02*
D03*
D123*
X26425Y1500D02*
D03*
Y500D02*
D03*
Y-500D02*
D03*
X24675Y1500D02*
D03*
Y500D02*
D03*
Y-500D02*
D03*
D124*
X25000Y-8923D02*
D03*
X24000D02*
D03*
X22000D02*
D03*
X23000D02*
D03*
X24000Y-10077D02*
D03*
X23000D02*
D03*
X25000D02*
D03*
X21000D02*
D03*
X22000D02*
D03*
X21000Y-8923D02*
D03*
X20000D02*
D03*
Y-10077D02*
D03*
X16400Y10077D02*
D03*
X15400D02*
D03*
X14400D02*
D03*
X12400D02*
D03*
X11400D02*
D03*
X13400D02*
D03*
X16400Y8923D02*
D03*
X15400D02*
D03*
X13400Y8923D02*
D03*
X12400Y8923D02*
D03*
X14400Y8923D02*
D03*
X10400Y10077D02*
D03*
X9400D02*
D03*
X8400D02*
D03*
X7400D02*
D03*
X11400Y8923D02*
D03*
X10400D02*
D03*
X9400D02*
D03*
X8400Y8923D02*
D03*
X7400D02*
D03*
X34000Y10077D02*
D03*
X32000D02*
D03*
X31000D02*
D03*
X33000D02*
D03*
X34000Y8923D02*
D03*
X33000D02*
D03*
X31000D02*
D03*
X30000D02*
D03*
X32000D02*
D03*
X30000Y10077D02*
D03*
X29000D02*
D03*
X28000D02*
D03*
X27000D02*
D03*
X29000Y8923D02*
D03*
X27000Y8923D02*
D03*
X28000D02*
D03*
X14400Y6077D02*
D03*
X13400D02*
D03*
X11400D02*
D03*
X10400D02*
D03*
X12400D02*
D03*
X13400Y4923D02*
D03*
X12400D02*
D03*
X14400D02*
D03*
X10400D02*
D03*
X9400D02*
D03*
X11400D02*
D03*
X9400Y6077D02*
D03*
X8400D02*
D03*
X7400D02*
D03*
X8400Y4923D02*
D03*
X7400D02*
D03*
X13000Y-10077D02*
D03*
X17000D02*
D03*
X13000Y-8923D02*
D03*
X17000D02*
D03*
X12000Y-10077D02*
D03*
X11000D02*
D03*
X16000D02*
D03*
X15000D02*
D03*
X18000D02*
D03*
X12000Y-8923D02*
D03*
X11000D02*
D03*
X16000Y-8923D02*
D03*
X15000Y-8923D02*
D03*
X18000D02*
D03*
X14000Y-10077D02*
D03*
Y-8923D02*
D03*
X23000Y10077D02*
D03*
X19000D02*
D03*
X23000Y8923D02*
D03*
X19000D02*
D03*
X24000Y10077D02*
D03*
X25000D02*
D03*
X20000D02*
D03*
X21000D02*
D03*
X18000D02*
D03*
X24000Y8923D02*
D03*
X25000D02*
D03*
X20000Y8923D02*
D03*
X21000Y8923D02*
D03*
X18000D02*
D03*
X22000Y10077D02*
D03*
Y8923D02*
D03*
D125*
X31749Y-4252D02*
D03*
Y-5827D02*
D03*
X29091D02*
D03*
Y-4252D02*
D03*
X36149D02*
D03*
Y-5827D02*
D03*
X33491Y-4252D02*
D03*
Y-5827D02*
D03*
X9599Y-8713D02*
D03*
Y-10287D02*
D03*
X6941Y-8713D02*
D03*
Y-10287D02*
D03*
X36149Y-8722D02*
D03*
Y-10297D02*
D03*
X33491Y-8722D02*
D03*
Y-10297D02*
D03*
X31749Y-8722D02*
D03*
Y-10297D02*
D03*
X29091Y-8722D02*
D03*
Y-10297D02*
D03*
D126*
X3164Y-8547D02*
D03*
X2180D02*
D03*
X3164Y-10713D02*
D03*
X2180D02*
D03*
X1196Y-8547D02*
D03*
Y-10713D02*
D03*
D127*
X2298Y8510D02*
D03*
Y9010D02*
D03*
Y10010D02*
D03*
Y9510D02*
D03*
Y8010D02*
D03*
X762Y10010D02*
D03*
Y9510D02*
D03*
Y9010D02*
D03*
Y8510D02*
D03*
Y8010D02*
D03*
D128*
X19250Y2500D02*
D03*
Y2000D02*
D03*
Y1000D02*
D03*
Y1500D02*
D03*
X18750Y1000D02*
D03*
X19250Y500D02*
D03*
X18750Y2500D02*
D03*
Y2000D02*
D03*
Y1500D02*
D03*
Y500D02*
D03*
D129*
X4650Y-5000D02*
D03*
Y-6000D02*
D03*
Y6000D02*
D03*
Y5000D02*
D03*
D130*
X34109Y3131D02*
D03*
X33831Y3409D02*
D03*
X33079Y1661D02*
D03*
X32801Y1939D02*
D03*
X33059Y2081D02*
D03*
X32781Y2359D02*
D03*
D131*
X35147Y1090D02*
D03*
X34753D02*
D03*
X3987Y-3480D02*
D03*
X3593D02*
D03*
X703Y-2740D02*
D03*
X1097D02*
D03*
X11073Y2080D02*
D03*
X10679D02*
D03*
X15133Y2330D02*
D03*
X14739D02*
D03*
X10753Y-5060D02*
D03*
X10359D02*
D03*
X16943Y-1760D02*
D03*
X16549D02*
D03*
X9113Y-2080D02*
D03*
X8719D02*
D03*
X9083Y-1280D02*
D03*
X8689D02*
D03*
X4013Y-690D02*
D03*
X3619D02*
D03*
X13193Y2250D02*
D03*
X12799D02*
D03*
X36553Y8330D02*
D03*
X36947D02*
D03*
D132*
X25120Y-5066D02*
D03*
X24620D02*
D03*
X24120D02*
D03*
X23620D02*
D03*
X23120D02*
D03*
X25120Y-3531D02*
D03*
X24620D02*
D03*
X24120D02*
D03*
X23620D02*
D03*
X23120D02*
D03*
D133*
X27000Y-9500D02*
D03*
X24000Y-11000D02*
D03*
X23000D02*
D03*
X25000D02*
D03*
X21000D02*
D03*
X22000D02*
D03*
X25000Y-12000D02*
D03*
X24000D02*
D03*
X22000D02*
D03*
X23000D02*
D03*
X20000Y-11000D02*
D03*
X21000Y-12000D02*
D03*
X14400Y12000D02*
D03*
X13400D02*
D03*
X15400D02*
D03*
X16400Y11000D02*
D03*
X15400D02*
D03*
X13400D02*
D03*
X12400D02*
D03*
X14400D02*
D03*
X12400Y12000D02*
D03*
X11400D02*
D03*
X10400D02*
D03*
X8400D02*
D03*
X7400D02*
D03*
X9400D02*
D03*
X10400Y11000D02*
D03*
X9400D02*
D03*
X11400D02*
D03*
X7400D02*
D03*
X8400D02*
D03*
X33000Y12000D02*
D03*
X32000D02*
D03*
X34000Y11000D02*
D03*
X32000D02*
D03*
X31000D02*
D03*
X33000D02*
D03*
X31000Y12000D02*
D03*
X30000D02*
D03*
X28000D02*
D03*
X27000D02*
D03*
X29000D02*
D03*
X30000Y11000D02*
D03*
X29000D02*
D03*
X27000D02*
D03*
X28000D02*
D03*
X19000Y12000D02*
D03*
Y11000D02*
D03*
X20000D02*
D03*
Y12000D02*
D03*
X22000Y11000D02*
D03*
Y12000D02*
D03*
X25000Y11000D02*
D03*
X24000Y12000D02*
D03*
Y11000D02*
D03*
X23000Y12000D02*
D03*
Y11000D02*
D03*
X21000Y12000D02*
D03*
Y11000D02*
D03*
X18000D02*
D03*
Y12000D02*
D03*
X17000Y-12000D02*
D03*
Y-11000D02*
D03*
X16000D02*
D03*
Y-12000D02*
D03*
X14000Y-11000D02*
D03*
Y-12000D02*
D03*
X11000Y-11000D02*
D03*
X12000Y-12000D02*
D03*
Y-11000D02*
D03*
X13000Y-12000D02*
D03*
Y-11000D02*
D03*
X15000Y-12000D02*
D03*
Y-11000D02*
D03*
X18000D02*
D03*
Y-12000D02*
D03*
X1500Y11750D02*
D03*
D134*
X565Y1299D02*
D03*
Y-1299D02*
D03*
D135*
X2880Y-5500D02*
D03*
Y5500D02*
D03*
D136*
X20000Y-12000D02*
D03*
X16400Y12000D02*
D03*
X34000D02*
D03*
X25000D02*
D03*
X11000Y-12000D02*
D03*
D137*
X38000Y-9500D02*
D03*
X6000Y9500D02*
D03*
X35500D02*
D03*
X5500Y-9500D02*
D03*
X26000Y3500D02*
D03*
Y-7500D02*
D03*
D138*
X5250Y-2260D02*
D03*
X4410Y-2250D02*
D03*
X3050Y-2590D02*
D03*
X2940Y-3060D02*
D03*
X5260Y2960D02*
D03*
X7666Y-1620D02*
D03*
X4516Y1820D02*
D03*
X4546Y-1100D02*
D03*
X2150Y-630D02*
D03*
X6586Y-2160D02*
D03*
X7916Y-260D02*
D03*
X3226Y-1000D02*
D03*
X3186Y2630D02*
D03*
X5240Y-770D02*
D03*
X3786Y1005D02*
D03*
X6856Y-750D02*
D03*
X4516Y2850D02*
D03*
X4326Y-705D02*
D03*
X2570Y1050D02*
D03*
X2390Y2240D02*
D03*
X1100Y-690D02*
D03*
X1130Y240D02*
D03*
M02*
