M48
;Layer_Color=9474304
;FILE_FORMAT=2:4
INCH,TZ
;TYPE=PLATED
T1F00S00C0.0120
T2F00S00C0.0130
T4F00S00C0.0354
T5F00S00C0.0394
T6F00S00C0.0701
T7F00S00C0.1260
;TYPE=NON_PLATED
T8F00S00C0.0390
%
T01
X500Y-12000
Y-10900
X1700Y-11000
X2700Y-10705
X3620
X3164Y-10020
X3164Y-7754
X2660Y-8190
X2170Y-7390
X2830Y-6120
X4050Y-6804
X3240Y-3490
X1710Y-3550
X310Y-3590
X1250Y-4630
X500Y-8000
X2400Y-11800
X4500Y-12000
X5500Y-11000
X6500Y-12000
X9000
X8500Y-11000
X10500
Y-12000
X11480Y-10350
X12490Y-10320
X12000Y-9500
X13000
X14000
X15000
X15490Y-9990
X16460Y-10020
X17460Y-10040
X18000Y-9500
X17520Y-9010
X16470Y-8980
X15530Y-8970
X15470Y-7330
X16380Y-7420
X16410Y-8000
X17430Y-7960
X19410Y-8010
X18920Y-6930
X18660Y-6120
Y-5660
X18200Y-5480
X16870Y-5240
X16010Y-4890
X15696Y-4240
X16500Y-4250
X15046Y-3540
X14696Y-3880
X13620Y-3600
X13110Y-3880
X12526Y-3900
X11866Y-3760
X11210Y-3560
X10506Y-3930
X9876Y-4400
X9770Y-5420
X10364Y-5498
X10736Y-5380
X11036Y-5310
X11150Y-5770
X11510Y-6120
X11610Y-5420
X11570Y-5040
X12450Y-5620
X13176Y-5660
X14220Y-5490
X14200Y-5120
X14920Y-5470
X15406Y-5430
X15830Y-6290
X13846Y-6270
X14000Y-7180
X12410Y-7330
X12170Y-6310
X10910Y-7060
X9590Y-7090
X9130Y-7330
X8620Y-8820
X9510Y-9560
X11000Y-9500
X11510Y-8570
X12490Y-8590
X7320Y-9580
X6600Y-7800
X5980Y-6400
X5920Y-5780
X5770Y-4880
X5700Y-4350
X5960Y-3780
X7966Y-3980
X8349Y-5207
X8683
X9176Y-5260
X9220Y-3440
X7380Y-5580
X19730Y-5210
X19470Y-10260
X20000Y-9500
X21000
X22000
X23000
X24000
X25000
X25590Y-8870
X26000Y-10000
X26240Y-10970
X27780
X28000Y-10000
X27300Y-8540
X28693Y-7790
Y-7370
X28696Y-6950
X28693Y-6530
X29080Y-6530
X30230Y-6789
X30430Y-8419
X30710Y-8722
X31300Y-7699
X31960Y-7723
X31860Y-7339
Y-6999
X32300Y-6669
X32490Y-7269
X32790Y-7259
X32750Y-7909
X33150Y-7828
X33530Y-6949
X33370Y-6589
X34580Y-6509
X34570Y-7269
X34410Y-8409
X34460Y-8722
X34940Y-9089
X35430Y-8409
X35220Y-6009
X34590Y-5160
X32760Y-5849
X32710Y-4179
X31550Y-4959
X30420Y-5039
X28490Y-5080
X27980Y-4790
X27620Y-5410
X27930Y-6150
X27640Y-4070
X27780Y-3760
Y-3460
Y-3160
X28680Y-3260
X25160Y-4230
X24620Y-4160
X24130
X22700Y-4060
X22070Y-3460
X22050Y-4990
X21200Y-5540
X20520Y-6070
X20470Y-7530
X21730Y-6570
X20960Y-4200
X25404Y-6116
X25130Y-6480
X27000Y-12000
X29000
X31000
X30120Y-11010
X29720Y-9509
X31720
X33720
X33310Y-11020
X33000Y-12000
X35000
X37000
X37050Y-11030
X36220Y-9509
X37000Y-8000
X37030Y-6650
X37090Y-4000
X35790Y-4969
X36990Y-1870
X37000Y0
Y1000
X36040Y1180
Y2710
X36790Y2670
X37000Y3000
X36490Y4000
X36210Y3880
X35930Y3760
X35650Y3640
X37000Y5000
X37410Y6140
X37730Y6440
X37461Y7000
X36870Y7270
X36100Y7340
X36210Y7650
X35950Y7800
X35940Y8100
X35520Y7890
X35652Y7067
X36470Y6590
X36770Y6490
X37470Y7870
X37140Y8630
X37000Y9000
X36530Y8660
X37000Y10000
X38500
X38630Y9190
X38500Y7000
Y5500
Y12000
X36000
X34500
Y10250
X34000Y9500
X33000
X32000
X31000
X30000
X29000
X28000
X27000
X26440Y10270
X25620Y10220
X25000Y9500
X24000
X23000
X22000
X21000
X20000
X21260Y5590
X22970Y6300
X22940Y3990
X23240
X23540
X23840
X24930Y4110
X24740Y5100
X25010Y5270
X25280Y5440
X26040Y4680
X25840Y7060
X25920Y8100
X26140Y11090
X32500Y10230
X32420Y8200
X31410Y7280
X32150Y6520
Y5020
X32950Y5130
X32780Y3860
X32450Y3940
X32210Y3650
X31660Y3850
X31030Y3970
X30230Y4800
X30130Y6590
X29270Y3620
X29230Y3120
X29170Y2560
Y2260
X29290Y1320
Y1013
Y713
Y413
Y113
Y-187
Y-487
Y-787
Y-1087
Y-1510
Y-1810
Y-2110
Y-2410
X28560Y-2960
X27780Y-2860
X26490Y-2370
X26100Y-2400
Y-2710
X25660Y-2570
X24690Y-2490
X24350Y-2550
X24410Y-2850
X23840Y-1400
X23898Y-1040
X23100Y-1035
X22680Y-1035
X22260Y-1032
X21840Y-1035
X21240Y-1380
X20820
X20590Y-540
X20310Y-680
X19910Y-1970
X21240Y-2420
X21840Y-2085
X22260Y-2085
X22680Y-2088
X23100Y-2085
X23370Y130
X22240Y580
X21032Y642
X21040Y339
X21029Y1062
X21032Y1482
X20790Y1272
X20580Y852
X20540Y1820
X20730Y2060
X21540Y2500
X21710Y3140
X20980Y3110
X20380Y3170
X19960Y3760
X22010Y3790
X22830Y3300
X22660Y2830
X22360Y2740
X22380Y2370
X22960Y1940
X23790Y2160
X23780Y2520
X24200
X24620
X24410Y2740
X23990
X24760Y1010
X25160Y1020
X25550Y1040
X26662Y1002
X27190Y990
X26990Y0
X26860Y-1180
X26394Y-960
X25880Y-1120
X30180Y-920
X30260Y-1370
X30960Y-1700
X31400Y-1610
X32940Y-2800
X33247
X33550
X33850
X34270Y-1480
X35200
Y700
X35260Y1490
Y2350
X34060Y2250
X34380Y2880
X34720Y3400
X33200Y3510
X32690Y2980
X32580Y2190
X31060Y2130
X30210
X30350Y2740
X30700Y1220
X31450Y1290
X33670Y1650
X34650Y5020
Y6520
X35050Y6870
X34340Y7100
X27170Y2820
X21800Y1850
X21670Y-240
X19610Y500
X19520Y1250
X19590Y2500
X18400Y2200
X18070Y1590
X17740Y1040
X17030Y1170
X17010Y470
X16816Y-200
X16196Y110
Y-690
X17330Y-690
X17520Y-1480
X16556Y-1480
X16206Y-2130
X17096Y-2100
X16346Y-2990
X15166Y-1790
X14196Y-1990
X14026Y-910
X12900Y-1920
X12856Y-2970
X11700Y-2970
X10526Y-3010
X10536Y-2710
X10310Y-2440
X10330Y-1970
X10326Y-1660
X10830Y-1840
X11630Y-1800
X11020Y-260
X10676Y-193
Y146
X11380Y610
X11810Y930
X12120Y830
X12180Y530
X12440Y160
X12650Y970
X13106Y970
X13076Y1970
X12970Y2580
X12690Y2770
X13200Y3030
X13540Y3010
X14396Y3100
X14916Y3110
X15400Y3100
X15800Y3050
X16280Y3070
X16340Y2700
X15920Y1850
X16006Y1130
X15036Y460
X14360Y2290
X13910Y3900
X13440
X12800Y3510
X12320Y3800
X11530Y3790
X11170Y3120
X10900Y2400
X10420Y2210
X10050Y2640
X9976Y3290
X8846Y3440
X8566Y2890
X7890Y4570
X8950Y4940
X9910Y5040
X9900Y6200
X8900Y6600
X7900Y6000
X8400Y5500
X6850Y5090
X6320Y4470
X5720Y4490
X5690Y5050
X6820Y3960
X5260Y2960
X4516Y2850
Y1820
X4326Y-705
X4546Y-1100
X5240Y-770
X5250Y-2260
X4410Y-2250
X6586Y-2160
X7666Y-1620
X8456Y-1670
X8836Y-1610
X8796Y-1000
X8786Y-635
X8846Y-290
X8866Y10
X8376Y610
X8226Y-570
X8206Y-1020
X7916Y-260
X6856Y-750
X7766Y-2630
X8716Y-2400
X9126Y-2380
X9186Y-2710
Y-3010
X7400Y6810
X6880Y7230
X6750Y8090
X5610Y8100
X5600Y7660
X4760Y7380
X4910Y8710
X4500Y10500
X6900
Y12000
X5400
X7400Y9500
X8400
X9400
X9890Y10080
X10890Y10100
X11400Y9500
X12400
X13400
X14400
X15400
X16400
X18000
X19000
X17870Y6330
X17590Y5840
X17150Y6670
X15970Y6940
X14680
X12910Y6960
X10890Y7020
X10700Y8160
X11760Y8130
X9900Y8820
X7820Y8010
X17020Y5010
X17027Y4640
X17027Y4220
Y3800
X17800Y3810
Y3380
X17360Y4430
X18090Y4980
X18430Y130
X3786Y1005
X2570Y1050
X2390Y2240
X3186Y2630
X960Y2570
X840Y3530
X470Y4580
X2320Y4850
X2250Y6670
X3380Y6810
X3100Y8500
X3000Y10000
X2500Y10500
Y12000
X500
Y10500
X670Y6830
X1130Y240
X1100Y-690
X2150Y-630
X3226Y-1000
X3050Y-2590
X2940Y-3060
X780Y-3080
X1080Y-1940
T02
X31941Y-709
X32414
X32886
X33359
Y-236
Y236
Y709
X32886
Y236
Y-236
X32414
Y236
Y709
X31941
Y236
Y-236
T04
X11000Y-12000
Y-11000
X12000
Y-12000
X13000
X14000
Y-11000
X13000
X15000
X16000
X17000
Y-12000
X16000
X15000
X18000
Y-11000
X20000
X21000
X22000
X23000
X24000
X25000
Y-12000
X24000
X23000
X22000
X21000
X20000
Y11000
Y12000
X21000
X22000
Y11000
X23000
X24000
X25000
Y12000
X24000
X23000
X21000Y11000
X27000
Y12000
X28000
X29000
X30000
X31000
X32000
X33000
X34000
Y11000
X33000
X32000
X31000
X30000
X29000
X28000
X19000
Y12000
X18000
Y11000
X16400
Y12000
X15400
X14400
X13400
Y11000
X12400
Y12000
X11400
X10400
X9400
X8400
X7400
Y11000
X8400
X9400
X10400
X11400
X14400
X15400
T05
X27000Y-9500
X1500Y11750
T06
X2880Y-5500
Y5500
T07
X5500Y-9500
X26000Y-7500
X38000Y-9500
X35500Y9500
X26000Y3500
X6000Y9500
T08
X19000Y-0
X19400Y3000
X18600
M30
