<?xml version="1.0" encoding="UTF-8" standalone="no"?>
<!DOCTYPE svg PUBLIC "-//W3C//DTD SVG 1.1//EN" "http://www.w3.org/Graphics/SVG/1.1/DTD/svg11.dtd">
<!-- Generated by Microsoft Visio, SVG Export blinky_rtx.svg Page-1 -->
<svg xmlns="http://www.w3.org/2000/svg" xmlns:xlink="http://www.w3.org/1999/xlink" xmlns:ev="http://www.w3.org/2001/xml-events"
		width="8.05084in" height="6.34546in" viewBox="0 0 579.66 456.873" xml:space="preserve" color-interpolation-filters="sRGB"
		class="st11">
	<style type="text/css">
	<![CDATA[
		.st1 {fill:#c4dbf2;stroke:#000000;stroke-linecap:round;stroke-linejoin:round;stroke-width:0.24}
		.st2 {fill:#000000;font-family:Arial;font-size:1.00001em}
		.st3 {font-size:1em}
		.st4 {marker-end:url(#mrkr13-34);stroke:#000000;stroke-linecap:round;stroke-linejoin:round;stroke-width:0.24}
		.st5 {fill:#000000;fill-opacity:1;stroke:#000000;stroke-opacity:1;stroke-width:0.08695652173913}
		.st6 {stroke:#000000;stroke-linecap:round;stroke-linejoin:round;stroke-width:5.25}
		.st7 {fill:#ffffff;stroke:none;stroke-linecap:butt;stroke-width:7.2}
		.st8 {fill:#4677bf;fill-opacity:1;stroke:#4677bf;stroke-opacity:1;stroke-width:0.16556291390728}
		.st9 {marker-end:url(#mrkr4-83);stroke:#000000;stroke-linecap:round;stroke-linejoin:round;stroke-width:0.5}
		.st10 {fill:#000000;fill-opacity:1;stroke:#000000;stroke-opacity:1;stroke-width:0.16556291390728}
		.st11 {fill:none;fill-rule:evenodd;font-size:12px;overflow:visible;stroke-linecap:square;stroke-miterlimit:3}
	]]>
	</style>

	<defs id="Markers">
		<g id="lend13">
			<path d="M 3 1 L 0 0 L 3 -1 L 3 1 " style="stroke:none"/>
		</g>
		<marker id="mrkr13-34" class="st5" refX="-34.5" orient="auto" markerUnits="strokeWidth" overflow="visible">
			<use xlink:href="#lend13" transform="scale(-11.5,-11.5) "/>
		</marker>
		<g id="lend4">
			<path d="M 2 1 L 0 0 L 2 -1 L 2 1 " style="stroke:none"/>
		</g>
		<marker id="mrkr4-74" class="st8" refX="-12.08" orient="auto" markerUnits="strokeWidth" overflow="visible">
			<use xlink:href="#lend4" transform="scale(-6.04,-6.04) "/>
		</marker>
		<marker id="mrkr4-83" class="st10" refX="-12.08" orient="auto" markerUnits="strokeWidth" overflow="visible">
			<use xlink:href="#lend4" transform="scale(-6.04,-6.04) "/>
		</marker>
	</defs>
	<g>
		<title>Page-1</title>
		<g id="shape227-1" transform="translate(238.625,-429.753)">
			<title>Start/End-point</title>
			<desc>Start</desc>
			<path d="M13.5 456.87 L58.5 456.87 A13.5 13.5 -180 0 0 58.5 429.87 L13.5 429.87 A13.5 13.5 -180 1 0 13.5 456.87 Z"
					class="st1"/>
			<text x="23.33" y="446.97" class="st2">Start</text>		</g>
		<g id="shape228-4" transform="translate(228.625,-354.493)">
			<title>Process.245</title>
			<desc>Configuration</desc>
			<rect x="0" y="402.873" width="92" height="54" class="st1"/>
			<text x="10.31" y="433.47" class="st2">Configuration</text>		</g>
		<g id="shape229-7" transform="translate(197.625,-246.753)">
			<title>Process.229</title>
			<desc>Waiting for SIGNAL_LED_1_TOGGLE</desc>
			<rect x="0" y="402.873" width="154" height="54" class="st1"/>
			<text x="48.32" y="426.27" class="st2">Waiting for <tspan x="4.97" dy="1.2em" class="st3">SIGNAL</tspan>_LED_1_TOGGLE</text>		</g>
		<g id="shape230-11" transform="translate(2.625,-246.753)">
			<title>Process.230</title>
			<desc>Waiting for osDelay</desc>
			<rect x="0" y="402.873" width="154" height="54" class="st1"/>
			<text x="24.98" y="433.47" class="st2">Waiting for osDelay</text>		</g>
		<g id="shape231-14" transform="translate(392.625,-246.753)">
			<title>Process.231</title>
			<desc>Waiting for timer expires</desc>
			<rect x="0" y="402.873" width="154" height="54" class="st1"/>
			<text x="12.31" y="433.47" class="st2">Waiting for timer expires</text>		</g>
		<g id="shape232-17" transform="translate(197.625,-45.7529)">
			<title>Process.232</title>
			<desc>Toggling LED_1</desc>
			<rect x="0" y="402.873" width="154" height="54" class="st1"/>
			<text x="33.97" y="433.47" class="st2">Toggling LED_1</text>		</g>
		<g id="shape233-20" transform="translate(2.625,-129.753)">
			<title>Process.233</title>
			<desc>Sending SINGAL_LED_1_TOGGLE</desc>
			<rect x="0" y="402.873" width="154" height="54" class="st1"/>
			<text x="54.98" y="426.27" class="st2">Sending <tspan x="4.97" dy="1.2em" class="st3">SINGAL</tspan>_LED_1_TOGGLE</text>		</g>
		<g id="shape234-24" transform="translate(392.625,-129.753)">
			<title>Process.234</title>
			<desc>Toggling LED_0</desc>
			<rect x="0" y="402.873" width="154" height="54" class="st1"/>
			<text x="33.97" y="433.47" class="st2">Toggling LED_0</text>		</g>
		<g id="shape235-27" transform="translate(238.625,-162.753)">
			<title>Decision.251</title>
			<path d="M0 429.87 L36 402.87 L72 429.87 L36 456.87 L0 429.87 Z" class="st1"/>
		</g>
		<g id="shape236-29" transform="translate(731.498,27.12) rotate(90)">
			<title>Flowline1</title>
			<path d="M0 456.87 L12.98 456.87" class="st4"/>
		</g>
		<g id="shape237-35" transform="translate(731.498,102.38) rotate(90)">
			<title>Flowline1.237</title>
			<path d="M0 456.87 L11.46 456.87" class="st4"/>
		</g>
		<g id="shape238-40" transform="translate(2.625,-333.753)">
			<title>Sheet.238</title>
			<path d="M0 456.87 L544 456.87" class="st6"/>
		</g>
		<g id="shape239-43" transform="translate(731.498,122.12) rotate(90)">
			<title>Flowline1.239</title>
			<path d="M0 456.87 L25.72 456.87" class="st4"/>
		</g>
		<g id="shape240-48" transform="translate(536.498,123.12) rotate(90)">
			<title>Flowline1.240</title>
			<path d="M0 456.87 L24.72 456.87" class="st4"/>
		</g>
		<g id="shape241-53" transform="translate(926.498,123.12) rotate(90)">
			<title>Flowline1.241</title>
			<path d="M0 456.87 L24.72 456.87" class="st4"/>
		</g>
		<g id="shape242-58" transform="translate(731.498,210.12) rotate(90)">
			<title>Flowline1.242</title>
			<path d="M0 456.87 L21.72 456.87" class="st4"/>
		</g>
		<g id="shape243-63" transform="translate(731.498,294.12) rotate(90)">
			<title>Flowline1.243</title>
			<desc>Get SIGNAL_LED_1_TOGGLE</desc>
			<path d="M0 456.87 L54.72 456.87" class="st4"/>
			<rect x="-535.913" y="16.8002" width="166.742" height="14.4001" transform="rotate(-90)" class="st7"/>
			<text x="-535.91" y="27.6" transform="rotate(-90)" class="st2">Get SIGNAL_LED_1_TOGGLE</text>		</g>
		<g id="group244-70" transform="translate(310.625,-189.753)">
			<title>Flowline2</title>
			<desc>No signal</desc>
			<g id="shape245-71" transform="translate(41,837.744) rotate(180)">
				<title>Straight Edge.28</title>
				<desc>N</desc>
			</g>
			<g id="shape246-75" transform="translate(-18.0036,9.00182)">
				<title>Straight Edge.29</title>
				<desc>N</desc>
			</g>
			<g id="shape244-78">
				<path d="M0 456.87 L42 456.87 A18 18 -180 0 0 60 438.87 L60 399.37 A9.5 9.5 -180 0 0 50.5 389.87 L47.04 389.87"
						class="st9"/>
				<rect x="15.986" y="432.673" width="50.0282" height="14.4001" class="st7"/>
				<text x="15.99" y="443.47" class="st2">No signal</text>			</g>
		</g>
		<g id="shape247-86" transform="translate(536.498,210.12) rotate(90)">
			<title>Flowline1.247</title>
			<desc>After(LED_1_INTERVAL)</desc>
			<path d="M0 456.87 L54.72 456.87" class="st4"/>
			<rect x="-526.233" y="12.8002" width="135.382" height="14.4001" transform="rotate(-90)" class="st7"/>
			<text x="-526.23" y="23.6" transform="rotate(-90)" class="st2">After(LED_1_INTERVAL)</text>		</g>
		<g id="group248-93" transform="translate(79.625,-129.753)">
			<title>Flowline2.248</title>
			<g id="shape249-94" transform="translate(77,755.042) rotate(180)">
				<title>Straight Edge.28</title>
				<desc>N</desc>
			</g>
			<g id="shape250-97" transform="translate(447.871,438.869) rotate(90)">
				<title>Straight Edge.29</title>
				<desc>N</desc>
			</g>
			<g id="shape248-100">
				<path d="M0 456.87 L0 477.87 A18 18 -180 0 0 18 495.87 L83.34 495.87 A18 18 -180 0 0 101.34 477.87 L101.34 319.34
							 A12.171 12.171 -180 0 0 89.17 307.17 L83.04 307.17" class="st9"/>
			</g>
		</g>
		<g id="group251-105" transform="translate(469.625,-129.753)">
			<title>Flowline2.251</title>
			<g id="shape252-106" transform="translate(77,760.744) rotate(180)">
				<title>Straight Edge.28</title>
				<desc>N</desc>
			</g>
			<g id="shape253-109" transform="translate(447.871,438.869) rotate(90)">
				<title>Straight Edge.29</title>
				<desc>N</desc>
			</g>
			<g id="shape251-112">
				<path d="M0 456.87 L0 476.57 A18 18 -180 0 0 18 494.57 L85.28 494.57 A18 18 -180 0 0 103.28 476.57 L103.28 326.01
							 A13.1411 13.1411 -180 0 0 90.14 312.87 L83.04 312.87" class="st9"/>
			</g>
		</g>
		<g id="shape254-117" transform="translate(926.498,210.12) rotate(90)">
			<title>Flowline1.254</title>
			<desc>led_toggle_timer expired</desc>
			<path d="M0 456.87 L54.72 456.87" class="st4"/>
			<rect x="-524.25" y="12.8002" width="131.416" height="14.4001" transform="rotate(-90)" class="st7"/>
			<text x="-524.25" y="23.6" transform="rotate(-90)" class="st2">led_toggle_timer expired</text>		</g>
		<g id="group258-124" transform="translate(274.625,-45.7529)">
			<title>Flowline2.258</title>
			<g id="shape259-125" transform="translate(77,676.744) rotate(180)">
				<title>Straight Edge.28</title>
				<desc>N</desc>
			</g>
			<g id="shape260-128" transform="translate(447.871,438.869) rotate(90)">
				<title>Straight Edge.29</title>
				<desc>N</desc>
			</g>
			<g id="shape258-131">
				<path d="M0 456.87 L0 477.87 A18 18 -180 0 0 18 495.87 L90 495.87 A18 18 -180 0 0 108 477.87 L108 244.37 A15.5 15.5
							 -180 0 0 92.5 228.87 L83.04 228.87" class="st9"/>
			</g>
		</g>
	</g>
</svg>
