<?xml version="1.0" encoding="UTF-8" standalone="no"?>
<!DOCTYPE svg PUBLIC "-//W3C//DTD SVG 1.1//EN" "http://www.w3.org/Graphics/SVG/1.1/DTD/svg11.dtd">
<!-- Generated by Microsoft Visio, SVG Export command_and_response_diagram2.svg Page-1 -->
<svg xmlns="http://www.w3.org/2000/svg" xmlns:xlink="http://www.w3.org/1999/xlink" xmlns:ev="http://www.w3.org/2001/xml-events"
		width="6.84194in" height="3.19778in" viewBox="0 0 492.62 230.24" xml:space="preserve" color-interpolation-filters="sRGB"
		class="st16">
	<style type="text/css">
	<![CDATA[
		.st1 {fill:#ffffff}
		.st2 {stroke:#000000;stroke-linecap:round;stroke-linejoin:round;stroke-width:0.24}
		.st3 {fill:#000000;font-family:Arial;font-size:1.00001em}
		.st4 {font-size:1em}
		.st5 {stroke:#000000;stroke-dasharray:3.6,2.16;stroke-linecap:round;stroke-linejoin:round;stroke-width:0.24}
		.st6 {marker-end:url(#mrkr13-77);stroke:#000000;stroke-linecap:round;stroke-linejoin:round;stroke-width:0.24}
		.st7 {fill:#000000;fill-opacity:1;stroke:#000000;stroke-opacity:1;stroke-width:0.08695652173913}
		.st8 {fill:#ffffff;stroke:none;stroke-linecap:butt;stroke-width:7.2}
		.st9 {stroke:#bfbfbf;stroke-linecap:round;stroke-linejoin:round;stroke-width:0.75}
		.st10 {marker-end:url(#mrkr5-114);marker-start:url(#mrkr5-112);stroke:#000000;stroke-linecap:round;stroke-linejoin:round;stroke-width:0.75}
		.st11 {fill:#000000;fill-opacity:1;stroke:#000000;stroke-opacity:1;stroke-width:0.22935779816514}
		.st12 {fill:none;stroke:none;stroke-linecap:round;stroke-linejoin:round;stroke-width:0.75}
		.st13 {fill:#000000;font-family:Arial;font-size:1.00001em;font-weight:bold}
		.st14 {fill:#009cde;fill-opacity:0.27;stroke:#000000;stroke-linecap:round;stroke-linejoin:round;stroke-opacity:0.098;stroke-width:0.24}
		.st15 {fill:#dc582a;fill-opacity:0.42;stroke:#000000;stroke-linecap:round;stroke-linejoin:round;stroke-opacity:0.098;stroke-width:0.24}
		.st16 {fill:none;fill-rule:evenodd;font-size:12px;overflow:visible;stroke-linecap:square;stroke-miterlimit:3}
	]]>
	</style>

	<defs id="Markers">
		<g id="lend13">
			<path d="M 3 1 L 0 0 L 3 -1 L 3 1 " style="stroke:none"/>
		</g>
		<marker id="mrkr13-77" class="st7" refX="-34.5" orient="auto" markerUnits="strokeWidth" overflow="visible">
			<use xlink:href="#lend13" transform="scale(-11.5,-11.5) "/>
		</marker>
		<g id="lend5">
			<path d="M 2 1 L 0 0 L 1.98117 -0.993387 C 1.67173 -0.364515 1.67301 0.372641 1.98465 1.00043 " style="stroke:none"/>
		</g>
		<marker id="mrkr5-112" class="st11" refX="7.15" orient="auto" markerUnits="strokeWidth" overflow="visible">
			<use xlink:href="#lend5" transform="scale(4.36) "/>
		</marker>
		<marker id="mrkr5-114" class="st11" refX="-7.63" orient="auto" markerUnits="strokeWidth" overflow="visible">
			<use xlink:href="#lend5" transform="scale(-4.36,-4.36) "/>
		</marker>
	</defs>
	<g>
		<title>Page-1</title>
		<g id="group227-1" transform="translate(22.5,-182.12)">
			<title>Sheet.227</title>
			<g id="shape228-2" transform="translate(110,2.84217E-014)">
				<title>Sheet.228</title>
				<path d="M0 230.24 L0 194.24 L0 230.24 Z" class="st1"/>
			</g>
			<g id="shape229-5">
				<title>Sheet.229</title>
				<path d="M110 230.24 L0 230.24 L110 230.24 Z" class="st1"/>
			</g>
			<g id="shape230-8">
				<title>Sheet.230</title>
				<path d="M110 230.24 L0 230.24 L110 230.24 Z" class="st1"/>
			</g>
			<g id="shape231-11">
				<title>Sheet.231</title>
				<path d="M110 230.24 L0 230.24 L110 230.24 Z" class="st1"/>
			</g>
			<g id="shape232-14">
				<title>Sheet.232</title>
				<desc>Bluetooth Application Chip</desc>
				<path d="M110 230.24 L110 194.24 L0 194.24 L0 230.24 L110 230.24 ZM0 230.24 L0 194.24 L0 230.24 ZM110 194.24 L110
							 230.24 L110 194.24 Z" class="st1"/>
				<path d="M110 230.24 L110 194.24" class="st2"/>
				<path d="M0 230.24 L0 194.24" class="st2"/>
				<path d="M0 194.24 L110 194.24" class="st2"/>
				<path d="M0 230.24 L110 230.24" class="st2"/>
				<text x="29.65" y="208.64" class="st3">Bluetooth <tspan x="11.64" dy="1.2em" class="st4">Application Chip</tspan></text>			</g>
		</g>
		<g id="group233-22" transform="translate(217.01,-182.12)">
			<title>Sheet.233</title>
			<g id="shape234-23" transform="translate(100,2.84217E-014)">
				<title>Sheet.234</title>
				<path d="M0 230.24 L0 194.24 L0 230.24 Z" class="st1"/>
			</g>
			<g id="shape235-26">
				<title>Sheet.235</title>
				<path d="M100 230.24 L0 230.24 L100 230.24 Z" class="st1"/>
			</g>
			<g id="shape236-29">
				<title>Sheet.236</title>
				<path d="M100 230.24 L0 230.24 L100 230.24 Z" class="st1"/>
			</g>
			<g id="shape237-32">
				<title>Sheet.237</title>
				<path d="M100 230.24 L0 230.24 L100 230.24 Z" class="st1"/>
			</g>
			<g id="shape238-35">
				<title>Sheet.238</title>
				<desc>BLE Connectivity Codec</desc>
				<path d="M100 230.24 L100 194.24 L0 194.24 L0 230.24 L100 230.24 ZM0 230.24 L0 194.24 L0 230.24 ZM100 194.24 L100
							 230.24 L100 194.24 Z" class="st1"/>
				<path d="M100 230.24 L100 194.24" class="st2"/>
				<path d="M0 230.24 L0 194.24" class="st2"/>
				<path d="M0 194.24 L100 194.24" class="st2"/>
				<path d="M0 230.24 L100 230.24" class="st2"/>
				<text x="4.31" y="208.64" class="st3">BLE Connectivity <tspan x="32.66" dy="1.2em" class="st4">Codec</tspan></text>			</g>
		</g>
		<g id="group239-43" transform="translate(377.01,-182.12)">
			<title>Sheet.239</title>
			<g id="shape240-44" transform="translate(100,2.84217E-014)">
				<title>Sheet.240</title>
				<path d="M0 230.24 L0 194.24 L0 230.24 Z" class="st1"/>
			</g>
			<g id="shape241-47">
				<title>Sheet.241</title>
				<path d="M100 230.24 L0 230.24 L100 230.24 Z" class="st1"/>
			</g>
			<g id="shape242-50">
				<title>Sheet.242</title>
				<path d="M100 230.24 L0 230.24 L100 230.24 Z" class="st1"/>
			</g>
			<g id="shape243-53">
				<title>Sheet.243</title>
				<path d="M100 230.24 L0 230.24 L100 230.24 Z" class="st1"/>
			</g>
			<g id="shape244-56">
				<title>Sheet.244</title>
				<desc>BLE SoftDevice</desc>
				<path d="M100 230.24 L100 194.24 L0 194.24 L0 230.24 L100 230.24 ZM0 230.24 L0 194.24 L0 230.24 ZM100 194.24 L100
							 230.24 L100 194.24 Z" class="st1"/>
				<path d="M100 230.24 L100 194.24" class="st2"/>
				<path d="M0 230.24 L0 194.24" class="st2"/>
				<path d="M0 194.24 L100 194.24" class="st2"/>
				<path d="M0 230.24 L100 230.24" class="st2"/>
				<text x="7.98" y="215.84" class="st3">BLE SoftDevice</text>			</g>
		</g>
		<g id="shape245-63" transform="translate(77.5,278.36) scale(1,-1)">
			<title>Lifeline.42</title>
			<path d="M0 230.24 L0 48.24" class="st5"/>
		</g>
		<g id="shape246-66" transform="translate(267.01,278.36) scale(1,-1)">
			<title>Lifeline.246</title>
			<path d="M0 230.24 L0 48.24" class="st5"/>
		</g>
		<g id="shape247-69" transform="translate(427.01,278.36) scale(1,-1)">
			<title>Lifeline.247</title>
			<path d="M0 230.24 L0 48.24" class="st5"/>
		</g>
		<g id="shape248-72" transform="translate(77.5,-137.12)">
			<title>Sheet.248</title>
			<desc>Command / DTM Command</desc>
			<path d="M0 230.24 L181.23 230.24" class="st6"/>
			<rect x="51.9911" y="212.84" width="84.6804" height="28.8001" class="st8"/>
			<text x="64.99" y="223.64" class="st3">Command /  <tspan x="51.99" dy="1.2em" class="st4">DTM Command</tspan></text>		</g>
		<g id="shape249-81" transform="translate(267.01,-119.12)">
			<title>Sheet.249</title>
			<desc>Function call</desc>
			<path d="M0 230.24 L151.72 230.24" class="st6"/>
			<rect x="39.648" y="222.04" width="67.3665" height="14.4001" class="st8"/>
			<text x="39.65" y="232.84" class="st3">Function call</text>		</g>
		<g id="shape250-88" transform="translate(427.01,377.36) rotate(180)">
			<title>Sheet.250</title>
			<desc>SoftDevice response</desc>
			<path d="M0 230.24 L151.72 230.24" class="st6"/>
			<rect x="-131.032" y="-239.44" width="110.727" height="14.4001" transform="rotate(180)" class="st8"/>
			<text x="-131.03" y="-228.64" transform="rotate(180)" class="st3">SoftDevice response</text>		</g>
		<g id="shape251-95" transform="translate(267.01,404.36) rotate(180)">
			<title>Sheet.251</title>
			<desc>Command Response / DTM Command Response</desc>
			<path d="M0 230.24 L181.23 230.24" class="st6"/>
			<rect x="-178.694" y="-243.64" width="142.05" height="28.8001" transform="rotate(180)" class="st8"/>
			<text x="-165.7" y="-232.84" transform="rotate(180)" class="st3">Command Response / <tspan x="-178.69" dy="1.2em"
						class="st4">DTM Command Response</tspan></text>		</g>
		<g id="shape267-103" transform="translate(76.5,404.36) rotate(180)">
			<title>Sheet.267</title>
			<path d="M0 230.24 L36 230.24" class="st9"/>
		</g>
		<g id="shape268-106" transform="translate(-189.74,174.12) rotate(-90)">
			<title>Sheet.268</title>
			<desc>Wait</desc>
			<path d="M5.36 230.24 L5.72 230.24 L75.28 230.24" class="st10"/>
			<rect x="218.24" y="-47.6999" width="24.0005" height="14.4001" transform="rotate(90)" class="st8"/>
			<text x="218.24" y="-36.9" transform="rotate(90)" class="st3">Wait</text>		</g>
		<g id="shape269-117" transform="translate(40.5,-137.12)">
			<title>Sheet.269</title>
			<path d="M0 230.24 L36 230.24" class="st9"/>
		</g>
		<g id="shape277-120" transform="translate(7.5,-142.12)">
			<title>Sheet.277</title>
			<desc>Command execution</desc>
			<rect x="0" y="202.24" width="70" height="28" class="st12"/>
			<text x="5.67" y="212.64" class="st13">Command <tspan x="6.99" dy="1.2em" class="st4">execution</tspan></text>		</g>
		<g id="shape279-124" transform="translate(267.01,-123.12)">
			<title>Sheet.279</title>
			<desc>Command decode</desc>
			<rect x="0" y="202.24" width="130" height="28" class="st12"/>
			<text x="12.99" y="219.84" class="st13">Command decode</text>		</g>
		<g id="shape280-127" transform="translate(267.01,-50.12)">
			<title>Sheet.280</title>
			<desc>Response encode</desc>
			<rect x="0" y="202.24" width="130" height="28" class="st12"/>
			<text x="13.65" y="219.84" class="st13">Response encode</text>		</g>
		<g id="shape284-130" transform="translate(202.5,-0.12)">
			<title>Sheet.284</title>
			<rect x="0" y="0.240003" width="290" height="230" rx="11.3386" ry="11.3386" class="st14"/>
		</g>
		<g id="shape285-132" transform="translate(2.5,-0.12)">
			<title>Sheet.285</title>
			<rect x="0" y="0.240003" width="145" height="230" rx="11.3386" ry="11.3386" class="st15"/>
		</g>
	</g>
</svg>
