<?xml version="1.0" encoding="UTF-8" standalone="no"?>
<!DOCTYPE svg PUBLIC "-//W3C//DTD SVG 1.1//EN" "http://www.w3.org/Graphics/SVG/1.1/DTD/svg11.dtd">
<!-- Generated by Microsoft Visio, SVG Export event_send_diagram2.svg Page-1 -->
<svg xmlns="http://www.w3.org/2000/svg" xmlns:xlink="http://www.w3.org/1999/xlink" xmlns:ev="http://www.w3.org/2001/xml-events"
		width="7.5416in" height="2.08667in" viewBox="0 0 542.995 150.24" xml:space="preserve" color-interpolation-filters="sRGB"
		class="st13">
	<style type="text/css">
	<![CDATA[
		.st1 {fill:#ffffff}
		.st2 {stroke:#000000;stroke-linecap:round;stroke-linejoin:round;stroke-width:0.24}
		.st3 {fill:#000000;font-family:Arial;font-size:1.00001em}
		.st4 {font-size:1em}
		.st5 {stroke:#000000;stroke-dasharray:3.6,2.16;stroke-linecap:round;stroke-linejoin:round;stroke-width:0.24}
		.st6 {marker-end:url(#mrkr13-77);stroke:#000000;stroke-linecap:round;stroke-linejoin:round;stroke-width:0.24}
		.st7 {fill:#000000;fill-opacity:1;stroke:#000000;stroke-opacity:1;stroke-width:0.08695652173913}
		.st8 {fill:#ffffff;stroke:none;stroke-linecap:butt;stroke-width:7.2}
		.st9 {fill:none;stroke:none;stroke-linecap:round;stroke-linejoin:round;stroke-width:0.75}
		.st10 {fill:#000000;font-family:Arial;font-size:1.00001em;font-weight:bold}
		.st11 {fill:#009cde;fill-opacity:0.27;stroke:#000000;stroke-linecap:round;stroke-linejoin:round;stroke-opacity:0.098;stroke-width:0.24}
		.st12 {fill:#dc582a;fill-opacity:0.42;stroke:#000000;stroke-linecap:round;stroke-linejoin:round;stroke-opacity:0.098;stroke-width:0.24}
		.st13 {fill:none;fill-rule:evenodd;font-size:12px;overflow:visible;stroke-linecap:square;stroke-miterlimit:3}
	]]>
	</style>

	<defs id="Markers">
		<g id="lend13">
			<path d="M 3 1 L 0 0 L 3 -1 L 3 1 " style="stroke:none"/>
		</g>
		<marker id="mrkr13-77" class="st7" refX="-34.5" orient="auto" markerUnits="strokeWidth" overflow="visible">
			<use xlink:href="#lend13" transform="scale(-11.5,-11.5) "/>
		</marker>
	</defs>
	<g>
		<title>Page-1</title>
		<g id="group227-1" transform="translate(17.62,-102.12)">
			<title>Sheet.227</title>
			<g id="shape228-2" transform="translate(110,0)">
				<title>Sheet.228</title>
				<path d="M0 150.24 L0 114.24 L0 150.24 Z" class="st1"/>
			</g>
			<g id="shape229-5">
				<title>Sheet.229</title>
				<path d="M110 150.24 L0 150.24 L110 150.24 Z" class="st1"/>
			</g>
			<g id="shape230-8">
				<title>Sheet.230</title>
				<path d="M110 150.24 L0 150.24 L110 150.24 Z" class="st1"/>
			</g>
			<g id="shape231-11">
				<title>Sheet.231</title>
				<path d="M110 150.24 L0 150.24 L110 150.24 Z" class="st1"/>
			</g>
			<g id="shape232-14">
				<title>Sheet.232</title>
				<desc>Bluetooth Application Chip</desc>
				<path d="M110 150.24 L110 114.24 L0 114.24 L0 150.24 L110 150.24 ZM0 150.24 L0 114.24 L0 150.24 ZM110 114.24 L110
							 150.24 L110 114.24 Z" class="st1"/>
				<path d="M110 150.24 L110 114.24" class="st2"/>
				<path d="M0 150.24 L0 114.24" class="st2"/>
				<path d="M0 114.24 L110 114.24" class="st2"/>
				<path d="M0 150.24 L110 150.24" class="st2"/>
				<text x="29.65" y="128.64" class="st3">Bluetooth <tspan x="11.64" dy="1.2em" class="st4">Application Chip</tspan></text>			</g>
		</g>
		<g id="group233-22" transform="translate(212.13,-102.12)">
			<title>Sheet.233</title>
			<g id="shape234-23" transform="translate(100,0)">
				<title>Sheet.234</title>
				<path d="M0 150.24 L0 114.24 L0 150.24 Z" class="st1"/>
			</g>
			<g id="shape235-26">
				<title>Sheet.235</title>
				<path d="M100 150.24 L0 150.24 L100 150.24 Z" class="st1"/>
			</g>
			<g id="shape236-29">
				<title>Sheet.236</title>
				<path d="M100 150.24 L0 150.24 L100 150.24 Z" class="st1"/>
			</g>
			<g id="shape237-32">
				<title>Sheet.237</title>
				<path d="M100 150.24 L0 150.24 L100 150.24 Z" class="st1"/>
			</g>
			<g id="shape238-35">
				<title>Sheet.238</title>
				<desc>BLE Connectivity Codec</desc>
				<path d="M100 150.24 L100 114.24 L0 114.24 L0 150.24 L100 150.24 ZM0 150.24 L0 114.24 L0 150.24 ZM100 114.24 L100
							 150.24 L100 114.24 Z" class="st1"/>
				<path d="M100 150.24 L100 114.24" class="st2"/>
				<path d="M0 150.24 L0 114.24" class="st2"/>
				<path d="M0 114.24 L100 114.24" class="st2"/>
				<path d="M0 150.24 L100 150.24" class="st2"/>
				<text x="4.31" y="128.64" class="st3">BLE Connectivity <tspan x="32.66" dy="1.2em" class="st4">Codec</tspan></text>			</g>
		</g>
		<g id="group239-43" transform="translate(372.13,-102.12)">
			<title>Sheet.239</title>
			<g id="shape240-44" transform="translate(100,0)">
				<title>Sheet.240</title>
				<path d="M0 150.24 L0 114.24 L0 150.24 Z" class="st1"/>
			</g>
			<g id="shape241-47">
				<title>Sheet.241</title>
				<path d="M100 150.24 L0 150.24 L100 150.24 Z" class="st1"/>
			</g>
			<g id="shape242-50">
				<title>Sheet.242</title>
				<path d="M100 150.24 L0 150.24 L100 150.24 Z" class="st1"/>
			</g>
			<g id="shape243-53">
				<title>Sheet.243</title>
				<path d="M100 150.24 L0 150.24 L100 150.24 Z" class="st1"/>
			</g>
			<g id="shape244-56">
				<title>Sheet.244</title>
				<desc>BLE SoftDevice</desc>
				<path d="M100 150.24 L100 114.24 L0 114.24 L0 150.24 L100 150.24 ZM0 150.24 L0 114.24 L0 150.24 ZM100 114.24 L100
							 150.24 L100 114.24 Z" class="st1"/>
				<path d="M100 150.24 L100 114.24" class="st2"/>
				<path d="M0 150.24 L0 114.24" class="st2"/>
				<path d="M0 114.24 L100 114.24" class="st2"/>
				<path d="M0 150.24 L100 150.24" class="st2"/>
				<text x="7.98" y="135.84" class="st3">BLE SoftDevice</text>			</g>
		</g>
		<g id="shape245-63" transform="translate(72.62,198.36) scale(1,-1)">
			<title>Lifeline.42</title>
			<path d="M0 150.24 L0 48.24" class="st5"/>
		</g>
		<g id="shape246-66" transform="translate(262.13,198.36) scale(1,-1)">
			<title>Lifeline.246</title>
			<path d="M0 150.24 L0 48.24" class="st5"/>
		</g>
		<g id="shape247-69" transform="translate(422.13,198.36) scale(1,-1)">
			<title>Lifeline.247</title>
			<path d="M0 150.24 L0 48.24" class="st5"/>
		</g>
		<g id="shape250-72" transform="translate(422.13,234.36) rotate(180)">
			<title>Sheet.250</title>
			<desc>SoftDevice event</desc>
			<path d="M0 150.24 L151.72 150.24" class="st6"/>
			<rect x="-121.027" y="-159.44" width="90.7166" height="14.4001" transform="rotate(180)" class="st8"/>
			<text x="-121.03" y="-148.64" transform="rotate(180)" class="st3">SoftDevice event</text>		</g>
		<g id="shape251-80" transform="translate(262.13,261.36) rotate(180)">
			<title>Sheet.251</title>
			<desc>Event</desc>
			<path d="M0 150.24 L181.23 150.24" class="st6"/>
			<rect x="-109.853" y="-158.44" width="30.6862" height="14.4001" transform="rotate(180)" class="st8"/>
			<text x="-109.85" y="-147.64" transform="rotate(180)" class="st3">Event</text>		</g>
		<g id="shape279-87" transform="translate(412.62,-66.12)">
			<title>Sheet.279</title>
			<desc>Event triggered</desc>
			<rect x="0" y="131.24" width="130" height="19" class="st9"/>
			<text x="20.99" y="144.34" class="st10">Event triggered</text>		</g>
		<g id="shape280-90" transform="translate(252.62,-38.12)">
			<title>Sheet.280</title>
			<desc>Event encode</desc>
			<rect x="0" y="122.24" width="130" height="28" class="st9"/>
			<text x="25.99" y="139.84" class="st10">Event encode</text>		</g>
		<g id="shape284-93" transform="translate(187.62,-0.12)">
			<title>Sheet.284</title>
			<rect x="0" y="0.239994" width="350" height="150" rx="11.3386" ry="11.3386" class="st11"/>
		</g>
		<g id="shape285-95" transform="translate(0.12,-0.12)">
			<title>Sheet.285</title>
			<rect x="0" y="0.239994" width="145" height="150" rx="11.3386" ry="11.3386" class="st12"/>
		</g>
	</g>
</svg>
