<?xml version="1.0" encoding="UTF-8" standalone="no"?>
<!DOCTYPE svg PUBLIC "-//W3C//DTD SVG 1.1//EN" "http://www.w3.org/Graphics/SVG/1.1/DTD/svg11.dtd">
<!-- Generated by Microsoft Visio, SVG Export serialization_porting_guide_spi2.svg Page-1 -->
<svg xmlns="http://www.w3.org/2000/svg" xmlns:xlink="http://www.w3.org/1999/xlink" xmlns:ev="http://www.w3.org/2001/xml-events"
		width="11.6473in" height="6.55914in" viewBox="0 0 838.602 472.258" xml:space="preserve" color-interpolation-filters="sRGB"
		class="st10">
	<style type="text/css">
	<![CDATA[
		.st1 {fill:#009cde;stroke:#000000;stroke-linecap:round;stroke-linejoin:round;stroke-width:0.24}
		.st2 {fill:#000000;font-family:Arial;font-size:1.00001em}
		.st3 {marker-end:url(#mrkr13-12);marker-start:url(#mrkr13-10);stroke:#000000;stroke-linecap:round;stroke-linejoin:round;stroke-width:0.24}
		.st4 {fill:#000000;fill-opacity:1;stroke:#000000;stroke-opacity:1;stroke-width:0.08695652173913}
		.st5 {fill:#c4dbf2;stroke:#000000;stroke-linecap:round;stroke-linejoin:round;stroke-width:0.24}
		.st6 {stroke:#000000;stroke-dasharray:7.5,4.5;stroke-linecap:round;stroke-linejoin:round;stroke-width:0.5}
		.st7 {fill:none;stroke:none;stroke-linecap:round;stroke-linejoin:round;stroke-width:0.72}
		.st8 {font-size:1em}
		.st9 {marker-end:url(#mrkr13-12);stroke:#000000;stroke-linecap:round;stroke-linejoin:round;stroke-width:0.24}
		.st10 {fill:none;fill-rule:evenodd;font-size:12px;overflow:visible;stroke-linecap:square;stroke-miterlimit:3}
	]]>
	</style>

	<defs id="Markers">
		<g id="lend13">
			<path d="M 3 1 L 0 0 L 3 -1 L 3 1 " style="stroke:none"/>
		</g>
		<marker id="mrkr13-10" class="st4" refX="33" orient="auto" markerUnits="strokeWidth" overflow="visible">
			<use xlink:href="#lend13" transform="scale(11.5) "/>
		</marker>
		<marker id="mrkr13-12" class="st4" refX="-34.5" orient="auto" markerUnits="strokeWidth" overflow="visible">
			<use xlink:href="#lend13" transform="scale(-11.5,-11.5) "/>
		</marker>
	</defs>
	<g>
		<title>Page-1</title>
		<g id="shape227-1" transform="translate(76.5328,-71.0983)">
			<title>Rectangle.37</title>
			<desc>SPI</desc>
			<rect x="0" y="424.149" width="96.2183" height="48.1092" class="st1"/>
			<text x="38.44" y="451.8" class="st2">SPI</text>		</g>
		<g id="shape228-4" transform="translate(-328.906,353.051) rotate(-90)">
			<title>Sheet.228</title>
			<path d="M7.92 472.26 L8.28 472.26 L87.94 472.26" class="st3"/>
		</g>
		<g id="shape229-13" transform="translate(77.3347,-367.771)">
			<title>Rectangle.4</title>
			<desc>ser_hal_transport.c</desc>
			<rect x="0" y="424.149" width="311.908" height="48.1092" class="st5"/>
			<text x="104.59" y="451.8" class="st2">ser_hal_transport.c</text>		</g>
		<g id="shape230-16" transform="translate(12.3873,-135.244)">
			<title>Sheet.230</title>
			<path d="M0 472.26 L825.96 472.26" class="st6"/>
		</g>
		<g id="shape231-19" transform="translate(12.3873,-55.0619)">
			<title>Sheet.231</title>
			<path d="M0 472.26 L825.96 472.26" class="st6"/>
		</g>
		<g id="shape232-22" transform="translate(6.47915,-199.389)">
			<title>Sheet.232</title>
			<path d="M0 472.26 L831.87 472.26" class="st6"/>
		</g>
		<g id="shape233-25" transform="translate(4.3691,-351.735)">
			<title>Sheet.233</title>
			<path d="M0 472.26 L833.98 472.26" class="st6"/>
		</g>
		<g id="shape234-28" transform="translate(10.4113,-80.7201)">
			<title>Sheet.234</title>
			<desc>H/W</desc>
			<rect x="0" y="449.629" width="42.4392" height="22.6291" class="st7"/>
			<text x="9.56" y="464.54" class="st2">H/W</text>		</g>
		<g id="shape235-31" transform="translate(12.3873,-154.309)">
			<title>Sheet.235</title>
			<desc>IRQ</desc>
			<rect x="0" y="449.629" width="42.4392" height="22.6291" class="st7"/>
			<text x="10.55" y="464.54" class="st2">IRQ</text>		</g>
		<g id="shape236-34" transform="translate(68.3521,-159.298)">
			<title>Rectangle.151</title>
			<desc>SPI_IRQ</desc>
			<rect x="0" y="448.203" width="56.1274" height="24.0546" class="st1"/>
			<text x="4.39" y="463.83" class="st2">SPI_IRQ</text>		</g>
		<g id="shape237-37" transform="translate(76.5328,-215.426)">
			<title>Rectangle.152</title>
			<desc>spi_master.c</desc>
			<rect x="0" y="424.149" width="82.7356" height="48.1092" class="st1"/>
			<text x="7.36" y="451.8" class="st2">spi_master.c</text>		</g>
		<g id="shape238-40" transform="translate(0.36,-255.517)">
			<title>Sheet.238</title>
			<desc>H/W drv</desc>
			<rect x="0" y="424.149" width="56.1274" height="48.1092" class="st7"/>
			<text x="16.4" y="444.6" class="st2">H/W <tspan x="19.73" dy="1.2em" class="st8">drv</tspan></text>		</g>
		<g id="shape239-44" transform="translate(-411.761,449.269) rotate(-90)">
			<title>Sheet.239</title>
			<path d="M0 472.26 L449.02 472.26" class="st6"/>
		</g>
		<g id="shape240-47" transform="translate(252.933,-215.426)">
			<title>Rectangle.155</title>
			<desc>app_gpio_fast_detect.c</desc>
			<rect x="0" y="424.149" width="136.309" height="48.1092" class="st1"/>
			<text x="6.11" y="451.8" class="st2">app_gpio_fast_detect.c</text>		</g>
		<g id="shape241-50" transform="translate(12.3873,-431.917)">
			<title>Sheet.241</title>
			<path d="M0 472.26 L825.96 472.26" class="st6"/>
		</g>
		<g id="shape242-53" transform="translate(121.435,-285.986)">
			<title>Rectangle.157</title>
			<desc>ser_phy_nrf51_spi_master.c</desc>
			<rect x="0" y="424.149" width="192.437" height="48.1092" class="st1"/>
			<text x="20.51" y="451.8" class="st2">ser_phy_nrf51_spi_master.c</text>		</g>
		<g id="shape243-56" transform="translate(154.724,-159.298)">
			<title>Rectangle.158</title>
			<desc>SW_IRQ3</desc>
			<rect x="0" y="448.203" width="63.5828" height="24.0546" class="st1"/>
			<text x="4.79" y="463.83" class="st2">SW_IRQ3</text>		</g>
		<g id="shape244-59" transform="translate(225.617,-159.298)">
			<title>Rectangle.159</title>
			<desc>GPIOTE_IRQ</desc>
			<rect x="0" y="448.203" width="82.7356" height="24.0546" class="st1"/>
			<text x="4.69" y="463.83" class="st2">GPIOTE_IRQ</text>		</g>
		<g id="shape245-62" transform="translate(325.66,-159.298)">
			<title>Rectangle.160</title>
			<desc>SW_IRQ1</desc>
			<rect x="0" y="448.203" width="63.5828" height="24.0546" class="st1"/>
			<text x="4.79" y="463.83" class="st2">SW_IRQ1</text>		</g>
		<g id="shape246-65" transform="translate(276.988,-71.0983)">
			<title>Rectangle.162</title>
			<desc>GPIO</desc>
			<rect x="0" y="424.149" width="96.2183" height="48.1092" class="st1"/>
			<text x="33.11" y="451.8" class="st2">GPIO</text>		</g>
		<g id="shape247-68" transform="translate(-74.9974,453.675) rotate(-90)">
			<title>Sheet.247</title>
			<path d="M0 472.26 L449.02 472.26" class="st6"/>
		</g>
		<g id="shape248-71" transform="translate(0.36,-367.771)">
			<title>Sheet.248</title>
			<desc>HAL</desc>
			<rect x="0" y="424.149" width="56.1274" height="48.1092" class="st7"/>
			<text x="16.39" y="451.8" class="st2">HAL</text>		</g>
		<g id="shape249-74" transform="translate(-375.842,353.051) rotate(-90)">
			<title>Sheet.249</title>
			<path d="M7.92 472.26 L8.28 472.26 L31.81 472.26" class="st3"/>
		</g>
		<g id="shape250-81" transform="translate(-375.842,288.905) rotate(-90)">
			<title>Sheet.250</title>
			<path d="M7.92 472.26 L8.28 472.26 L23.79 472.26" class="st3"/>
		</g>
		<g id="shape251-88" transform="translate(-285.743,288.905) rotate(-90)">
			<title>Sheet.251</title>
			<path d="M7.92 472.26 L8.28 472.26 L94.35 472.26" class="st3"/>
		</g>
		<g id="shape252-95" transform="translate(-151.17,353.051) rotate(-90)">
			<title>Sheet.252</title>
			<path d="M7.92 472.26 L8.28 472.26 L87.94 472.26" class="st3"/>
		</g>
		<g id="shape253-102" transform="translate(-188.906,353.051) rotate(-90)">
			<title>Sheet.253</title>
			<path d="M7.92 472.26 L8.28 472.26 L31.81 472.26" class="st3"/>
		</g>
		<g id="shape254-109" transform="translate(-189.784,288.905) rotate(-90)">
			<title>Sheet.254</title>
			<path d="M7.92 472.26 L8.28 472.26 L23.79 472.26" class="st3"/>
		</g>
		<g id="shape255-116" transform="translate(-114.807,288.905) rotate(-90)">
			<title>Sheet.255</title>
			<path d="M7.92 472.26 L8.28 472.26 L23.79 472.26" class="st3"/>
		</g>
		<g id="shape256-123" transform="translate(-259.416,138.163) rotate(-90)">
			<title>Sheet.256</title>
			<path d="M7.92 472.26 L8.28 472.26 L25.4 472.26" class="st3"/>
		</g>
		<g id="shape257-130" transform="translate(-303.906,449.091) rotate(-90)">
			<title>Sheet.257</title>
			<path d="M0 472.26 L39.65 472.26" class="st9"/>
		</g>
		<g id="shape258-135" transform="translate(596.9,401.16) rotate(90)">
			<title>Sheet.258</title>
			<path d="M0 472.26 L39.83 472.26" class="st9"/>
		</g>
		<g id="shape259-140" transform="translate(557.624,401.16) rotate(90)">
			<title>Sheet.259</title>
			<path d="M0 472.26 L39.83 472.26" class="st9"/>
		</g>
		<g id="shape260-145" transform="translate(-115.088,449.269) rotate(-90)">
			<title>Sheet.260</title>
			<path d="M0 472.26 L39.83 472.26" class="st9"/>
		</g>
		<g id="shape261-150" transform="translate(765.282,401.16) rotate(90)">
			<title>Sheet.261</title>
			<path d="M0 472.26 L39.83 472.26" class="st9"/>
		</g>
		<g id="shape262-155" transform="translate(-147.161,449.269) rotate(-90)">
			<title>Sheet.262</title>
			<path d="M0 472.26 L39.83 472.26" class="st9"/>
		</g>
		<g id="shape263-160" transform="translate(-331.58,208.723) rotate(-90)">
			<title>Sheet.263</title>
			<path d="M7.92 472.26 L8.28 472.26 L14.17 472.26" class="st3"/>
		</g>
		<g id="shape264-167" transform="translate(-177.63,208.723) rotate(-90)">
			<title>Sheet.264</title>
			<path d="M7.92 472.26 L8.28 472.26 L14.17 472.26" class="st3"/>
		</g>
		<g id="shape265-174" transform="translate(67.1325,-0.36)">
			<title>Sheet.265</title>
			<desc>CLK</desc>
			<rect x="0" y="449.629" width="42.4392" height="22.6291" class="st7"/>
			<text x="9.55" y="464.54" class="st2">CLK</text>		</g>
		<g id="shape266-177" transform="translate(103.422,-0.36)">
			<title>Sheet.266</title>
			<desc>MOSI</desc>
			<rect x="0" y="449.629" width="42.4392" height="22.6291" class="st7"/>
			<text x="5.89" y="464.54" class="st2">MOSI</text>		</g>
		<g id="shape267-180" transform="translate(147.133,-0.538181)">
			<title>Sheet.267</title>
			<desc>MISO</desc>
			<rect x="0" y="449.629" width="42.4392" height="22.6291" class="st7"/>
			<text x="5.89" y="464.54" class="st2">MISO</text>		</g>
		<g id="shape268-183" transform="translate(271.804,-0.36)">
			<title>Sheet.268</title>
			<desc>/CS</desc>
			<rect x="0" y="449.629" width="42.4392" height="22.6291" class="st7"/>
			<text x="11.22" y="464.54" class="st2">/CS</text>		</g>
		<g id="shape269-186" transform="translate(306.712,-0.36)">
			<title>Sheet.269</title>
			<desc>/RDY</desc>
			<rect x="0" y="449.629" width="42.4392" height="22.6291" class="st7"/>
			<text x="6.88" y="464.54" class="st2">/RDY</text>		</g>
		<g id="shape270-189" transform="translate(341.133,-0.36)">
			<title>Sheet.270</title>
			<desc>/REQ</desc>
			<rect x="0" y="449.629" width="42.4392" height="22.6291" class="st7"/>
			<text x="6.55" y="464.54" class="st2">/REQ</text>		</g>
		<g id="shape271-192" transform="translate(432.524,-159.298)">
			<title>Rectangle.191</title>
			<desc>SW_IRQ2</desc>
			<rect x="0" y="448.203" width="63.5828" height="24.0546" class="st1"/>
			<text x="4.79" y="463.83" class="st2">SW_IRQ2</text>		</g>
		<g id="shape272-195" transform="translate(405.279,-367.771)">
			<title>Rectangle.192</title>
			<desc>ser_app_hal_nrf51.c</desc>
			<rect x="0" y="424.149" width="118.073" height="48.1092" class="st5"/>
			<text x="4.33" y="451.8" class="st2">ser_app_hal_nrf51.c</text>		</g>
		<g id="shape273-198" transform="translate(-7.94251,288.905) rotate(-90)">
			<title>Sheet.273</title>
			<path d="M7.92 472.26 L8.28 472.26 L176.14 472.26" class="st3"/>
		</g>
		<g id="shape274-205" transform="translate(66.0942,453.675) rotate(-90)">
			<title>Sheet.274</title>
			<path d="M0 472.26 L449.02 472.26" class="st6"/>
		</g>
		<g id="shape275-208" transform="translate(552.225,-367.771)">
			<title>Rectangle.196</title>
			<desc>app_timer.c</desc>
			<rect x="0" y="424.149" width="112.255" height="48.1092" class="st5"/>
			<text x="24.78" y="451.8" class="st2">app_timer.c</text>		</g>
		<g id="shape276-211" transform="translate(616.561,-159.298)">
			<title>Rectangle.197</title>
			<desc>RTC_IRQ</desc>
			<rect x="0" y="448.203" width="63.5828" height="24.0546" class="st1"/>
			<text x="5.46" y="463.83" class="st2">RTC_IRQ</text>		</g>
		<g id="shape277-214" transform="translate(543.705,-159.298)">
			<title>Rectangle.198</title>
			<desc>SW_IRQ0</desc>
			<rect x="0" y="448.203" width="63.5828" height="24.0546" class="st1"/>
			<text x="4.79" y="463.83" class="st2">SW_IRQ0</text>		</g>
		<g id="shape278-217" transform="translate(103.239,288.905) rotate(-90)">
			<title>Sheet.278</title>
			<path d="M7.92 472.26 L8.28 472.26 L176.14 472.26" class="st3"/>
		</g>
		<g id="shape279-224" transform="translate(176.094,288.905) rotate(-90)">
			<title>Sheet.279</title>
			<path d="M7.92 472.26 L8.28 472.26 L176.14 472.26" class="st3"/>
		</g>
		<g id="shape280-231" transform="translate(216.094,453.675) rotate(-90)">
			<title>Sheet.280</title>
			<path d="M0 472.26 L449.02 472.26" class="st6"/>
		</g>
		<g id="shape281-234" transform="translate(702.134,-70.8004)">
			<title>Rectangle.202</title>
			<desc>NVMC</desc>
			<rect x="0" y="424.149" width="96.2183" height="48.1092" class="st1"/>
			<text x="30.44" y="451.8" class="st2">NVMC</text>		</g>
		<g id="shape282-237" transform="translate(557.069,-70.8004)">
			<title>Rectangle.203</title>
			<desc>RTC</desc>
			<rect x="0" y="424.149" width="96.2183" height="48.1092" class="st1"/>
			<text x="35.78" y="451.8" class="st2">RTC</text>		</g>
		<g id="shape283-240" transform="translate(159.085,353.348) rotate(-90)">
			<title>Sheet.283</title>
			<path d="M7.92 472.26 L8.28 472.26 L31.81 472.26" class="st3"/>
		</g>
		<g id="shape284-247" transform="translate(699.998,-367.771)">
			<title>Rectangle.205</title>
			<desc>pstorage_nosd.c</desc>
			<rect x="0" y="424.149" width="98.3545" height="48.1092" class="st5"/>
			<text x="4.81" y="451.8" class="st2">pstorage_nosd.c</text>		</g>
		<g id="shape285-250" transform="translate(277.985,353.348) rotate(-90)">
			<title>Sheet.285</title>
			<path d="M7.92 472.26 L8.28 472.26 L88.24 472.26" class="st3"/>
		</g>
		<g id="shape286-257" transform="translate(702.134,-215.426)">
			<title>Rectangle.207</title>
			<desc>ble_flash.c</desc>
			<rect x="0" y="424.149" width="96.2183" height="48.1092" class="st1"/>
			<text x="19.42" y="451.8" class="st2">ble_flash.c</text>		</g>
		<g id="shape287-260" transform="translate(278.01,213.562) rotate(-90.5871)">
			<title>Sheet.287</title>
			<path d="M7.92 472.26 L8.28 472.26 L95.96 472.26" class="st3"/>
		</g>
	</g>
</svg>
