<?xml version="1.0" encoding="UTF-8" standalone="no"?>
<!DOCTYPE svg PUBLIC "-//W3C//DTD SVG 1.1//EN" "http://www.w3.org/Graphics/SVG/1.1/DTD/svg11.dtd">
<!-- Generated by Microsoft Visio, SVG Export serialization_porting_guide_hci2.svg Page-1 -->
<svg xmlns="http://www.w3.org/2000/svg" xmlns:xlink="http://www.w3.org/1999/xlink" xmlns:ev="http://www.w3.org/2001/xml-events"
		width="9.81859in" height="6.50672in" viewBox="0 0 706.938 468.484" xml:space="preserve" color-interpolation-filters="sRGB"
		class="st10">
	<style type="text/css">
	<![CDATA[
		.st1 {fill:#009cde;stroke:#000000;stroke-linecap:round;stroke-linejoin:round;stroke-width:0.24}
		.st2 {fill:#000000;font-family:Arial;font-size:1.00001em}
		.st3 {marker-end:url(#mrkr13-12);marker-start:url(#mrkr13-10);stroke:#000000;stroke-linecap:round;stroke-linejoin:round;stroke-width:0.24}
		.st4 {fill:#000000;fill-opacity:1;stroke:#000000;stroke-opacity:1;stroke-width:0.08695652173913}
		.st5 {fill:#c4dbf2;stroke:#000000;stroke-linecap:round;stroke-linejoin:round;stroke-width:0.24}
		.st6 {stroke:#000000;stroke-dasharray:7.5,4.5;stroke-linecap:round;stroke-linejoin:round;stroke-width:0.5}
		.st7 {fill:none;stroke:none;stroke-linecap:round;stroke-linejoin:round;stroke-width:0.72}
		.st8 {font-size:1em}
		.st9 {marker-end:url(#mrkr13-12);stroke:#000000;stroke-linecap:round;stroke-linejoin:round;stroke-width:0.24}
		.st10 {fill:none;fill-rule:evenodd;font-size:12px;overflow:visible;stroke-linecap:square;stroke-miterlimit:3}
	]]>
	</style>

	<defs id="Markers">
		<g id="lend13">
			<path d="M 3 1 L 0 0 L 3 -1 L 3 1 " style="stroke:none"/>
		</g>
		<marker id="mrkr13-10" class="st4" refX="33" orient="auto" markerUnits="strokeWidth" overflow="visible">
			<use xlink:href="#lend13" transform="scale(11.5) "/>
		</marker>
		<marker id="mrkr13-12" class="st4" refX="-34.5" orient="auto" markerUnits="strokeWidth" overflow="visible">
			<use xlink:href="#lend13" transform="scale(-11.5,-11.5) "/>
		</marker>
	</defs>
	<g>
		<title>Page-1</title>
		<g id="shape227-1" transform="translate(73.874,-62.8797)">
			<title>Rectangle.37</title>
			<desc>UART</desc>
			<rect x="0" y="425.964" width="87.8142" height="42.5197" class="st1"/>
			<text x="27.57" y="450.82" class="st2">UART</text>		</g>
		<g id="shape228-4" transform="translate(-311.796,363.085) rotate(-90)">
			<title>Sheet.228</title>
			<path d="M7.92 468.48 L8.28 468.48 L76.76 468.48" class="st3"/>
		</g>
		<g id="shape229-13" transform="translate(73.874,-394.533)">
			<title>Rectangle.4</title>
			<desc>ser_hal_transport.c</desc>
			<rect x="0" y="425.964" width="197.814" height="42.5197" class="st5"/>
			<text x="47.55" y="450.82" class="st2">ser_hal_transport.c</text>		</g>
		<g id="shape230-16" transform="translate(10.415,-119.573)">
			<title>Sheet.230</title>
			<path d="M0 468.48 L696.27 468.48" class="st6"/>
		</g>
		<g id="shape231-19" transform="translate(10.415,-48.7065)">
			<title>Sheet.231</title>
			<path d="M0 468.48 L696.27 468.48" class="st6"/>
		</g>
		<g id="shape232-22" transform="translate(5.91727,-176.266)">
			<title>Sheet.232</title>
			<path d="M0 468.48 L700.77 468.48" class="st6"/>
		</g>
		<g id="shape233-25" transform="translate(4.31095,-380.36)">
			<title>Sheet.233</title>
			<path d="M0 468.48 L702.38 468.48" class="st6"/>
		</g>
		<g id="shape234-28" transform="translate(10.2656,-71.3836)">
			<title>Sheet.234</title>
			<desc>H/W</desc>
			<rect x="0" y="448.484" width="41.8237" height="20" class="st7"/>
			<text x="9.25" y="462.08" class="st2">H/W</text>		</g>
		<g id="shape235-31" transform="translate(12.2128,-136.423)">
			<title>Sheet.235</title>
			<desc>IRQ</desc>
			<rect x="0" y="448.484" width="41.8237" height="20" class="st7"/>
			<text x="10.24" y="462.08" class="st2">IRQ</text>		</g>
		<g id="shape236-34" transform="translate(73.874,-140.832)">
			<title>Rectangle.151</title>
			<desc>UART_IRQ</desc>
			<rect x="0" y="447.224" width="75.8318" height="21.2598" class="st1"/>
			<text x="7.58" y="461.45" class="st2">UART_IRQ</text>		</g>
		<g id="shape237-37" transform="translate(73.874,-190.439)">
			<title>Rectangle.152</title>
			<desc>app_uart.c</desc>
			<rect x="0" y="425.964" width="94.8227" height="42.5197" class="st1"/>
			<text x="19.06" y="450.82" class="st2">app_uart.c</text>		</g>
		<g id="shape238-40" transform="translate(0.36,-225.872)">
			<title>Sheet.238</title>
			<desc>H/W drv</desc>
			<rect x="0" y="425.964" width="55.3133" height="42.5197" class="st7"/>
			<text x="15.99" y="443.62" class="st2">H/W <tspan x="19.32" dy="1.2em" class="st8">drv</tspan></text>		</g>
		<g id="shape239-44" transform="translate(-408.86,448.124) rotate(-90)">
			<title>Sheet.239</title>
			<path d="M0 468.48 L447.87 468.48" class="st6"/>
		</g>
		<g id="shape240-47" transform="translate(10.415,-451.226)">
			<title>Sheet.240</title>
			<path d="M0 468.48 L696.27 468.48" class="st6"/>
		</g>
		<g id="shape241-50" transform="translate(73.874,-252.801)">
			<title>Rectangle.157</title>
			<desc>ser_phy_hci_slip.c</desc>
			<rect x="0" y="425.964" width="110.627" height="42.5197" class="st1"/>
			<text x="5.95" y="450.82" class="st2">ser_phy_hci_slip.c</text>		</g>
		<g id="shape242-53" transform="translate(-179.207,448.124) rotate(-90)">
			<title>Sheet.242</title>
			<path d="M0 468.48 L447.87 468.48" class="st6"/>
		</g>
		<g id="shape243-56" transform="translate(0.36,-394.533)">
			<title>Sheet.243</title>
			<desc>HAL</desc>
			<rect x="0" y="425.964" width="55.3133" height="42.5197" class="st7"/>
			<text x="15.98" y="450.82" class="st2">HAL</text>		</g>
		<g id="shape244-59" transform="translate(-342.484,363.085) rotate(-90)">
			<title>Sheet.244</title>
			<path d="M7.92 468.48 L8.28 468.48 L27.15 468.48" class="st3"/>
		</g>
		<g id="shape245-66" transform="translate(-342.849,299.519) rotate(-89.1594)">
			<title>Sheet.245</title>
			<path d="M7.92 468.48 L8.28 468.48 L20.07 468.48" class="st3"/>
		</g>
		<g id="shape246-73" transform="translate(-295.703,110.801) rotate(-90)">
			<title>Sheet.246</title>
			<path d="M7.92 468.48 L8.28 468.48 L28.57 468.48" class="st3"/>
		</g>
		<g id="shape247-80" transform="translate(-364.609,448.124) rotate(-90)">
			<title>Sheet.247</title>
			<path d="M0 468.48 L34.24 468.48" class="st9"/>
		</g>
		<g id="shape248-85" transform="translate(597.193,405.604) rotate(90)">
			<title>Sheet.248</title>
			<path d="M0 468.48 L34.24 468.48" class="st9"/>
		</g>
		<g id="shape249-90" transform="translate(550.234,405.604) rotate(90)">
			<title>Sheet.249</title>
			<path d="M0 468.48 L34.24 468.48" class="st9"/>
		</g>
		<g id="shape250-95" transform="translate(-314.037,235.526) rotate(-90)">
			<title>Sheet.250</title>
			<path d="M7.92 468.48 L8.28 468.48 L11.56 468.48" class="st3"/>
		</g>
		<g id="shape251-102" transform="translate(59.6242,-0.36)">
			<title>Sheet.251</title>
			<desc>TX</desc>
			<rect x="0" y="448.484" width="41.8237" height="20" class="st7"/>
			<text x="13.24" y="462.08" class="st2">TX</text>		</g>
		<g id="shape252-105" transform="translate(83.3299,-0.51748)">
			<title>Sheet.252</title>
			<desc>RX</desc>
			<rect x="0" y="448.484" width="37.9291" height="20" class="st7"/>
			<text x="10.63" y="462.08" class="st2">RX</text>		</g>
		<g id="shape253-108" transform="translate(135.116,-0.36)">
			<title>Sheet.253</title>
			<desc>/CTS</desc>
			<rect x="0" y="448.484" width="41.8237" height="20" class="st7"/>
			<text x="7.24" y="462.08" class="st2">/CTS</text>		</g>
		<g id="shape254-111" transform="translate(324.835,-140.832)">
			<title>Rectangle.191</title>
			<desc>SW_IRQ2</desc>
			<rect x="0" y="447.224" width="63.7057" height="21.2598" class="st1"/>
			<text x="4.85" y="461.45" class="st2">SW_IRQ2</text>		</g>
		<g id="shape255-114" transform="translate(296.688,-394.061)">
			<title>Rectangle.192</title>
			<desc>ser_app_hal_nrf51.c</desc>
			<rect x="0" y="425.964" width="120" height="42.5197" class="st5"/>
			<text x="5.29" y="450.82" class="st2">ser_app_hal_nrf51.c</text>		</g>
		<g id="shape256-117" transform="translate(-111.796,306.392) rotate(-90)">
			<title>Sheet.256</title>
			<path d="M7.92 468.48 L8.28 468.48 L223.69 468.48" class="st3"/>
		</g>
		<g id="shape257-124" transform="translate(-39.5501,448.124) rotate(-90)">
			<title>Sheet.257</title>
			<path d="M0 468.48 L447.87 468.48" class="st6"/>
		</g>
		<g id="shape258-127" transform="translate(441.688,-394.061)">
			<title>Rectangle.196</title>
			<desc>app_timer.c</desc>
			<rect x="0" y="425.964" width="110.627" height="42.5197" class="st5"/>
			<text x="23.97" y="450.82" class="st2">app_timer.c</text>		</g>
		<g id="shape259-130" transform="translate(507.462,-140.832)">
			<title>Rectangle.197</title>
			<desc>RTC_IRQ</desc>
			<rect x="0" y="447.224" width="63.7057" height="21.2598" class="st1"/>
			<text x="5.52" y="461.45" class="st2">RTC_IRQ</text>		</g>
		<g id="shape260-133" transform="translate(440.871,-140.832)">
			<title>Rectangle.198</title>
			<desc>SW_IRQ0</desc>
			<rect x="0" y="447.224" width="63.7057" height="21.2598" class="st1"/>
			<text x="4.85" y="461.45" class="st2">SW_IRQ0</text>		</g>
		<g id="shape261-136" transform="translate(4.23937,306.392) rotate(-90)">
			<title>Sheet.261</title>
			<path d="M7.92 468.48 L8.28 468.48 L223.69 468.48" class="st3"/>
		</g>
		<g id="shape262-143" transform="translate(70.8311,306.392) rotate(-90)">
			<title>Sheet.262</title>
			<path d="M7.92 468.48 L8.28 468.48 L223.69 468.48" class="st3"/>
		</g>
		<g id="shape263-150" transform="translate(108.204,448.124) rotate(-90)">
			<title>Sheet.263</title>
			<path d="M0 468.48 L447.87 468.48" class="st6"/>
		</g>
		<g id="shape264-153" transform="translate(591.964,-62.8797)">
			<title>Rectangle.202</title>
			<desc>NVMC</desc>
			<rect x="0" y="425.964" width="94.8227" height="42.5197" class="st1"/>
			<text x="29.75" y="450.82" class="st2">NVMC</text>		</g>
		<g id="shape265-156" transform="translate(461.688,-62.8797)">
			<title>Rectangle.203</title>
			<desc>RTC</desc>
			<rect x="0" y="425.964" width="94.8227" height="42.5197" class="st1"/>
			<text x="35.08" y="450.82" class="st2">RTC</text>		</g>
		<g id="shape266-159" transform="translate(70.8311,363.085) rotate(-90)">
			<title>Sheet.266</title>
			<path d="M7.92 468.48 L8.28 468.48 L27.15 468.48" class="st3"/>
		</g>
		<g id="shape267-166" transform="translate(584.062,-394.061)">
			<title>Rectangle.205</title>
			<desc>pstorage_nosd.c</desc>
			<rect x="0" y="425.964" width="110.627" height="42.5197" class="st5"/>
			<text x="10.95" y="450.82" class="st2">pstorage_nosd.c</text>		</g>
		<g id="shape268-169" transform="translate(170.891,363.085) rotate(-90)">
			<title>Sheet.268</title>
			<path d="M7.92 468.48 L8.28 468.48 L76.76 468.48" class="st3"/>
		</g>
		<g id="shape269-176" transform="translate(-317.198,448.124) rotate(-90)">
			<title>Sheet.269</title>
			<path d="M0 468.48 L34.24 468.48" class="st9"/>
		</g>
		<g id="shape270-181" transform="translate(106.669,-0.51748)">
			<title>Sheet.270</title>
			<desc>/RTS</desc>
			<rect x="0" y="448.484" width="41.8237" height="20" class="st7"/>
			<text x="7.24" y="462.08" class="st2">/RTS</text>		</g>
		<g id="shape271-184" transform="translate(591.964,-190.439)">
			<title>Rectangle.211</title>
			<desc>ble_flash.c</desc>
			<rect x="0" y="425.964" width="94.8227" height="42.5197" class="st1"/>
			<text x="18.73" y="450.82" class="st2">ble_flash.c</text>		</g>
		<g id="shape272-187" transform="translate(170.891,235.526) rotate(-90)">
			<title>Sheet.272</title>
			<path d="M7.92 468.48 L8.28 468.48 L152.82 468.48" class="st3"/>
		</g>
		<g id="shape273-194" transform="translate(73.874,-315.163)">
			<title>Rectangle.213</title>
			<desc>ser_phy_hci.c</desc>
			<rect x="0" y="425.964" width="197.814" height="42.5197" class="st1"/>
			<text x="61.89" y="450.82" class="st2">ser_phy_hci.c</text>		</g>
		<g id="shape274-197" transform="translate(-314.037,173.163) rotate(-90)">
			<title>Sheet.274</title>
			<path d="M7.92 468.48 L8.28 468.48 L11.56 468.48" class="st3"/>
		</g>
		<g id="shape275-204" transform="translate(184.501,-62.8797)">
			<title>Rectangle.217</title>
			<desc>TIMER</desc>
			<rect x="0" y="425.964" width="94.8227" height="42.5197" class="st1"/>
			<text x="28.75" y="450.82" class="st2">TIMER</text>		</g>
		<g id="shape276-207" transform="translate(193.996,-140.832)">
			<title>Rectangle.218</title>
			<desc>TIMER_IRQ</desc>
			<rect x="0" y="447.224" width="75.8318" height="21.2598" class="st1"/>
			<text x="5.25" y="461.45" class="st2">TIMER_IRQ</text>		</g>
		<g id="shape277-210" transform="translate(-236.572,363.085) rotate(-90)">
			<title>Sheet.277</title>
			<path d="M7.92 468.48 L8.28 468.48 L27.15 468.48" class="st3"/>
		</g>
		<g id="shape278-217" transform="translate(-236.572,306.702) rotate(-90.038)">
			<title>Sheet.278</title>
			<path d="M7.92 468.48 L8.28 468.48 L144.79 468.48" class="st3"/>
		</g>
	</g>
</svg>
