<?xml version="1.0" encoding="UTF-8" standalone="no"?>
<!DOCTYPE svg PUBLIC "-//W3C//DTD SVG 1.1//EN" "http://www.w3.org/Graphics/SVG/1.1/DTD/svg11.dtd">
<!-- Generated by Microsoft Visio, SVG Export serialization_porting_guide_uart.svg Page-1 -->
<svg xmlns="http://www.w3.org/2000/svg" xmlns:xlink="http://www.w3.org/1999/xlink" xmlns:ev="http://www.w3.org/2001/xml-events"
		width="11.7703in" height="8.17678in" viewBox="0 0 847.46 588.728" xml:space="preserve" color-interpolation-filters="sRGB"
		class="st10">
	<style type="text/css">
	<![CDATA[
		.st1 {fill:#009cde;stroke:#000000;stroke-linecap:round;stroke-linejoin:round;stroke-width:0.24}
		.st2 {fill:#000000;font-family:Arial;font-size:1.00001em}
		.st3 {marker-end:url(#mrkr13-12);marker-start:url(#mrkr13-10);stroke:#000000;stroke-linecap:round;stroke-linejoin:round;stroke-width:0.24}
		.st4 {fill:#000000;fill-opacity:1;stroke:#000000;stroke-opacity:1;stroke-width:0.08695652173913}
		.st5 {fill:#c4dbf2;stroke:#000000;stroke-linecap:round;stroke-linejoin:round;stroke-width:0.24}
		.st6 {stroke:#000000;stroke-dasharray:7.5,4.5;stroke-linecap:round;stroke-linejoin:round;stroke-width:0.5}
		.st7 {fill:none;stroke:none;stroke-linecap:round;stroke-linejoin:round;stroke-width:0.72}
		.st8 {font-size:1em}
		.st9 {marker-end:url(#mrkr1-85);stroke:#000000;stroke-linecap:round;stroke-linejoin:round;stroke-width:0.24}
		.st10 {fill:none;fill-rule:evenodd;font-size:12px;overflow:visible;stroke-linecap:square;stroke-miterlimit:3}
	]]>
	</style>

	<defs id="Markers">
		<g id="lend13">
			<path d="M 3 1 L 0 0 L 3 -1 L 3 1 " style="stroke:none"/>
		</g>
		<marker id="mrkr13-10" class="st4" refX="33" orient="auto" markerUnits="strokeWidth" overflow="visible">
			<use xlink:href="#lend13" transform="scale(11.5) "/>
		</marker>
		<marker id="mrkr13-12" class="st4" refX="-34.5" orient="auto" markerUnits="strokeWidth" overflow="visible">
			<use xlink:href="#lend13" transform="scale(-11.5,-11.5) "/>
		</marker>
		<g id="lend1">
			<path d="M 1 -1 L 0 0 L 1 1 " style="stroke-linecap:round;stroke-linejoin:round;fill:none"/>
		</g>
		<marker id="mrkr1-85" class="st4" orient="auto" markerUnits="strokeWidth" overflow="visible">
			<use xlink:href="#lend1" transform="scale(-11.5,-11.5) "/>
		</marker>
	</defs>
	<g>
		<title>Page-1</title>
		<g id="shape227-1" transform="translate(129.337,-88.5666)">
			<title>Rectangle.37</title>
			<desc>UART</desc>
			<rect x="0" y="528.739" width="119.979" height="59.9894" class="st1"/>
			<text x="43.66" y="562.33" class="st2">UART</text>		</g>
		<g id="shape228-4" transform="translate(-359.409,440.172) rotate(-90)">
			<title>Sheet.228</title>
			<path d="M7.92 588.73 L8.28 588.73 L111.7 588.73" class="st3"/>
		</g>
		<g id="shape229-13" transform="translate(96.343,-458.501)">
			<title>Rectangle.4</title>
			<desc>ser_hal_transport.c</desc>
			<rect x="0" y="525.835" width="198.965" height="62.8935" class="st5"/>
			<text x="48.12" y="560.88" class="st2">ser_hal_transport.c</text>		</g>
		<g id="shape230-16" transform="translate(13.0825,-168.553)">
			<title>Sheet.230</title>
			<path d="M0 588.73 L834.13 588.73" class="st6"/>
		</g>
		<g id="shape231-19" transform="translate(13.0825,-68.5702)">
			<title>Sheet.231</title>
			<path d="M0 588.73 L834.13 588.73" class="st6"/>
		</g>
		<g id="shape232-22" transform="translate(7.39159,-248.538)">
			<title>Sheet.232</title>
			<path d="M0 588.73 L834.13 588.73" class="st6"/>
		</g>
		<g id="shape233-25" transform="translate(5.35912,-438.505)">
			<title>Sheet.233</title>
			<path d="M0 588.73 L834.13 588.73" class="st6"/>
		</g>
		<g id="shape234-28" transform="translate(12.8935,-100.565)">
			<title>Sheet.234</title>
			<desc>H/W</desc>
			<rect x="0" y="560.511" width="52.9193" height="28.2172" class="st7"/>
			<text x="14.8" y="578.22" class="st2">H/W</text>		</g>
		<g id="shape235-31" transform="translate(15.3574,-192.326)">
			<title>Sheet.235</title>
			<desc>IRQ</desc>
			<rect x="0" y="560.511" width="52.9193" height="28.2172" class="st7"/>
			<text x="15.79" y="578.22" class="st2">IRQ</text>		</g>
		<g id="shape236-34" transform="translate(129.337,-198.547)">
			<title>Rectangle.151</title>
			<desc>UART_IRQ</desc>
			<rect x="0" y="558.734" width="69.9876" height="29.9947" class="st1"/>
			<text x="4.66" y="577.33" class="st2">UART_IRQ</text>		</g>
		<g id="shape237-37" transform="translate(135.836,-268.535)">
			<title>Rectangle.152</title>
			<desc>app_uart.c</desc>
			<rect x="0" y="525.835" width="119.979" height="62.8935" class="st1"/>
			<text x="31.64" y="560.88" class="st2">app_uart.c</text>		</g>
		<g id="shape238-40" transform="translate(0.36,-318.526)">
			<title>Sheet.238</title>
			<desc>H/W drv</desc>
			<rect x="0" y="528.739" width="69.9876" height="59.9894" class="st7"/>
			<text x="23.33" y="555.13" class="st2">H/W <tspan x="26.66" dy="1.2em" class="st8">drv</tspan></text>		</g>
		<g id="shape239-44" transform="translate(-513.382,560.151) rotate(-90)">
			<title>Sheet.239</title>
			<path d="M0 588.73 L559.9 588.73" class="st6"/>
		</g>
		<g id="shape240-47" transform="translate(13.0825,-538.487)">
			<title>Sheet.240</title>
			<path d="M0 588.73 L834.13 588.73" class="st6"/>
		</g>
		<g id="shape241-50" transform="translate(96.343,-360.419)">
			<title>Rectangle.157</title>
			<desc>ser_phy_nrf51_uart.c</desc>
			<rect x="0" y="525.835" width="198.965" height="62.8935" class="st1"/>
			<text x="42.78" y="560.88" class="st2">ser_phy_nrf51_uart.c</text>		</g>
		<g id="shape242-53" transform="translate(-253.427,560.151) rotate(-90)">
			<title>Sheet.242</title>
			<path d="M0 588.73 L559.9 588.73" class="st6"/>
		</g>
		<g id="shape243-56" transform="translate(0.36,-458.501)">
			<title>Sheet.243</title>
			<desc>HAL</desc>
			<rect x="0" y="528.739" width="69.9876" height="59.9894" class="st7"/>
			<text x="23.32" y="562.33" class="st2">HAL</text>		</g>
		<g id="shape244-59" transform="translate(-429.396,440.172) rotate(-90)">
			<title>Sheet.244</title>
			<path d="M7.92 588.73 L8.28 588.73 L41.71 588.73" class="st3"/>
		</g>
		<g id="shape245-66" transform="translate(-429.872,352.441) rotate(-89.2462)">
			<title>Sheet.245</title>
			<path d="M7.92 588.73 L8.28 588.73 L31.72 588.73" class="st3"/>
		</g>
		<g id="shape246-73" transform="translate(-392.903,165.416) rotate(-90)">
			<title>Sheet.246</title>
			<path d="M7.92 588.73 L8.28 588.73 L26.91 588.73" class="st3"/>
		</g>
		<g id="shape247-80" transform="translate(-419.398,560.151) rotate(-90)">
			<title>Sheet.247</title>
			<path d="M0 588.73 L59.99 588.73" class="st9"/>
		</g>
		<g id="shape248-86" transform="translate(789.481,500.162) rotate(90)">
			<title>Sheet.248</title>
			<path d="M0 588.73 L59.99 588.73" class="st9"/>
		</g>
		<g id="shape249-91" transform="translate(730.063,500.162) rotate(90)">
			<title>Sheet.249</title>
			<path d="M0 588.73 L59.99 588.73" class="st9"/>
		</g>
		<g id="shape250-96" transform="translate(-392.903,257.3) rotate(-90)">
			<title>Sheet.250</title>
			<path d="M7.92 588.73 L8.28 588.73 L20.71 588.73" class="st3"/>
		</g>
		<g id="shape251-103" transform="translate(111.34,-0.36)">
			<title>Sheet.251</title>
			<desc>TX</desc>
			<rect x="0" y="560.511" width="52.9193" height="28.2172" class="st7"/>
			<text x="18.79" y="578.22" class="st2">TX</text>		</g>
		<g id="shape252-106" transform="translate(145.334,-0.582183)">
			<title>Sheet.252</title>
			<desc>RX</desc>
			<rect x="0" y="560.511" width="47.9915" height="28.2172" class="st7"/>
			<text x="15.66" y="578.22" class="st2">RX</text>		</g>
		<g id="shape253-109" transform="translate(173.329,-0.36)">
			<title>Sheet.253</title>
			<desc>/CTS</desc>
			<rect x="0" y="560.511" width="52.9193" height="28.2172" class="st7"/>
			<text x="12.79" y="578.22" class="st2">/CTS</text>		</g>
		<g id="shape254-112" transform="translate(380.293,-198.547)">
			<title>Rectangle.191</title>
			<desc>SW_IRQ2</desc>
			<rect x="0" y="558.734" width="69.9876" height="29.9947" class="st1"/>
			<text x="7.99" y="577.33" class="st2">SW_IRQ2</text>		</g>
		<g id="shape255-115" transform="translate(355.297,-458.501)">
			<title>Rectangle.192</title>
			<desc>ser_app_hal_nrf51.c</desc>
			<rect x="0" y="525.835" width="119.979" height="62.8935" class="st5"/>
			<text x="5.28" y="560.88" class="st2">ser_app_hal_nrf51.c</text>		</g>
		<g id="shape256-118" transform="translate(-173.442,360.186) rotate(-90)">
			<title>Sheet.256</title>
			<path d="M7.92 588.73 L8.28 588.73 L221.68 588.73" class="st3"/>
		</g>
		<g id="shape257-125" transform="translate(-93.4558,560.151) rotate(-90)">
			<title>Sheet.257</title>
			<path d="M0 588.73 L559.9 588.73" class="st6"/>
		</g>
		<g id="shape258-128" transform="translate(515.269,-458.501)">
			<title>Rectangle.196</title>
			<desc>app_timer.c</desc>
			<rect x="0" y="525.835" width="139.975" height="62.8935" class="st5"/>
			<text x="38.64" y="560.88" class="st2">app_timer.c</text>		</g>
		<g id="shape259-131" transform="translate(585.257,-198.547)">
			<title>Rectangle.197</title>
			<desc>RTC_IRQ</desc>
			<rect x="0" y="558.734" width="69.9876" height="29.9947" class="st1"/>
			<text x="8.66" y="577.33" class="st2">RTC_IRQ</text>		</g>
		<g id="shape260-134" transform="translate(500.272,-198.547)">
			<title>Rectangle.198</title>
			<desc>SW_IRQ0</desc>
			<rect x="0" y="558.734" width="69.9876" height="29.9947" class="st1"/>
			<text x="7.99" y="577.33" class="st2">SW_IRQ0</text>		</g>
		<g id="shape261-137" transform="translate(-53.4628,360.186) rotate(-90)">
			<title>Sheet.261</title>
			<path d="M7.92 588.73 L8.28 588.73 L221.68 588.73" class="st3"/>
		</g>
		<g id="shape262-144" transform="translate(26.5231,360.186) rotate(-90)">
			<title>Sheet.262</title>
			<path d="M7.92 588.73 L8.28 588.73 L221.68 588.73" class="st3"/>
		</g>
		<g id="shape263-151" transform="translate(86.5125,560.151) rotate(-90)">
			<title>Sheet.263</title>
			<path d="M0 588.73 L559.9 588.73" class="st6"/>
		</g>
		<g id="shape264-154" transform="translate(695.237,-88.5666)">
			<title>Rectangle.202</title>
			<desc>NVMC</desc>
			<rect x="0" y="528.739" width="119.979" height="59.9894" class="st1"/>
			<text x="42.32" y="562.33" class="st2">NVMC</text>		</g>
		<g id="shape265-157" transform="translate(522.636,-88.5666)">
			<title>Rectangle.203</title>
			<desc>RTC</desc>
			<rect x="0" y="528.739" width="119.979" height="59.9894" class="st1"/>
			<text x="47.66" y="562.33" class="st2">RTC</text>		</g>
		<g id="shape266-160" transform="translate(26.5231,440.172) rotate(-90)">
			<title>Sheet.266</title>
			<path d="M7.92 588.73 L8.28 588.73 L41.71 588.73" class="st3"/>
		</g>
		<g id="shape267-167" transform="translate(695.237,-458.501)">
			<title>Rectangle.205</title>
			<desc>pstorage_nosd.c</desc>
			<rect x="0" y="525.835" width="119.979" height="62.8935" class="st5"/>
			<text x="15.62" y="560.88" class="st2">pstorage_nosd.c</text>		</g>
		<g id="shape268-170" transform="translate(166.498,440.172) rotate(-90)">
			<title>Sheet.268</title>
			<path d="M7.92 588.73 L8.28 588.73 L111.7 588.73" class="st3"/>
		</g>
		<g id="shape269-177" transform="translate(-359.409,560.151) rotate(-90)">
			<title>Sheet.269</title>
			<path d="M0 588.73 L59.99 588.73" class="st9"/>
		</g>
		<g id="shape270-182" transform="translate(208.395,-0.36)">
			<title>Sheet.270</title>
			<desc>/RTS</desc>
			<rect x="0" y="560.511" width="52.9193" height="28.2172" class="st7"/>
			<text x="12.79" y="578.22" class="st2">/RTS</text>		</g>
		<g id="shape271-185" transform="translate(695.237,-268.535)">
			<title>Rectangle.211</title>
			<desc>ble_flash.c</desc>
			<rect x="0" y="525.835" width="119.979" height="62.8935" class="st1"/>
			<text x="31.3" y="560.88" class="st2">ble_flash.c</text>		</g>
		<g id="shape272-188" transform="translate(166.498,257.3) rotate(-90)">
			<title>Sheet.272</title>
			<path d="M7.92 588.73 L8.28 588.73 L118.79 588.73" class="st3"/>
		</g>
	</g>
</svg>
